<?xml version="1.0" encoding="UTF-8"?>
<svg xmlns="http://www.w3.org/2000/svg" version="1.1" width="100" height="100" viewBox="0 0 100 100"><rect x="0" y="0" width="100" height="100" fill="#ffffff"/><g transform="scale(3.03)"><g transform="translate(0,0)"><path fill-rule="evenodd" d="M10 0L10 2L11 2L11 0ZM12 0L12 1L13 1L13 0ZM14 0L14 1L15 1L15 2L14 2L14 3L13 3L13 2L12 2L12 4L14 4L14 5L11 5L11 6L10 6L10 4L11 4L11 3L8 3L8 4L9 4L9 5L8 5L8 7L9 7L9 8L6 8L6 9L5 9L5 8L0 8L0 9L1 9L1 10L3 10L3 11L0 11L0 12L1 12L1 14L0 14L0 16L1 16L1 17L2 17L2 18L4 18L4 17L2 17L2 16L4 16L4 15L7 15L7 16L6 16L6 17L5 17L5 19L7 19L7 18L8 18L8 20L9 20L9 21L10 21L10 22L8 22L8 21L7 21L7 20L4 20L4 19L3 19L3 20L4 20L4 21L5 21L5 22L3 22L3 21L2 21L2 19L1 19L1 21L0 21L0 25L1 25L1 22L3 22L3 24L2 24L2 25L5 25L5 24L4 24L4 23L8 23L8 24L6 24L6 25L8 25L8 27L9 27L9 26L10 26L10 28L8 28L8 33L12 33L12 31L13 31L13 30L11 30L11 29L10 29L10 28L11 28L11 25L12 25L12 26L13 26L13 27L12 27L12 29L13 29L13 28L14 28L14 29L16 29L16 30L15 30L15 31L14 31L14 32L15 32L15 33L16 33L16 32L17 32L17 33L18 33L18 32L17 32L17 31L16 31L16 30L20 30L20 32L22 32L22 33L27 33L27 32L28 32L28 33L29 33L29 32L31 32L31 33L32 33L32 32L31 32L31 30L33 30L33 27L32 27L32 26L33 26L33 24L32 24L32 26L30 26L30 25L29 25L29 24L31 24L31 23L32 23L32 22L33 22L33 21L32 21L32 20L31 20L31 19L32 19L32 18L33 18L33 17L32 17L32 16L31 16L31 15L32 15L32 14L33 14L33 13L31 13L31 15L30 15L30 16L31 16L31 19L30 19L30 17L29 17L29 16L28 16L28 15L29 15L29 14L28 14L28 15L27 15L27 13L30 13L30 12L31 12L31 11L32 11L32 10L33 10L33 9L32 9L32 8L31 8L31 9L30 9L30 8L29 8L29 9L30 9L30 10L29 10L29 11L28 11L28 10L27 10L27 9L28 9L28 8L27 8L27 9L26 9L26 8L25 8L25 6L24 6L24 9L23 9L23 10L22 10L22 11L20 11L20 13L18 13L18 12L17 12L17 11L16 11L16 10L17 10L17 9L18 9L18 8L19 8L19 6L18 6L18 8L15 8L15 6L16 6L16 7L17 7L17 5L15 5L15 4L14 4L14 3L15 3L15 2L16 2L16 3L17 3L17 4L18 4L18 3L17 3L17 2L19 2L19 1L20 1L20 3L19 3L19 5L20 5L20 8L22 8L22 7L23 7L23 6L22 6L22 5L20 5L20 3L22 3L22 4L23 4L23 5L24 5L24 4L23 4L23 3L25 3L25 2L22 2L22 0L19 0L19 1L15 1L15 0ZM23 0L23 1L24 1L24 0ZM8 1L8 2L9 2L9 1ZM9 6L9 7L10 7L10 6ZM11 6L11 7L12 7L12 9L11 9L11 8L10 8L10 9L9 9L9 11L8 11L8 9L6 9L6 10L7 10L7 11L5 11L5 9L4 9L4 11L3 11L3 13L4 13L4 14L1 14L1 16L2 16L2 15L4 15L4 14L5 14L5 12L7 12L7 11L8 11L8 12L11 12L11 13L9 13L9 14L8 14L8 16L7 16L7 17L6 17L6 18L7 18L7 17L8 17L8 16L9 16L9 18L10 18L10 19L11 19L11 20L10 20L10 21L11 21L11 22L13 22L13 23L12 23L12 25L15 25L15 26L16 26L16 25L15 25L15 24L14 24L14 23L15 23L15 22L16 22L16 23L17 23L17 24L18 24L18 25L17 25L17 28L16 28L16 29L17 29L17 28L18 28L18 27L22 27L22 26L24 26L24 25L23 25L23 24L25 24L25 23L26 23L26 24L27 24L27 23L29 23L29 21L30 21L30 23L31 23L31 20L30 20L30 19L29 19L29 21L27 21L27 19L28 19L28 18L29 18L29 17L27 17L27 16L26 16L26 17L24 17L24 16L25 16L25 15L26 15L26 13L27 13L27 10L26 10L26 9L24 9L24 10L23 10L23 11L22 11L22 12L21 12L21 15L20 15L20 14L18 14L18 13L17 13L17 12L15 12L15 11L13 11L13 10L14 10L14 9L15 9L15 10L16 10L16 9L15 9L15 8L14 8L14 6L13 6L13 7L12 7L12 6ZM21 6L21 7L22 7L22 6ZM13 8L13 9L12 9L12 10L13 10L13 9L14 9L14 8ZM10 9L10 11L11 11L11 9ZM19 9L19 10L21 10L21 9ZM24 10L24 11L23 11L23 12L22 12L22 13L23 13L23 14L22 14L22 15L21 15L21 16L22 16L22 17L18 17L18 16L19 16L19 15L18 15L18 16L17 16L17 17L16 17L16 18L14 18L14 17L12 17L12 15L15 15L15 16L16 16L16 15L17 15L17 13L16 13L16 14L15 14L15 13L14 13L14 12L13 12L13 11L12 11L12 13L14 13L14 14L10 14L10 15L11 15L11 16L10 16L10 17L12 17L12 18L13 18L13 19L12 19L12 21L13 21L13 20L14 20L14 21L16 21L16 22L17 22L17 23L18 23L18 24L19 24L19 23L18 23L18 22L20 22L20 24L23 24L23 22L24 22L24 21L26 21L26 23L27 23L27 21L26 21L26 20L25 20L25 19L24 19L24 21L23 21L23 20L22 20L22 19L21 19L21 20L20 20L20 19L19 19L19 20L20 20L20 21L18 21L18 20L17 20L17 21L16 21L16 19L17 19L17 17L18 17L18 18L24 18L24 17L23 17L23 14L24 14L24 15L25 15L25 14L24 14L24 13L23 13L23 12L25 12L25 13L26 13L26 11L25 11L25 10ZM30 10L30 11L29 11L29 12L30 12L30 11L31 11L31 10ZM4 11L4 12L5 12L5 11ZM6 13L6 14L7 14L7 13ZM26 17L26 19L27 19L27 17ZM14 19L14 20L15 20L15 19ZM21 20L21 21L22 21L22 22L21 22L21 23L22 23L22 22L23 22L23 21L22 21L22 20ZM6 21L6 22L7 22L7 21ZM9 24L9 25L11 25L11 24ZM19 25L19 26L21 26L21 25ZM25 25L25 28L28 28L28 25ZM26 26L26 27L27 27L27 26ZM14 27L14 28L15 28L15 27ZM20 28L20 29L22 29L22 30L21 30L21 31L22 31L22 30L23 30L23 32L25 32L25 31L26 31L26 32L27 32L27 31L29 31L29 30L30 30L30 29L31 29L31 28L29 28L29 30L27 30L27 29L26 29L26 30L24 30L24 28L23 28L23 29L22 29L22 28ZM9 30L9 31L10 31L10 30ZM26 30L26 31L27 31L27 30ZM0 0L0 7L7 7L7 0ZM1 1L1 6L6 6L6 1ZM2 2L2 5L5 5L5 2ZM26 0L26 7L33 7L33 0ZM27 1L27 6L32 6L32 1ZM28 2L28 5L31 5L31 2ZM0 26L0 33L7 33L7 26ZM1 27L1 32L6 32L6 27ZM2 28L2 31L5 31L5 28Z" fill="#000000"/></g></g></svg>
