<?xml version="1.0" encoding="UTF-8"?>
<svg xmlns="http://www.w3.org/2000/svg" version="1.1" width="100" height="100" viewBox="0 0 100 100"><rect x="0" y="0" width="100" height="100" fill="#ffffff"/><g transform="scale(3.03)"><g transform="translate(0,0)"><path fill-rule="evenodd" d="M9 0L9 1L8 1L8 3L9 3L9 4L8 4L8 8L6 8L6 9L4 9L4 8L3 8L3 9L2 9L2 8L0 8L0 9L2 9L2 10L0 10L0 11L1 11L1 12L0 12L0 13L1 13L1 15L0 15L0 16L1 16L1 15L2 15L2 16L5 16L5 17L4 17L4 18L3 18L3 17L1 17L1 19L2 19L2 20L1 20L1 22L0 22L0 23L1 23L1 24L0 24L0 25L1 25L1 24L2 24L2 25L5 25L5 24L6 24L6 25L7 25L7 24L11 24L11 28L10 28L10 25L8 25L8 27L9 27L9 28L10 28L10 29L8 29L8 30L9 30L9 31L8 31L8 33L10 33L10 32L9 32L9 31L12 31L12 32L13 32L13 30L14 30L14 32L16 32L16 33L17 33L17 32L19 32L19 31L17 31L17 30L18 30L18 29L19 29L19 28L18 28L18 26L21 26L21 27L20 27L20 29L21 29L21 31L20 31L20 32L21 32L21 33L22 33L22 29L23 29L23 27L22 27L22 26L24 26L24 29L26 29L26 30L27 30L27 32L26 32L26 31L23 31L23 32L24 32L24 33L28 33L28 31L31 31L31 30L29 30L29 24L30 24L30 22L31 22L31 21L32 21L32 23L31 23L31 24L33 24L33 21L32 21L32 20L31 20L31 21L30 21L30 18L31 18L31 19L33 19L33 18L31 18L31 17L29 17L29 16L30 16L30 14L31 14L31 16L32 16L32 17L33 17L33 16L32 16L32 14L33 14L33 9L32 9L32 8L30 8L30 9L29 9L29 8L26 8L26 9L25 9L25 8L24 8L24 7L25 7L25 5L24 5L24 4L25 4L25 1L24 1L24 0L22 0L22 1L20 1L20 0L19 0L19 1L20 1L20 3L21 3L21 2L24 2L24 3L22 3L22 4L20 4L20 5L18 5L18 7L17 7L17 5L16 5L16 4L15 4L15 6L14 6L14 8L13 8L13 6L12 6L12 5L11 5L11 6L10 6L10 5L9 5L9 4L12 4L12 3L13 3L13 0L12 0L12 1L11 1L11 2L9 2L9 1L10 1L10 0ZM15 0L15 2L14 2L14 3L16 3L16 1L17 1L17 0ZM17 2L17 3L18 3L18 4L19 4L19 3L18 3L18 2ZM13 4L13 5L14 5L14 4ZM22 4L22 6L21 6L21 5L20 5L20 6L19 6L19 7L18 7L18 8L16 8L16 6L15 6L15 8L14 8L14 9L15 9L15 11L14 11L14 10L13 10L13 8L12 8L12 6L11 6L11 7L10 7L10 6L9 6L9 7L10 7L10 8L8 8L8 9L6 9L6 10L10 10L10 8L11 8L11 9L12 9L12 10L11 10L11 11L8 11L8 12L7 12L7 11L6 11L6 12L7 12L7 13L6 13L6 14L5 14L5 13L4 13L4 12L5 12L5 11L4 11L4 9L3 9L3 10L2 10L2 11L4 11L4 12L1 12L1 13L4 13L4 14L3 14L3 15L6 15L6 16L8 16L8 17L11 17L11 18L8 18L8 20L9 20L9 21L8 21L8 23L9 23L9 22L10 22L10 23L11 23L11 19L12 19L12 20L13 20L13 21L14 21L14 22L15 22L15 23L14 23L14 24L12 24L12 28L11 28L11 29L10 29L10 30L12 30L12 28L14 28L14 29L15 29L15 31L16 31L16 32L17 32L17 31L16 31L16 29L17 29L17 28L15 28L15 27L17 27L17 24L18 24L18 25L20 25L20 24L21 24L21 22L20 22L20 20L21 20L21 19L20 19L20 18L21 18L21 17L19 17L19 15L20 15L20 16L21 16L21 15L20 15L20 14L19 14L19 13L21 13L21 14L22 14L22 15L23 15L23 14L24 14L24 13L25 13L25 17L26 17L26 18L23 18L23 19L24 19L24 20L26 20L26 21L27 21L27 22L26 22L26 23L25 23L25 22L24 22L24 21L23 21L23 20L22 20L22 22L23 22L23 24L24 24L24 23L25 23L25 24L26 24L26 23L27 23L27 22L28 22L28 23L29 23L29 22L30 22L30 21L29 21L29 17L28 17L28 16L29 16L29 14L28 14L28 13L29 13L29 12L30 12L30 13L32 13L32 12L31 12L31 11L32 11L32 9L30 9L30 11L29 11L29 9L27 9L27 11L29 11L29 12L27 12L27 14L28 14L28 16L27 16L27 17L26 17L26 13L25 13L25 12L26 12L26 11L24 11L24 9L21 9L21 8L20 8L20 6L21 6L21 7L22 7L22 6L23 6L23 7L24 7L24 5L23 5L23 4ZM16 9L16 10L19 10L19 11L18 11L18 12L17 12L17 11L15 11L15 12L14 12L14 11L13 11L13 12L12 12L12 13L7 13L7 14L6 14L6 15L8 15L8 16L9 16L9 14L12 14L12 16L11 16L11 15L10 15L10 16L11 16L11 17L12 17L12 16L13 16L13 17L14 17L14 18L13 18L13 20L14 20L14 21L15 21L15 20L16 20L16 22L17 22L17 23L15 23L15 24L14 24L14 25L13 25L13 27L15 27L15 24L17 24L17 23L18 23L18 22L17 22L17 20L20 20L20 19L15 19L15 20L14 20L14 18L15 18L15 17L16 17L16 18L17 18L17 17L18 17L18 12L20 12L20 11L21 11L21 13L22 13L22 14L23 14L23 13L22 13L22 11L23 11L23 12L24 12L24 11L23 11L23 10L21 10L21 9L20 9L20 10L19 10L19 9ZM13 13L13 14L14 14L14 16L15 16L15 15L16 15L16 17L17 17L17 13L15 13L15 14L14 14L14 13ZM23 16L23 17L24 17L24 16ZM6 17L6 18L7 18L7 17ZM27 18L27 20L28 20L28 18ZM3 19L3 20L2 20L2 21L3 21L3 22L2 22L2 23L3 23L3 24L5 24L5 22L7 22L7 21L6 21L6 20L7 20L7 19L5 19L5 22L4 22L4 21L3 21L3 20L4 20L4 19ZM19 22L19 24L20 24L20 22ZM6 23L6 24L7 24L7 23ZM21 25L21 26L22 26L22 25ZM25 25L25 28L28 28L28 25ZM30 25L30 27L32 27L32 28L33 28L33 27L32 27L32 26L33 26L33 25L32 25L32 26L31 26L31 25ZM26 26L26 27L27 27L27 26ZM32 30L32 31L33 31L33 30ZM29 32L29 33L30 33L30 32ZM31 32L31 33L32 33L32 32ZM0 0L0 7L7 7L7 0ZM1 1L1 6L6 6L6 1ZM2 2L2 5L5 5L5 2ZM26 0L26 7L33 7L33 0ZM27 1L27 6L32 6L32 1ZM28 2L28 5L31 5L31 2ZM0 26L0 33L7 33L7 26ZM1 27L1 32L6 32L6 27ZM2 28L2 31L5 31L5 28Z" fill="#000000"/></g></g></svg>
