<?xml version="1.0" encoding="UTF-8"?>
<svg xmlns="http://www.w3.org/2000/svg" version="1.1" width="100" height="100" viewBox="0 0 100 100"><rect x="0" y="0" width="100" height="100" fill="#ffffff"/><g transform="scale(3.03)"><g transform="translate(0,0)"><path fill-rule="evenodd" d="M10 0L10 2L11 2L11 0ZM12 0L12 1L13 1L13 0ZM14 0L14 1L15 1L15 2L14 2L14 3L13 3L13 2L12 2L12 4L14 4L14 5L11 5L11 6L10 6L10 4L11 4L11 3L8 3L8 4L9 4L9 5L8 5L8 7L9 7L9 8L6 8L6 9L7 9L7 10L5 10L5 8L0 8L0 9L1 9L1 10L0 10L0 13L1 13L1 14L2 14L2 15L4 15L4 14L5 14L5 13L2 13L2 12L3 12L3 11L1 11L1 10L2 10L2 9L4 9L4 12L5 12L5 11L7 11L7 12L6 12L6 13L8 13L8 12L9 12L9 13L11 13L11 12L9 12L9 9L10 9L10 11L11 11L11 9L12 9L12 10L13 10L13 9L14 9L14 11L15 11L15 12L17 12L17 13L16 13L16 14L15 14L15 13L14 13L14 12L13 12L13 11L12 11L12 13L14 13L14 16L16 16L16 15L17 15L17 13L18 13L18 14L20 14L20 15L21 15L21 16L22 16L22 17L18 17L18 16L19 16L19 15L18 15L18 16L17 16L17 17L16 17L16 18L14 18L14 17L12 17L12 15L13 15L13 14L10 14L10 16L9 16L9 15L8 15L8 17L7 17L7 16L6 16L6 15L7 15L7 14L6 14L6 15L5 15L5 16L4 16L4 17L5 17L5 16L6 16L6 17L7 17L7 18L5 18L5 20L3 20L3 19L4 19L4 18L3 18L3 19L2 19L2 17L3 17L3 16L1 16L1 15L0 15L0 17L1 17L1 18L0 18L0 25L1 25L1 22L2 22L2 24L6 24L6 25L7 25L7 24L6 24L6 23L8 23L8 24L9 24L9 23L8 23L8 22L6 22L6 21L8 21L8 19L10 19L10 17L12 17L12 18L13 18L13 19L12 19L12 21L13 21L13 20L14 20L14 21L16 21L16 22L15 22L15 23L14 23L14 24L15 24L15 25L12 25L12 23L13 23L13 22L10 22L10 21L9 21L9 22L10 22L10 23L11 23L11 24L10 24L10 26L9 26L9 25L8 25L8 27L10 27L10 26L11 26L11 25L12 25L12 26L13 26L13 27L12 27L12 29L13 29L13 28L14 28L14 29L16 29L16 30L15 30L15 31L14 31L14 32L15 32L15 33L16 33L16 32L17 32L17 33L18 33L18 32L17 32L17 31L16 31L16 30L20 30L20 32L22 32L22 33L27 33L27 32L28 32L28 33L29 33L29 32L31 32L31 33L32 33L32 32L31 32L31 30L33 30L33 27L32 27L32 26L33 26L33 24L32 24L32 26L30 26L30 25L29 25L29 24L31 24L31 23L32 23L32 22L33 22L33 21L32 21L32 20L31 20L31 19L32 19L32 18L33 18L33 17L32 17L32 16L31 16L31 15L32 15L32 14L33 14L33 13L31 13L31 15L30 15L30 16L31 16L31 19L30 19L30 17L29 17L29 16L28 16L28 15L29 15L29 14L28 14L28 15L27 15L27 13L30 13L30 12L31 12L31 11L32 11L32 10L33 10L33 9L32 9L32 8L31 8L31 9L30 9L30 8L29 8L29 9L30 9L30 10L29 10L29 11L28 11L28 10L27 10L27 9L28 9L28 8L27 8L27 9L26 9L26 8L25 8L25 6L24 6L24 9L23 9L23 10L22 10L22 11L20 11L20 13L18 13L18 12L17 12L17 11L16 11L16 10L17 10L17 9L18 9L18 8L19 8L19 6L18 6L18 8L15 8L15 6L16 6L16 7L17 7L17 5L15 5L15 4L14 4L14 3L15 3L15 2L16 2L16 3L17 3L17 4L18 4L18 3L17 3L17 2L19 2L19 1L20 1L20 3L19 3L19 5L20 5L20 8L22 8L22 7L23 7L23 6L22 6L22 5L20 5L20 3L22 3L22 4L23 4L23 5L24 5L24 4L23 4L23 3L25 3L25 2L22 2L22 0L19 0L19 1L15 1L15 0ZM23 0L23 1L24 1L24 0ZM8 1L8 2L9 2L9 1ZM9 6L9 7L10 7L10 6ZM11 6L11 7L12 7L12 9L13 9L13 8L14 8L14 9L15 9L15 10L16 10L16 9L15 9L15 8L14 8L14 6L13 6L13 7L12 7L12 6ZM21 6L21 7L22 7L22 6ZM10 8L10 9L11 9L11 8ZM19 9L19 10L21 10L21 9ZM24 9L24 10L23 10L23 11L22 11L22 12L21 12L21 15L22 15L22 14L23 14L23 17L24 17L24 18L18 18L18 17L17 17L17 19L16 19L16 21L17 21L17 20L18 20L18 21L20 21L20 20L21 20L21 21L22 21L22 22L21 22L21 23L22 23L22 22L23 22L23 24L20 24L20 22L18 22L18 23L17 23L17 22L16 22L16 23L17 23L17 24L18 24L18 25L17 25L17 28L16 28L16 29L17 29L17 28L18 28L18 27L22 27L22 26L24 26L24 25L23 25L23 24L25 24L25 23L26 23L26 24L27 24L27 23L29 23L29 21L30 21L30 23L31 23L31 20L30 20L30 19L29 19L29 21L27 21L27 19L28 19L28 18L29 18L29 17L27 17L27 16L26 16L26 17L24 17L24 16L25 16L25 15L26 15L26 13L27 13L27 10L26 10L26 9ZM7 10L7 11L8 11L8 10ZM24 10L24 11L23 11L23 12L22 12L22 13L23 13L23 14L24 14L24 15L25 15L25 14L24 14L24 13L23 13L23 12L25 12L25 13L26 13L26 11L25 11L25 10ZM30 10L30 11L29 11L29 12L30 12L30 11L31 11L31 10ZM8 17L8 18L7 18L7 19L6 19L6 20L5 20L5 21L6 21L6 20L7 20L7 19L8 19L8 18L9 18L9 17ZM26 17L26 19L27 19L27 17ZM14 19L14 20L15 20L15 19ZM19 19L19 20L20 20L20 19ZM21 19L21 20L22 20L22 21L23 21L23 22L24 22L24 21L26 21L26 23L27 23L27 21L26 21L26 20L25 20L25 19L24 19L24 21L23 21L23 20L22 20L22 19ZM1 20L1 21L2 21L2 20ZM3 21L3 23L5 23L5 22L4 22L4 21ZM18 23L18 24L19 24L19 23ZM15 25L15 26L16 26L16 25ZM19 25L19 26L21 26L21 25ZM25 25L25 28L28 28L28 25ZM26 26L26 27L27 27L27 26ZM14 27L14 28L15 28L15 27ZM8 28L8 33L12 33L12 31L13 31L13 30L10 30L10 28ZM20 28L20 29L22 29L22 30L21 30L21 31L22 31L22 30L23 30L23 32L25 32L25 31L26 31L26 32L27 32L27 31L29 31L29 30L30 30L30 29L31 29L31 28L29 28L29 30L27 30L27 29L26 29L26 30L24 30L24 28L23 28L23 29L22 29L22 28ZM26 30L26 31L27 31L27 30ZM9 31L9 32L11 32L11 31ZM0 0L0 7L7 7L7 0ZM1 1L1 6L6 6L6 1ZM2 2L2 5L5 5L5 2ZM26 0L26 7L33 7L33 0ZM27 1L27 6L32 6L32 1ZM28 2L28 5L31 5L31 2ZM0 26L0 33L7 33L7 26ZM1 27L1 32L6 32L6 27ZM2 28L2 31L5 31L5 28Z" fill="#000000"/></g></g></svg>
