<?xml version="1.0" encoding="UTF-8"?>
<svg xmlns="http://www.w3.org/2000/svg" version="1.1" width="100" height="100" viewBox="0 0 100 100"><rect x="0" y="0" width="100" height="100" fill="#ffffff"/><g transform="scale(3.03)"><g transform="translate(0,0)"><path fill-rule="evenodd" d="M8 0L8 1L9 1L9 2L8 2L8 5L9 5L9 4L11 4L11 5L10 5L10 10L9 10L9 11L8 11L8 10L3 10L3 9L4 9L4 8L0 8L0 11L1 11L1 12L0 12L0 16L1 16L1 17L0 17L0 18L2 18L2 20L3 20L3 21L5 21L5 23L4 23L4 22L2 22L2 21L1 21L1 19L0 19L0 22L2 22L2 23L1 23L1 24L0 24L0 25L1 25L1 24L2 24L2 23L3 23L3 24L4 24L4 25L5 25L5 24L6 24L6 25L7 25L7 24L6 24L6 23L8 23L8 24L9 24L9 25L8 25L8 26L9 26L9 27L11 27L11 26L12 26L12 28L11 28L11 29L12 29L12 30L10 30L10 28L9 28L9 29L8 29L8 33L9 33L9 31L10 31L10 32L11 32L11 33L14 33L14 32L13 32L13 30L14 30L14 29L12 29L12 28L14 28L14 27L15 27L15 28L17 28L17 27L15 27L15 26L18 26L18 28L19 28L19 29L20 29L20 31L21 31L21 29L22 29L22 32L21 32L21 33L22 33L22 32L23 32L23 33L24 33L24 32L26 32L26 33L28 33L28 32L29 32L29 31L31 31L31 30L29 30L29 31L28 31L28 32L27 32L27 30L26 30L26 31L23 31L23 29L32 29L32 30L33 30L33 29L32 29L32 28L33 28L33 27L30 27L30 26L31 26L31 25L30 25L30 26L29 26L29 24L30 24L30 23L31 23L31 24L32 24L32 25L33 25L33 24L32 24L32 23L33 23L33 21L31 21L31 20L30 20L30 18L31 18L31 19L32 19L32 20L33 20L33 19L32 19L32 18L33 18L33 16L31 16L31 14L32 14L32 13L30 13L30 12L27 12L27 14L25 14L25 13L26 13L26 12L25 12L25 13L24 13L24 14L25 14L25 17L24 17L24 16L23 16L23 15L22 15L22 13L23 13L23 12L24 12L24 9L23 9L23 8L24 8L24 7L25 7L25 4L24 4L24 7L23 7L23 5L22 5L22 4L23 4L23 3L24 3L24 2L25 2L25 1L24 1L24 0L23 0L23 3L22 3L22 4L20 4L20 3L21 3L21 2L18 2L18 3L17 3L17 5L18 5L18 7L17 7L17 6L16 6L16 7L15 7L15 5L16 5L16 4L15 4L15 5L14 5L14 7L15 7L15 8L16 8L16 7L17 7L17 9L16 9L16 10L17 10L17 11L18 11L18 12L17 12L17 13L15 13L15 14L13 14L13 13L14 13L14 12L15 12L15 9L14 9L14 10L13 10L13 6L12 6L12 5L13 5L13 4L14 4L14 3L16 3L16 2L17 2L17 1L16 1L16 2L15 2L15 0L14 0L14 2L13 2L13 0L12 0L12 1L11 1L11 0L10 0L10 1L9 1L9 0ZM19 0L19 1L22 1L22 0ZM11 2L11 4L12 4L12 3L13 3L13 2ZM18 3L18 4L19 4L19 3ZM21 5L21 7L20 7L20 6L19 6L19 7L18 7L18 8L20 8L20 9L21 9L21 10L23 10L23 9L21 9L21 8L23 8L23 7L22 7L22 5ZM8 6L8 7L9 7L9 6ZM11 6L11 8L12 8L12 6ZM6 8L6 9L7 9L7 8ZM8 8L8 9L9 9L9 8ZM25 8L25 9L26 9L26 11L27 11L27 9L26 9L26 8ZM28 8L28 9L30 9L30 11L31 11L31 12L32 12L32 11L33 11L33 8L32 8L32 9L31 9L31 8ZM1 9L1 11L2 11L2 12L1 12L1 13L4 13L4 14L7 14L7 15L5 15L5 18L7 18L7 19L6 19L6 20L5 20L5 21L6 21L6 22L7 22L7 21L6 21L6 20L7 20L7 19L8 19L8 20L10 20L10 21L11 21L11 22L10 22L10 23L9 23L9 24L10 24L10 25L9 25L9 26L10 26L10 25L11 25L11 23L14 23L14 22L15 22L15 24L12 24L12 26L13 26L13 27L14 27L14 26L15 26L15 24L18 24L18 25L20 25L20 27L21 27L21 25L22 25L22 27L23 27L23 24L24 24L24 23L21 23L21 22L19 22L19 23L18 23L18 22L16 22L16 20L17 20L17 19L21 19L21 20L22 20L22 22L23 22L23 21L24 21L24 22L25 22L25 24L29 24L29 23L30 23L30 22L31 22L31 21L30 21L30 20L28 20L28 18L27 18L27 20L26 20L26 18L23 18L23 17L21 17L21 18L20 18L20 16L21 16L21 15L19 15L19 17L18 17L18 14L19 14L19 13L20 13L20 14L21 14L21 13L22 13L22 11L21 11L21 13L20 13L20 12L18 12L18 14L15 14L15 15L13 15L13 14L12 14L12 16L11 16L11 15L9 15L9 12L8 12L8 13L5 13L5 11L2 11L2 9ZM11 9L11 10L12 10L12 9ZM17 9L17 10L19 10L19 11L20 11L20 10L19 10L19 9ZM6 11L6 12L7 12L7 11ZM11 11L11 13L10 13L10 14L11 14L11 13L12 13L12 12L13 12L13 11ZM28 13L28 16L27 16L27 17L28 17L28 16L30 16L30 14L29 14L29 13ZM1 14L1 15L2 15L2 18L3 18L3 17L4 17L4 15L3 15L3 14ZM7 15L7 16L6 16L6 17L7 17L7 16L8 16L8 17L9 17L9 15ZM15 15L15 16L14 16L14 17L15 17L15 18L13 18L13 21L15 21L15 19L17 19L17 18L16 18L16 15ZM10 16L10 17L11 17L11 16ZM12 16L12 17L13 17L13 16ZM31 17L31 18L32 18L32 17ZM8 18L8 19L9 19L9 18ZM10 18L10 19L11 19L11 20L12 20L12 19L11 19L11 18ZM23 19L23 20L24 20L24 19ZM26 21L26 22L27 22L27 23L28 23L28 22L27 22L27 21ZM29 21L29 22L30 22L30 21ZM19 23L19 24L21 24L21 23ZM13 25L13 26L14 26L14 25ZM25 25L25 28L28 28L28 25ZM26 26L26 27L27 27L27 26ZM15 29L15 31L16 31L16 33L20 33L20 32L19 32L19 31L16 31L16 29ZM17 29L17 30L18 30L18 29ZM11 31L11 32L12 32L12 31ZM32 31L32 32L33 32L33 31ZM30 32L30 33L31 33L31 32ZM0 0L0 7L7 7L7 0ZM1 1L1 6L6 6L6 1ZM2 2L2 5L5 5L5 2ZM26 0L26 7L33 7L33 0ZM27 1L27 6L32 6L32 1ZM28 2L28 5L31 5L31 2ZM0 26L0 33L7 33L7 26ZM1 27L1 32L6 32L6 27ZM2 28L2 31L5 31L5 28Z" fill="#000000"/></g></g></svg>
