<?xml version="1.0" encoding="UTF-8"?>
<svg xmlns="http://www.w3.org/2000/svg" version="1.1" width="100" height="100" viewBox="0 0 100 100"><rect x="0" y="0" width="100" height="100" fill="#ffffff"/><g transform="scale(3.03)"><g transform="translate(0,0)"><path fill-rule="evenodd" d="M10 0L10 1L8 1L8 3L9 3L9 4L8 4L8 8L6 8L6 9L8 9L8 8L9 8L9 5L10 5L10 8L11 8L11 11L9 11L9 10L10 10L10 9L9 9L9 10L6 10L6 11L7 11L7 12L4 12L4 11L5 11L5 9L4 9L4 8L3 8L3 9L4 9L4 10L1 10L1 9L2 9L2 8L0 8L0 12L1 12L1 13L2 13L2 14L3 14L3 15L1 15L1 14L0 14L0 17L2 17L2 16L3 16L3 17L4 17L4 16L3 16L3 15L4 15L4 13L7 13L7 12L10 12L10 13L8 13L8 14L5 14L5 16L6 16L6 17L9 17L9 15L10 15L10 13L11 13L11 16L12 16L12 18L11 18L11 17L10 17L10 19L9 19L9 18L6 18L6 19L7 19L7 20L5 20L5 18L3 18L3 19L2 19L2 18L1 18L1 19L2 19L2 20L1 20L1 21L2 21L2 20L3 20L3 19L4 19L4 21L5 21L5 23L4 23L4 22L3 22L3 23L4 23L4 24L2 24L2 22L0 22L0 23L1 23L1 24L0 24L0 25L1 25L1 24L2 24L2 25L4 25L4 24L5 24L5 25L8 25L8 27L9 27L9 26L10 26L10 27L11 27L11 26L12 26L12 28L11 28L11 29L12 29L12 28L13 28L13 29L15 29L15 28L16 28L16 29L17 29L17 28L18 28L18 27L19 27L19 28L20 28L20 30L21 30L21 29L23 29L23 27L22 27L22 26L24 26L24 29L26 29L26 30L27 30L27 32L26 32L26 31L23 31L23 30L22 30L22 31L21 31L21 32L20 32L20 31L17 31L17 30L16 30L16 32L18 32L18 33L19 33L19 32L20 32L20 33L22 33L22 32L24 32L24 33L28 33L28 31L31 31L31 30L29 30L29 24L30 24L30 22L31 22L31 21L32 21L32 23L31 23L31 24L33 24L33 21L32 21L32 20L31 20L31 21L30 21L30 18L31 18L31 19L33 19L33 18L31 18L31 17L29 17L29 16L30 16L30 14L31 14L31 16L32 16L32 17L33 17L33 16L32 16L32 14L33 14L33 9L32 9L32 8L30 8L30 9L29 9L29 8L26 8L26 9L25 9L25 8L24 8L24 7L25 7L25 5L24 5L24 4L25 4L25 1L24 1L24 0L22 0L22 1L20 1L20 0L17 0L17 1L16 1L16 2L14 2L14 3L12 3L12 7L11 7L11 4L10 4L10 3L9 3L9 2L11 2L11 0ZM14 0L14 1L15 1L15 0ZM17 1L17 2L16 2L16 3L14 3L14 4L13 4L13 7L12 7L12 8L13 8L13 9L14 9L14 10L15 10L15 11L14 11L14 12L12 12L12 16L14 16L14 17L15 17L15 20L14 20L14 18L13 18L13 20L12 20L12 19L11 19L11 21L12 21L12 22L11 22L11 23L10 23L10 21L9 21L9 22L8 22L8 20L7 20L7 21L6 21L6 22L8 22L8 23L10 23L10 24L9 24L9 25L10 25L10 26L11 26L11 25L12 25L12 24L13 24L13 27L17 27L17 25L16 25L16 24L18 24L18 23L19 23L19 25L21 25L21 26L22 26L22 25L21 25L21 24L20 24L20 23L21 23L21 22L20 22L20 21L21 21L21 20L20 20L20 19L21 19L21 17L19 17L19 16L21 16L21 15L20 15L20 14L18 14L18 15L19 15L19 16L17 16L17 17L16 17L16 16L15 16L15 15L17 15L17 14L16 14L16 13L17 13L17 12L18 12L18 11L19 11L19 10L20 10L20 9L21 9L21 10L23 10L23 11L22 11L22 13L21 13L21 11L20 11L20 12L19 12L19 13L21 13L21 14L22 14L22 15L23 15L23 14L24 14L24 13L25 13L25 17L26 17L26 18L23 18L23 19L24 19L24 20L26 20L26 21L27 21L27 22L26 22L26 23L25 23L25 22L24 22L24 21L23 21L23 20L22 20L22 22L23 22L23 24L24 24L24 23L25 23L25 24L26 24L26 23L27 23L27 22L28 22L28 23L29 23L29 22L30 22L30 21L29 21L29 17L28 17L28 16L29 16L29 14L28 14L28 13L29 13L29 12L30 12L30 13L32 13L32 12L31 12L31 11L32 11L32 9L30 9L30 11L29 11L29 9L27 9L27 11L29 11L29 12L27 12L27 14L28 14L28 16L27 16L27 17L26 17L26 13L25 13L25 12L26 12L26 11L24 11L24 9L21 9L21 7L22 7L22 6L23 6L23 7L24 7L24 5L23 5L23 4L22 4L22 3L24 3L24 2L21 2L21 3L19 3L19 4L18 4L18 3L17 3L17 2L18 2L18 1ZM19 1L19 2L20 2L20 1ZM21 4L21 6L20 6L20 5L19 5L19 6L18 6L18 5L15 5L15 6L14 6L14 7L13 7L13 8L14 8L14 9L15 9L15 8L16 8L16 7L17 7L17 8L18 8L18 9L20 9L20 8L19 8L19 6L20 6L20 7L21 7L21 6L22 6L22 4ZM15 6L15 7L14 7L14 8L15 8L15 7L16 7L16 6ZM17 6L17 7L18 7L18 6ZM16 10L16 11L15 11L15 12L14 12L14 13L13 13L13 15L15 15L15 13L16 13L16 11L18 11L18 10ZM1 11L1 12L2 12L2 13L3 13L3 12L2 12L2 11ZM23 11L23 12L24 12L24 11ZM22 13L22 14L23 14L23 13ZM8 14L8 15L6 15L6 16L8 16L8 15L9 15L9 14ZM23 16L23 17L24 17L24 16ZM18 18L18 19L17 19L17 20L15 20L15 21L14 21L14 22L15 22L15 21L17 21L17 22L16 22L16 23L18 23L18 22L19 22L19 23L20 23L20 22L19 22L19 18ZM27 18L27 20L28 20L28 18ZM17 20L17 21L18 21L18 20ZM5 23L5 24L7 24L7 23ZM14 23L14 24L15 24L15 23ZM15 25L15 26L16 26L16 25ZM25 25L25 28L28 28L28 25ZM30 25L30 27L31 27L31 29L32 29L32 28L33 28L33 27L32 27L32 26L33 26L33 25L32 25L32 26L31 26L31 25ZM19 26L19 27L20 27L20 26ZM26 26L26 27L27 27L27 26ZM9 28L9 29L8 29L8 30L9 30L9 31L8 31L8 33L9 33L9 31L10 31L10 32L11 32L11 33L13 33L13 32L14 32L14 33L15 33L15 32L14 32L14 30L13 30L13 32L12 32L12 31L11 31L11 30L9 30L9 29L10 29L10 28ZM32 30L32 31L33 31L33 30ZM29 32L29 33L30 33L30 32ZM31 32L31 33L32 33L32 32ZM0 0L0 7L7 7L7 0ZM1 1L1 6L6 6L6 1ZM2 2L2 5L5 5L5 2ZM26 0L26 7L33 7L33 0ZM27 1L27 6L32 6L32 1ZM28 2L28 5L31 5L31 2ZM0 26L0 33L7 33L7 26ZM1 27L1 32L6 32L6 27ZM2 28L2 31L5 31L5 28Z" fill="#000000"/></g></g></svg>
