<?xml version="1.0" encoding="UTF-8"?>
<svg xmlns="http://www.w3.org/2000/svg" version="1.1" width="100" height="100" viewBox="0 0 100 100"><rect x="0" y="0" width="100" height="100" fill="#ffffff"/><g transform="scale(3.03)"><g transform="translate(0,0)"><path fill-rule="evenodd" d="M9 0L9 1L8 1L8 2L9 2L9 3L8 3L8 4L10 4L10 7L11 7L11 4L12 4L12 5L13 5L13 6L12 6L12 9L13 9L13 8L14 8L14 9L17 9L17 11L16 11L16 10L15 10L15 11L14 11L14 12L15 12L15 13L12 13L12 11L13 11L13 10L11 10L11 11L10 11L10 9L11 9L11 8L6 8L6 9L5 9L5 8L0 8L0 10L1 10L1 11L0 11L0 12L1 12L1 11L2 11L2 9L5 9L5 10L3 10L3 13L2 13L2 15L3 15L3 14L5 14L5 13L7 13L7 14L6 14L6 15L7 15L7 16L2 16L2 18L1 18L1 13L0 13L0 19L1 19L1 20L0 20L0 25L1 25L1 22L2 22L2 23L3 23L3 24L2 24L2 25L7 25L7 24L8 24L8 27L9 27L9 25L11 25L11 23L10 23L10 22L11 22L11 21L12 21L12 22L13 22L13 23L12 23L12 25L13 25L13 24L14 24L14 25L15 25L15 24L16 24L16 25L19 25L19 26L15 26L15 27L14 27L14 28L15 28L15 29L12 29L12 27L13 27L13 26L10 26L10 27L11 27L11 28L10 28L10 29L9 29L9 28L8 28L8 33L10 33L10 32L11 32L11 31L10 31L10 29L12 29L12 30L13 30L13 31L12 31L12 33L13 33L13 32L14 32L14 33L19 33L19 32L20 32L20 33L21 33L21 32L22 32L22 33L27 33L27 32L28 32L28 33L29 33L29 32L31 32L31 33L32 33L32 32L31 32L31 30L33 30L33 27L32 27L32 26L33 26L33 24L32 24L32 26L30 26L30 25L29 25L29 24L31 24L31 23L32 23L32 22L33 22L33 21L32 21L32 20L31 20L31 19L32 19L32 18L33 18L33 17L32 17L32 16L31 16L31 15L32 15L32 14L33 14L33 13L31 13L31 15L30 15L30 16L31 16L31 19L30 19L30 17L29 17L29 16L28 16L28 15L29 15L29 14L28 14L28 15L27 15L27 13L30 13L30 12L31 12L31 11L32 11L32 10L33 10L33 9L32 9L32 8L31 8L31 9L30 9L30 8L29 8L29 9L30 9L30 10L29 10L29 11L28 11L28 10L27 10L27 9L28 9L28 8L27 8L27 9L26 9L26 8L25 8L25 6L24 6L24 9L23 9L23 10L22 10L22 11L20 11L20 13L19 13L19 12L17 12L17 11L18 11L18 10L21 10L21 9L20 9L20 8L14 8L14 7L15 7L15 6L16 6L16 7L17 7L17 6L18 6L18 7L19 7L19 5L20 5L20 7L21 7L21 8L22 8L22 7L23 7L23 6L22 6L22 5L21 5L21 4L20 4L20 3L22 3L22 4L23 4L23 5L24 5L24 4L23 4L23 3L25 3L25 2L22 2L22 0L15 0L15 1L17 1L17 2L16 2L16 3L17 3L17 4L18 4L18 3L19 3L19 5L17 5L17 6L16 6L16 4L12 4L12 2L13 2L13 1L11 1L11 2L10 2L10 0ZM23 0L23 1L24 1L24 0ZM18 1L18 2L17 2L17 3L18 3L18 2L20 2L20 1ZM14 2L14 3L15 3L15 2ZM10 3L10 4L11 4L11 3ZM8 5L8 7L9 7L9 5ZM13 6L13 7L14 7L14 6ZM21 6L21 7L22 7L22 6ZM6 9L6 10L5 10L5 12L4 12L4 13L5 13L5 12L7 12L7 13L9 13L9 12L7 12L7 11L8 11L8 9ZM24 9L24 10L23 10L23 11L22 11L22 12L21 12L21 15L20 15L20 14L19 14L19 13L15 13L15 14L16 14L16 15L17 15L17 17L14 17L14 16L15 16L15 15L14 15L14 16L13 16L13 17L12 17L12 15L13 15L13 14L12 14L12 13L11 13L11 12L10 12L10 13L11 13L11 14L9 14L9 15L8 15L8 16L7 16L7 17L6 17L6 18L5 18L5 17L3 17L3 18L2 18L2 19L5 19L5 20L4 20L4 22L3 22L3 23L5 23L5 24L7 24L7 23L5 23L5 22L8 22L8 21L9 21L9 22L10 22L10 19L9 19L9 18L13 18L13 19L12 19L12 21L15 21L15 22L16 22L16 24L19 24L19 25L20 25L20 24L21 24L21 27L22 27L22 26L24 26L24 25L23 25L23 24L25 24L25 23L26 23L26 24L27 24L27 23L29 23L29 21L30 21L30 23L31 23L31 20L30 20L30 19L29 19L29 21L27 21L27 19L28 19L28 18L29 18L29 17L27 17L27 16L26 16L26 17L24 17L24 16L25 16L25 15L26 15L26 13L27 13L27 10L26 10L26 9ZM6 10L6 11L7 11L7 10ZM24 10L24 11L23 11L23 12L22 12L22 13L23 13L23 14L22 14L22 15L21 15L21 16L22 16L22 17L18 17L18 19L19 19L19 18L20 18L20 20L22 20L22 21L19 21L19 20L17 20L17 18L15 18L15 19L14 19L14 20L15 20L15 19L16 19L16 20L17 20L17 21L19 21L19 22L20 22L20 23L19 23L19 24L20 24L20 23L21 23L21 24L23 24L23 22L24 22L24 21L26 21L26 23L27 23L27 21L26 21L26 20L25 20L25 19L24 19L24 21L23 21L23 20L22 20L22 19L21 19L21 18L24 18L24 17L23 17L23 14L24 14L24 15L25 15L25 14L24 14L24 13L23 13L23 12L25 12L25 13L26 13L26 11L25 11L25 10ZM30 10L30 11L29 11L29 12L30 12L30 11L31 11L31 10ZM10 15L10 16L9 16L9 17L10 17L10 16L11 16L11 15ZM19 15L19 16L20 16L20 15ZM26 17L26 19L27 19L27 17ZM6 18L6 19L7 19L7 18ZM5 20L5 21L8 21L8 20ZM22 21L22 22L21 22L21 23L22 23L22 22L23 22L23 21ZM17 22L17 23L18 23L18 22ZM14 23L14 24L15 24L15 23ZM25 25L25 28L28 28L28 25ZM19 26L19 27L17 27L17 28L16 28L16 29L17 29L17 28L20 28L20 30L19 30L19 29L18 29L18 30L16 30L16 32L18 32L18 30L19 30L19 31L20 31L20 32L21 32L21 31L20 31L20 30L22 30L22 32L25 32L25 31L26 31L26 32L27 32L27 31L29 31L29 30L30 30L30 29L32 29L32 27L31 27L31 28L29 28L29 30L27 30L27 29L26 29L26 30L24 30L24 28L23 28L23 29L22 29L22 28L20 28L20 26ZM26 26L26 27L27 27L27 26ZM26 30L26 31L27 31L27 30ZM9 31L9 32L10 32L10 31ZM14 31L14 32L15 32L15 31ZM0 0L0 7L7 7L7 0ZM1 1L1 6L6 6L6 1ZM2 2L2 5L5 5L5 2ZM26 0L26 7L33 7L33 0ZM27 1L27 6L32 6L32 1ZM28 2L28 5L31 5L31 2ZM0 26L0 33L7 33L7 26ZM1 27L1 32L6 32L6 27ZM2 28L2 31L5 31L5 28Z" fill="#000000"/></g></g></svg>
