<?xml version="1.0" encoding="UTF-8"?>
<svg xmlns="http://www.w3.org/2000/svg" version="1.1" width="100" height="100" viewBox="0 0 100 100"><rect x="0" y="0" width="100" height="100" fill="#ffffff"/><g transform="scale(3.03)"><g transform="translate(0,0)"><path fill-rule="evenodd" d="M9 0L9 1L8 1L8 2L9 2L9 3L8 3L8 4L10 4L10 7L11 7L11 4L12 4L12 5L13 5L13 6L12 6L12 9L13 9L13 8L14 8L14 9L17 9L17 10L15 10L15 11L14 11L14 12L15 12L15 13L12 13L12 11L13 11L13 10L11 10L11 11L10 11L10 9L11 9L11 8L6 8L6 9L8 9L8 10L9 10L9 11L8 11L8 12L6 12L6 11L7 11L7 10L6 10L6 11L5 11L5 12L4 12L4 14L5 14L5 15L7 15L7 14L6 14L6 13L8 13L8 14L9 14L9 15L10 15L10 14L11 14L11 13L12 13L12 14L13 14L13 15L12 15L12 17L13 17L13 16L14 16L14 17L17 17L17 15L16 15L16 14L15 14L15 13L19 13L19 14L20 14L20 15L19 15L19 16L20 16L20 15L21 15L21 16L22 16L22 17L18 17L18 19L19 19L19 18L20 18L20 20L22 20L22 21L19 21L19 20L17 20L17 18L15 18L15 19L14 19L14 20L15 20L15 19L16 19L16 20L17 20L17 21L19 21L19 22L20 22L20 23L19 23L19 24L17 24L17 23L18 23L18 22L15 22L15 21L12 21L12 19L13 19L13 18L11 18L11 16L8 16L8 17L9 17L9 18L6 18L6 17L7 17L7 16L6 16L6 17L5 17L5 16L3 16L3 17L2 17L2 16L0 16L0 17L2 17L2 20L0 20L0 25L1 25L1 21L3 21L3 24L5 24L5 25L8 25L8 27L10 27L10 28L8 28L8 33L9 33L9 29L10 29L10 30L11 30L11 29L12 29L12 30L13 30L13 31L12 31L12 33L13 33L13 32L14 32L14 33L19 33L19 32L20 32L20 33L21 33L21 32L22 32L22 33L27 33L27 32L28 32L28 33L29 33L29 32L31 32L31 33L32 33L32 32L31 32L31 30L33 30L33 27L32 27L32 26L33 26L33 24L32 24L32 26L30 26L30 25L29 25L29 24L31 24L31 23L32 23L32 22L33 22L33 21L32 21L32 20L31 20L31 19L32 19L32 18L33 18L33 17L32 17L32 16L31 16L31 15L32 15L32 14L33 14L33 13L31 13L31 15L30 15L30 16L31 16L31 19L30 19L30 17L29 17L29 16L28 16L28 15L29 15L29 14L28 14L28 15L27 15L27 13L30 13L30 12L31 12L31 11L32 11L32 10L33 10L33 9L32 9L32 8L31 8L31 9L30 9L30 8L29 8L29 9L30 9L30 10L29 10L29 11L28 11L28 10L27 10L27 9L28 9L28 8L27 8L27 9L26 9L26 8L25 8L25 6L24 6L24 9L23 9L23 10L22 10L22 11L20 11L20 13L19 13L19 12L16 12L16 11L18 11L18 10L21 10L21 9L20 9L20 8L17 8L17 6L18 6L18 7L19 7L19 5L20 5L20 7L21 7L21 8L22 8L22 7L23 7L23 6L22 6L22 5L21 5L21 4L20 4L20 3L22 3L22 4L23 4L23 5L24 5L24 4L23 4L23 3L25 3L25 2L22 2L22 0L15 0L15 1L17 1L17 2L16 2L16 3L17 3L17 4L18 4L18 3L19 3L19 5L16 5L16 4L12 4L12 2L13 2L13 1L11 1L11 2L10 2L10 0ZM23 0L23 1L24 1L24 0ZM18 1L18 2L17 2L17 3L18 3L18 2L20 2L20 1ZM14 2L14 3L15 3L15 2ZM10 3L10 4L11 4L11 3ZM8 5L8 7L9 7L9 5ZM13 6L13 7L14 7L14 8L15 8L15 7L16 7L16 6L15 6L15 7L14 7L14 6ZM21 6L21 7L22 7L22 6ZM0 8L0 10L1 10L1 11L2 11L2 9L3 9L3 10L5 10L5 8ZM24 9L24 10L23 10L23 11L22 11L22 12L21 12L21 15L22 15L22 14L23 14L23 17L24 17L24 18L21 18L21 19L22 19L22 20L23 20L23 21L22 21L22 22L21 22L21 23L20 23L20 24L19 24L19 25L14 25L14 24L16 24L16 23L14 23L14 24L13 24L13 25L12 25L12 23L13 23L13 22L12 22L12 21L11 21L11 20L10 20L10 19L11 19L11 18L9 18L9 19L6 19L6 18L4 18L4 17L3 17L3 18L4 18L4 20L3 20L3 21L4 21L4 20L5 20L5 19L6 19L6 20L8 20L8 22L7 22L7 21L6 21L6 22L7 22L7 23L5 23L5 22L4 22L4 23L5 23L5 24L7 24L7 23L8 23L8 24L10 24L10 25L9 25L9 26L10 26L10 25L11 25L11 26L13 26L13 27L12 27L12 29L15 29L15 30L17 30L17 31L16 31L16 32L19 32L19 31L20 31L20 32L21 32L21 31L20 31L20 30L22 30L22 32L25 32L25 31L26 31L26 32L27 32L27 31L29 31L29 30L30 30L30 29L32 29L32 27L31 27L31 28L29 28L29 30L27 30L27 29L26 29L26 30L24 30L24 28L23 28L23 29L22 29L22 28L20 28L20 26L19 26L19 25L20 25L20 24L21 24L21 27L22 27L22 26L24 26L24 25L23 25L23 24L25 24L25 23L26 23L26 24L27 24L27 23L29 23L29 21L30 21L30 23L31 23L31 20L30 20L30 19L29 19L29 21L27 21L27 19L28 19L28 18L29 18L29 17L27 17L27 16L26 16L26 17L24 17L24 16L25 16L25 15L26 15L26 13L27 13L27 10L26 10L26 9ZM24 10L24 11L23 11L23 12L22 12L22 13L23 13L23 14L24 14L24 15L25 15L25 14L24 14L24 13L23 13L23 12L25 12L25 13L26 13L26 11L25 11L25 10ZM30 10L30 11L29 11L29 12L30 12L30 11L31 11L31 10ZM0 12L0 14L2 14L2 15L3 15L3 13L1 13L1 12ZM10 12L10 13L9 13L9 14L10 14L10 13L11 13L11 12ZM14 15L14 16L15 16L15 15ZM26 17L26 19L27 19L27 17ZM24 19L24 21L23 21L23 22L22 22L22 23L21 23L21 24L23 24L23 22L24 22L24 21L26 21L26 23L27 23L27 21L26 21L26 20L25 20L25 19ZM10 21L10 22L11 22L11 21ZM8 22L8 23L9 23L9 22ZM10 23L10 24L11 24L11 23ZM25 25L25 28L28 28L28 25ZM15 26L15 27L14 27L14 28L16 28L16 29L19 29L19 30L20 30L20 28L16 28L16 27L19 27L19 26ZM26 26L26 27L27 27L27 26ZM10 28L10 29L11 29L11 28ZM26 30L26 31L27 31L27 30ZM10 31L10 32L11 32L11 31ZM14 31L14 32L15 32L15 31ZM0 0L0 7L7 7L7 0ZM1 1L1 6L6 6L6 1ZM2 2L2 5L5 5L5 2ZM26 0L26 7L33 7L33 0ZM27 1L27 6L32 6L32 1ZM28 2L28 5L31 5L31 2ZM0 26L0 33L7 33L7 26ZM1 27L1 32L6 32L6 27ZM2 28L2 31L5 31L5 28Z" fill="#000000"/></g></g></svg>
