<?xml version="1.0" encoding="UTF-8"?>
<svg xmlns="http://www.w3.org/2000/svg" version="1.1" width="100" height="100" viewBox="0 0 100 100"><rect x="0" y="0" width="100" height="100" fill="#ffffff"/><g transform="scale(3.03)"><g transform="translate(0,0)"><path fill-rule="evenodd" d="M8 0L8 1L10 1L10 0ZM15 0L15 1L14 1L14 2L11 2L11 4L10 4L10 3L9 3L9 2L8 2L8 5L9 5L9 6L8 6L8 7L9 7L9 8L8 8L8 10L10 10L10 9L9 9L9 8L10 8L10 7L11 7L11 8L12 8L12 7L13 7L13 9L15 9L15 5L14 5L14 4L13 4L13 5L12 5L12 3L16 3L16 1L18 1L18 2L19 2L19 1L22 1L22 0ZM23 0L23 3L22 3L22 4L21 4L21 5L20 5L20 3L21 3L21 2L20 2L20 3L19 3L19 4L18 4L18 3L17 3L17 5L16 5L16 8L17 8L17 10L18 10L18 12L16 12L16 11L15 11L15 10L14 10L14 11L11 11L11 13L10 13L10 12L6 12L6 11L7 11L7 10L6 10L6 9L7 9L7 8L6 8L6 9L5 9L5 10L6 10L6 11L4 11L4 10L3 10L3 9L4 9L4 8L0 8L0 10L3 10L3 13L1 13L1 14L3 14L3 15L4 15L4 16L2 16L2 15L0 15L0 16L2 16L2 17L0 17L0 18L1 18L1 19L3 19L3 20L1 20L1 21L0 21L0 22L1 22L1 21L2 21L2 23L1 23L1 24L0 24L0 25L1 25L1 24L2 24L2 23L3 23L3 20L4 20L4 24L3 24L3 25L8 25L8 26L10 26L10 25L11 25L11 27L9 27L9 28L10 28L10 29L11 29L11 28L12 28L12 29L13 29L13 28L12 28L12 26L13 26L13 27L14 27L14 30L13 30L13 33L15 33L15 32L16 32L16 31L17 31L17 33L18 33L18 32L19 32L19 33L22 33L22 32L21 32L21 31L22 31L22 30L23 30L23 29L31 29L31 27L30 27L30 26L31 26L31 25L30 25L30 26L29 26L29 24L30 24L30 23L31 23L31 24L32 24L32 25L33 25L33 24L32 24L32 23L33 23L33 21L31 21L31 20L30 20L30 18L31 18L31 19L32 19L32 20L33 20L33 19L32 19L32 18L33 18L33 16L31 16L31 14L32 14L32 13L30 13L30 12L27 12L27 14L25 14L25 13L26 13L26 12L25 12L25 13L24 13L24 14L25 14L25 17L24 17L24 16L23 16L23 15L22 15L22 13L23 13L23 12L24 12L24 9L23 9L23 8L24 8L24 7L25 7L25 4L24 4L24 7L23 7L23 5L22 5L22 4L23 4L23 3L24 3L24 2L25 2L25 1L24 1L24 0ZM10 5L10 6L9 6L9 7L10 7L10 6L11 6L11 7L12 7L12 5ZM13 5L13 7L14 7L14 5ZM18 5L18 6L17 6L17 7L18 7L18 6L19 6L19 8L18 8L18 9L21 9L21 10L23 10L23 9L21 9L21 8L23 8L23 7L22 7L22 5L21 5L21 8L20 8L20 6L19 6L19 5ZM25 8L25 9L26 9L26 11L27 11L27 9L26 9L26 8ZM28 8L28 9L30 9L30 11L31 11L31 12L32 12L32 11L33 11L33 8L32 8L32 9L31 9L31 8ZM19 10L19 11L20 11L20 10ZM0 11L0 12L2 12L2 11ZM21 11L21 13L20 13L20 12L19 12L19 13L20 13L20 14L21 14L21 13L22 13L22 11ZM12 12L12 14L10 14L10 13L9 13L9 14L8 14L8 13L5 13L5 16L4 16L4 20L7 20L7 19L8 19L8 21L5 21L5 23L6 23L6 24L8 24L8 23L9 23L9 22L8 22L8 21L10 21L10 22L12 22L12 21L11 21L11 20L12 20L12 19L11 19L11 18L12 18L12 17L14 17L14 18L13 18L13 20L14 20L14 21L15 21L15 22L14 22L14 23L10 23L10 24L11 24L11 25L12 25L12 24L13 24L13 26L14 26L14 27L15 27L15 29L16 29L16 28L18 28L18 27L19 27L19 28L20 28L20 27L19 27L19 26L18 26L18 27L16 27L16 26L17 26L17 25L16 25L16 26L14 26L14 24L16 24L16 22L17 22L17 24L18 24L18 22L19 22L19 25L20 25L20 26L21 26L21 25L22 25L22 27L23 27L23 24L24 24L24 23L21 23L21 22L19 22L19 20L20 20L20 21L21 21L21 20L22 20L22 22L23 22L23 21L24 21L24 22L25 22L25 24L29 24L29 23L30 23L30 22L31 22L31 21L30 21L30 20L28 20L28 18L27 18L27 20L26 20L26 18L23 18L23 17L21 17L21 19L20 19L20 16L21 16L21 15L20 15L20 16L19 16L19 15L18 15L18 14L17 14L17 13L16 13L16 14L15 14L15 12ZM3 13L3 14L4 14L4 13ZM13 13L13 14L12 14L12 16L11 16L11 17L9 17L9 16L10 16L10 15L9 15L9 16L5 16L5 17L7 17L7 18L5 18L5 19L7 19L7 18L8 18L8 17L9 17L9 19L10 19L10 20L11 20L11 19L10 19L10 18L11 18L11 17L12 17L12 16L14 16L14 15L15 15L15 14L14 14L14 13ZM28 13L28 16L27 16L27 17L28 17L28 16L30 16L30 14L29 14L29 13ZM6 14L6 15L7 15L7 14ZM13 14L13 15L14 15L14 14ZM16 16L16 17L15 17L15 21L18 21L18 20L19 20L19 18L18 18L18 19L17 19L17 17L19 17L19 16ZM2 17L2 18L3 18L3 17ZM31 17L31 18L32 18L32 17ZM23 19L23 20L24 20L24 19ZM26 21L26 22L27 22L27 23L28 23L28 22L27 22L27 21ZM29 21L29 22L30 22L30 21ZM6 22L6 23L8 23L8 22ZM20 24L20 25L21 25L21 24ZM25 25L25 28L28 28L28 25ZM26 26L26 27L27 27L27 26ZM32 27L32 28L33 28L33 27ZM8 29L8 33L9 33L9 32L10 32L10 33L11 33L11 32L12 32L12 31L11 31L11 30L9 30L9 29ZM17 29L17 31L20 31L20 30L21 30L21 29ZM32 29L32 30L33 30L33 29ZM26 30L26 31L23 31L23 33L24 33L24 32L26 32L26 33L28 33L28 32L29 32L29 31L31 31L31 30L29 30L29 31L28 31L28 32L27 32L27 30ZM10 31L10 32L11 32L11 31ZM32 31L32 32L33 32L33 31ZM30 32L30 33L31 33L31 32ZM0 0L0 7L7 7L7 0ZM1 1L1 6L6 6L6 1ZM2 2L2 5L5 5L5 2ZM26 0L26 7L33 7L33 0ZM27 1L27 6L32 6L32 1ZM28 2L28 5L31 5L31 2ZM0 26L0 33L7 33L7 26ZM1 27L1 32L6 32L6 27ZM2 28L2 31L5 31L5 28Z" fill="#000000"/></g></g></svg>
