<?xml version="1.0" encoding="UTF-8"?>
<svg xmlns="http://www.w3.org/2000/svg" version="1.1" width="100" height="100" viewBox="0 0 100 100"><rect x="0" y="0" width="100" height="100" fill="#ffffff"/><g transform="scale(3.448)"><g transform="translate(0,0)"><path fill-rule="evenodd" d="M9 0L9 1L8 1L8 3L9 3L9 4L8 4L8 8L6 8L6 9L8 9L8 8L10 8L10 10L9 10L9 11L7 11L7 10L5 10L5 9L4 9L4 8L3 8L3 9L2 9L2 8L0 8L0 11L1 11L1 13L0 13L0 15L1 15L1 16L2 16L2 17L3 17L3 16L5 16L5 17L4 17L4 18L5 18L5 19L3 19L3 18L2 18L2 19L3 19L3 20L5 20L5 21L8 21L8 23L9 23L9 25L8 25L8 26L9 26L9 27L8 27L8 29L9 29L9 27L10 27L10 28L11 28L11 29L13 29L13 28L17 28L17 29L18 29L18 26L19 26L19 25L18 25L18 24L20 24L20 28L19 28L19 29L22 29L22 26L23 26L23 28L24 28L24 29L25 29L25 28L26 28L26 26L25 26L25 25L26 25L26 24L28 24L28 25L29 25L29 23L28 23L28 22L29 22L29 21L27 21L27 20L29 20L29 17L28 17L28 15L29 15L29 14L27 14L27 13L29 13L29 12L28 12L28 10L29 10L29 9L28 9L28 8L26 8L26 9L25 9L25 8L22 8L22 9L21 9L21 8L20 8L20 9L21 9L21 10L19 10L19 12L22 12L22 13L23 13L23 14L22 14L22 15L21 15L21 16L22 16L22 15L24 15L24 16L25 16L25 17L26 17L26 15L27 15L27 17L28 17L28 18L27 18L27 20L26 20L26 22L27 22L27 23L25 23L25 20L22 20L22 18L23 18L23 19L24 19L24 18L23 18L23 17L20 17L20 15L18 15L18 12L17 12L17 11L18 11L18 10L17 10L17 8L19 8L19 6L20 6L20 7L21 7L21 4L20 4L20 5L19 5L19 3L21 3L21 1L20 1L20 0L18 0L18 2L17 2L17 3L18 3L18 7L17 7L17 6L16 6L16 5L17 5L17 4L16 4L16 3L14 3L14 4L13 4L13 2L16 2L16 0L12 0L12 1L11 1L11 0ZM9 1L9 2L11 2L11 1ZM12 1L12 2L13 2L13 1ZM19 1L19 2L18 2L18 3L19 3L19 2L20 2L20 1ZM11 3L11 4L9 4L9 5L10 5L10 6L9 6L9 7L10 7L10 8L12 8L12 9L11 9L11 11L9 11L9 12L7 12L7 11L5 11L5 10L1 10L1 11L2 11L2 12L3 12L3 13L1 13L1 14L3 14L3 15L2 15L2 16L3 16L3 15L5 15L5 13L4 13L4 11L5 11L5 12L7 12L7 13L6 13L6 14L8 14L8 15L6 15L6 16L8 16L8 17L6 17L6 18L8 18L8 19L9 19L9 21L10 21L10 20L12 20L12 21L11 21L11 24L10 24L10 25L9 25L9 26L10 26L10 27L11 27L11 26L12 26L12 28L13 28L13 27L17 27L17 26L16 26L16 25L15 25L15 24L14 24L14 25L13 25L13 26L12 26L12 25L11 25L11 24L12 24L12 21L13 21L13 20L14 20L14 19L15 19L15 22L14 22L14 23L16 23L16 21L18 21L18 22L17 22L17 24L18 24L18 22L19 22L19 23L20 23L20 21L19 21L19 20L21 20L21 19L20 19L20 17L19 17L19 16L18 16L18 17L17 17L17 18L16 18L16 16L15 16L15 15L16 15L16 14L17 14L17 12L15 12L15 11L16 11L16 8L17 8L17 7L16 7L16 6L15 6L15 4L14 4L14 6L13 6L13 5L11 5L11 4L12 4L12 3ZM10 6L10 7L11 7L11 6ZM12 6L12 7L13 7L13 6ZM14 6L14 7L15 7L15 8L16 8L16 7L15 7L15 6ZM13 8L13 9L14 9L14 8ZM24 9L24 10L23 10L23 12L24 12L24 15L26 15L26 13L27 13L27 12L26 12L26 13L25 13L25 11L24 11L24 10L25 10L25 9ZM26 9L26 10L28 10L28 9ZM13 10L13 11L11 11L11 13L10 13L10 14L9 14L9 13L8 13L8 14L9 14L9 15L10 15L10 14L11 14L11 15L12 15L12 16L11 16L11 18L12 18L12 17L13 17L13 18L15 18L15 17L13 17L13 16L14 16L14 15L15 15L15 14L14 14L14 15L12 15L12 14L11 14L11 13L14 13L14 10ZM3 13L3 14L4 14L4 13ZM19 13L19 14L20 14L20 13ZM9 16L9 17L10 17L10 16ZM18 17L18 18L17 18L17 19L16 19L16 20L18 20L18 19L19 19L19 17ZM0 18L0 19L1 19L1 18ZM9 18L9 19L10 19L10 18ZM25 18L25 19L26 19L26 18ZM6 19L6 20L7 20L7 19ZM0 20L0 21L1 21L1 20ZM21 21L21 24L24 24L24 21ZM9 22L9 23L10 23L10 22ZM22 22L22 23L23 23L23 22ZM10 25L10 26L11 26L11 25ZM23 25L23 26L24 26L24 25ZM28 26L28 27L27 27L27 29L28 29L28 27L29 27L29 26ZM0 0L0 7L7 7L7 0ZM1 1L1 6L6 6L6 1ZM2 2L2 5L5 5L5 2ZM22 0L22 7L29 7L29 0ZM23 1L23 6L28 6L28 1ZM24 2L24 5L27 5L27 2ZM0 22L0 29L7 29L7 22ZM1 23L1 28L6 28L6 23ZM2 24L2 27L5 27L5 24Z" fill="#000000"/></g></g></svg>
