<?xml version="1.0" encoding="UTF-8"?>
<svg xmlns="http://www.w3.org/2000/svg" version="1.1" width="100" height="100" viewBox="0 0 100 100"><rect x="0" y="0" width="100" height="100" fill="#ffffff"/><g transform="scale(3.03)"><g transform="translate(0,0)"><path fill-rule="evenodd" d="M9 0L9 1L8 1L8 2L9 2L9 3L8 3L8 4L10 4L10 7L11 7L11 4L12 4L12 5L13 5L13 4L14 4L14 5L15 5L15 6L14 6L14 8L13 8L13 6L12 6L12 9L16 9L16 10L14 10L14 12L13 12L13 13L12 13L12 11L13 11L13 10L11 10L11 11L10 11L10 9L11 9L11 8L6 8L6 9L8 9L8 10L5 10L5 11L7 11L7 12L6 12L6 13L5 13L5 12L4 12L4 13L5 13L5 14L3 14L3 12L1 12L1 13L0 13L0 16L1 16L1 17L0 17L0 20L1 20L1 21L0 21L0 25L1 25L1 21L2 21L2 22L3 22L3 24L2 24L2 25L3 25L3 24L4 24L4 25L7 25L7 24L5 24L5 23L7 23L7 22L8 22L8 21L9 21L9 22L10 22L10 23L11 23L11 21L12 21L12 22L13 22L13 21L14 21L14 22L15 22L15 23L14 23L14 24L13 24L13 23L12 23L12 25L14 25L14 28L12 28L12 27L13 27L13 26L11 26L11 25L10 25L10 27L9 27L9 25L8 25L8 27L9 27L9 28L8 28L8 33L9 33L9 32L10 32L10 33L11 33L11 32L10 32L10 31L11 31L11 29L12 29L12 30L13 30L13 31L15 31L15 33L16 33L16 32L17 32L17 33L18 33L18 32L19 32L19 31L18 31L18 32L17 32L17 29L18 29L18 30L20 30L20 32L22 32L22 33L23 33L23 32L24 32L24 33L25 33L25 32L24 32L24 31L27 31L27 32L28 32L28 33L29 33L29 31L30 31L30 32L31 32L31 33L32 33L32 32L31 32L31 31L32 31L32 30L31 30L31 29L32 29L32 28L31 28L31 27L32 27L32 26L33 26L33 24L32 24L32 26L31 26L31 25L30 25L30 24L31 24L31 23L32 23L32 22L33 22L33 21L32 21L32 20L31 20L31 19L32 19L32 18L33 18L33 17L32 17L32 16L31 16L31 15L32 15L32 14L33 14L33 13L31 13L31 15L30 15L30 13L29 13L29 10L28 10L28 8L27 8L27 9L26 9L26 8L24 8L24 9L23 9L23 8L22 8L22 7L23 7L23 5L24 5L24 4L23 4L23 3L25 3L25 1L24 1L24 0L23 0L23 1L24 1L24 2L22 2L22 0L17 0L17 1L18 1L18 2L19 2L19 1L20 1L20 2L21 2L21 3L22 3L22 4L18 4L18 3L17 3L17 2L16 2L16 1L15 1L15 0L14 0L14 1L15 1L15 2L14 2L14 3L13 3L13 4L12 4L12 2L13 2L13 1L11 1L11 2L10 2L10 0ZM10 3L10 4L11 4L11 3ZM14 3L14 4L15 4L15 5L16 5L16 6L15 6L15 8L16 8L16 9L17 9L17 10L19 10L19 11L16 11L16 12L15 12L15 13L13 13L13 14L12 14L12 13L11 13L11 12L10 12L10 13L9 13L9 11L8 11L8 13L6 13L6 14L8 14L8 15L6 15L6 16L7 16L7 17L6 17L6 18L7 18L7 19L6 19L6 20L5 20L5 21L4 21L4 19L5 19L5 18L4 18L4 19L3 19L3 18L2 18L2 17L1 17L1 20L2 20L2 21L3 21L3 22L5 22L5 21L6 21L6 22L7 22L7 21L8 21L8 18L9 18L9 17L8 17L8 15L9 15L9 14L10 14L10 17L11 17L11 18L13 18L13 17L12 17L12 15L13 15L13 16L14 16L14 18L16 18L16 17L17 17L17 18L18 18L18 17L22 17L22 16L20 16L20 15L21 15L21 14L23 14L23 17L24 17L24 18L21 18L21 19L24 19L24 20L23 20L23 21L24 21L24 22L23 22L23 23L22 23L22 24L21 24L21 25L22 25L22 24L23 24L23 23L24 23L24 24L27 24L27 22L25 22L25 21L27 21L27 20L28 20L28 19L26 19L26 18L25 18L25 17L28 17L28 18L29 18L29 17L30 17L30 19L29 19L29 20L30 20L30 21L28 21L28 24L30 24L30 23L29 23L29 22L30 22L30 21L31 21L31 20L30 20L30 19L31 19L31 16L30 16L30 15L29 15L29 13L28 13L28 16L26 16L26 14L25 14L25 13L27 13L27 12L28 12L28 11L27 11L27 10L25 10L25 9L24 9L24 10L23 10L23 9L22 9L22 8L21 8L21 9L22 9L22 10L23 10L23 11L24 11L24 12L25 12L25 13L24 13L24 14L23 14L23 12L20 12L20 10L19 10L19 9L20 9L20 6L21 6L21 7L22 7L22 6L21 6L21 5L16 5L16 4L17 4L17 3L16 3L16 4L15 4L15 3ZM8 5L8 7L9 7L9 5ZM16 6L16 8L17 8L17 9L18 9L18 8L19 8L19 6L18 6L18 8L17 8L17 6ZM24 6L24 7L25 7L25 6ZM0 8L0 10L1 10L1 11L2 11L2 9L3 9L3 11L4 11L4 9L5 9L5 8ZM29 8L29 9L30 9L30 8ZM31 8L31 10L33 10L33 9L32 9L32 8ZM24 10L24 11L25 11L25 12L26 12L26 11L25 11L25 10ZM30 11L30 12L31 12L31 11ZM16 12L16 13L17 13L17 15L16 15L16 14L13 14L13 15L15 15L15 17L16 17L16 16L17 16L17 17L18 17L18 16L17 16L17 15L18 15L18 14L21 14L21 13L19 13L19 12ZM1 13L1 15L2 15L2 16L3 16L3 17L5 17L5 16L3 16L3 14L2 14L2 13ZM10 13L10 14L11 14L11 13ZM24 16L24 17L25 17L25 16ZM28 16L28 17L29 17L29 16ZM19 18L19 19L16 19L16 20L20 20L20 22L19 22L19 21L18 21L18 22L17 22L17 21L15 21L15 20L14 20L14 19L12 19L12 21L13 21L13 20L14 20L14 21L15 21L15 22L17 22L17 23L16 23L16 24L14 24L14 25L15 25L15 26L18 26L18 27L16 27L16 29L15 29L15 28L14 28L14 29L13 29L13 30L14 30L14 29L15 29L15 30L16 30L16 29L17 29L17 28L18 28L18 29L19 29L19 28L18 28L18 27L21 27L21 26L18 26L18 25L20 25L20 23L21 23L21 21L22 21L22 20L20 20L20 18ZM2 19L2 20L3 20L3 19ZM6 20L6 21L7 21L7 20ZM9 20L9 21L11 21L11 20ZM24 20L24 21L25 21L25 20ZM18 22L18 24L16 24L16 25L18 25L18 24L19 24L19 22ZM23 25L23 26L24 26L24 25ZM25 25L25 28L28 28L28 25ZM29 25L29 28L30 28L30 29L31 29L31 28L30 28L30 27L31 27L31 26L30 26L30 25ZM26 26L26 27L27 27L27 26ZM23 27L23 29L22 29L22 28L20 28L20 29L22 29L22 30L23 30L23 31L22 31L22 32L23 32L23 31L24 31L24 27ZM9 28L9 31L10 31L10 28ZM25 29L25 30L28 30L28 31L29 31L29 30L28 30L28 29ZM30 30L30 31L31 31L31 30ZM13 32L13 33L14 33L14 32ZM0 0L0 7L7 7L7 0ZM1 1L1 6L6 6L6 1ZM2 2L2 5L5 5L5 2ZM26 0L26 7L33 7L33 0ZM27 1L27 6L32 6L32 1ZM28 2L28 5L31 5L31 2ZM0 26L0 33L7 33L7 26ZM1 27L1 32L6 32L6 27ZM2 28L2 31L5 31L5 28Z" fill="#000000"/></g></g></svg>
