<?xml version="1.0" encoding="UTF-8"?>
<svg xmlns="http://www.w3.org/2000/svg" version="1.1" width="100" height="100" viewBox="0 0 100 100"><rect x="0" y="0" width="100" height="100" fill="#ffffff"/><g transform="scale(3.03)"><g transform="translate(0,0)"><path fill-rule="evenodd" d="M10 0L10 2L11 2L11 0ZM12 0L12 1L13 1L13 0ZM14 0L14 1L15 1L15 2L14 2L14 3L13 3L13 2L12 2L12 4L14 4L14 5L15 5L15 6L14 6L14 8L13 8L13 9L12 9L12 7L13 7L13 5L11 5L11 6L10 6L10 4L11 4L11 3L8 3L8 4L9 4L9 5L8 5L8 7L9 7L9 8L6 8L6 9L7 9L7 10L5 10L5 8L0 8L0 9L4 9L4 10L5 10L5 11L4 11L4 12L3 12L3 13L4 13L4 12L5 12L5 14L2 14L2 13L1 13L1 15L5 15L5 16L6 16L6 17L8 17L8 14L9 14L9 15L10 15L10 16L9 16L9 17L10 17L10 18L8 18L8 19L7 19L7 18L6 18L6 19L7 19L7 20L6 20L6 21L5 21L5 20L4 20L4 19L5 19L5 17L4 17L4 19L3 19L3 18L2 18L2 17L1 17L1 16L0 16L0 18L2 18L2 21L1 21L1 19L0 19L0 25L1 25L1 22L2 22L2 21L3 21L3 22L6 22L6 23L5 23L5 24L6 24L6 25L8 25L8 27L9 27L9 25L10 25L10 24L11 24L11 25L12 25L12 26L13 26L13 27L12 27L12 29L13 29L13 28L14 28L14 29L16 29L16 30L15 30L15 31L14 31L14 32L15 32L15 33L16 33L16 32L15 32L15 31L16 31L16 30L17 30L17 31L19 31L19 30L20 30L20 32L22 32L22 33L23 33L23 32L24 32L24 33L25 33L25 32L24 32L24 31L27 31L27 32L28 32L28 33L29 33L29 31L30 31L30 32L31 32L31 33L32 33L32 32L31 32L31 31L32 31L32 30L31 30L31 29L30 29L30 28L32 28L32 26L33 26L33 24L32 24L32 26L31 26L31 25L30 25L30 24L31 24L31 23L32 23L32 22L33 22L33 21L32 21L32 20L31 20L31 19L32 19L32 18L33 18L33 17L32 17L32 16L31 16L31 15L32 15L32 14L33 14L33 13L31 13L31 15L30 15L30 13L29 13L29 10L28 10L28 8L27 8L27 9L26 9L26 8L24 8L24 9L23 9L23 8L22 8L22 7L23 7L23 5L24 5L24 4L23 4L23 3L25 3L25 1L24 1L24 0L23 0L23 1L24 1L24 2L22 2L22 0L17 0L17 1L18 1L18 2L19 2L19 1L20 1L20 2L21 2L21 3L22 3L22 4L18 4L18 3L17 3L17 2L16 2L16 1L15 1L15 0ZM8 1L8 2L9 2L9 1ZM15 2L15 3L14 3L14 4L15 4L15 5L17 5L17 7L16 7L16 6L15 6L15 7L16 7L16 9L13 9L13 10L12 10L12 9L11 9L11 8L10 8L10 9L8 9L8 11L6 11L6 12L11 12L11 13L9 13L9 14L10 14L10 15L11 15L11 14L16 14L16 15L17 15L17 16L16 16L16 17L15 17L15 15L12 15L12 17L11 17L11 16L10 16L10 17L11 17L11 18L10 18L10 19L8 19L8 20L9 20L9 21L8 21L8 23L6 23L6 24L8 24L8 25L9 25L9 23L10 23L10 22L13 22L13 23L12 23L12 25L14 25L14 26L16 26L16 25L17 25L17 27L14 27L14 28L16 28L16 29L17 29L17 30L18 30L18 29L19 29L19 27L21 27L21 26L18 26L18 25L20 25L20 23L21 23L21 21L22 21L22 20L20 20L20 18L18 18L18 17L22 17L22 16L20 16L20 15L21 15L21 14L23 14L23 17L24 17L24 18L21 18L21 19L24 19L24 20L23 20L23 21L24 21L24 22L23 22L23 23L22 23L22 24L21 24L21 25L22 25L22 24L23 24L23 23L24 23L24 24L27 24L27 22L25 22L25 21L27 21L27 20L28 20L28 19L26 19L26 18L25 18L25 17L28 17L28 18L29 18L29 17L30 17L30 19L29 19L29 20L30 20L30 21L28 21L28 24L30 24L30 23L29 23L29 22L30 22L30 21L31 21L31 20L30 20L30 19L31 19L31 16L30 16L30 15L29 15L29 13L28 13L28 16L26 16L26 14L25 14L25 13L27 13L27 12L28 12L28 11L27 11L27 10L25 10L25 9L24 9L24 10L23 10L23 9L22 9L22 8L21 8L21 9L22 9L22 10L23 10L23 11L24 11L24 12L25 12L25 13L24 13L24 14L23 14L23 12L20 12L20 10L19 10L19 9L20 9L20 6L21 6L21 7L22 7L22 6L21 6L21 5L17 5L17 4L15 4L15 3L16 3L16 2ZM9 6L9 7L10 7L10 6ZM11 6L11 7L12 7L12 6ZM18 6L18 8L17 8L17 9L16 9L16 10L14 10L14 12L13 12L13 11L12 11L12 13L17 13L17 15L18 15L18 14L21 14L21 13L19 13L19 12L16 12L16 10L17 10L17 11L19 11L19 10L17 10L17 9L18 9L18 8L19 8L19 6ZM24 6L24 7L25 7L25 6ZM29 8L29 9L30 9L30 8ZM31 8L31 10L33 10L33 9L32 9L32 8ZM10 9L10 11L11 11L11 9ZM0 10L0 11L1 11L1 10ZM24 10L24 11L25 11L25 12L26 12L26 11L25 11L25 10ZM30 11L30 12L31 12L31 11ZM6 13L6 14L8 14L8 13ZM6 15L6 16L7 16L7 15ZM13 16L13 17L12 17L12 18L13 18L13 19L12 19L12 21L14 21L14 22L15 22L15 23L14 23L14 24L15 24L15 25L16 25L16 23L18 23L18 22L15 22L15 21L19 21L19 22L20 22L20 20L19 20L19 19L18 19L18 18L17 18L17 17L18 17L18 16L17 16L17 17L16 17L16 18L14 18L14 16ZM24 16L24 17L25 17L25 16ZM28 16L28 17L29 17L29 16ZM16 18L16 20L18 20L18 19L17 19L17 18ZM13 19L13 20L14 20L14 21L15 21L15 20L14 20L14 19ZM3 20L3 21L4 21L4 20ZM24 20L24 21L25 21L25 20ZM6 21L6 22L7 22L7 21ZM9 21L9 22L10 22L10 21ZM2 24L2 25L3 25L3 24ZM17 24L17 25L18 25L18 24ZM23 25L23 26L24 26L24 25ZM25 25L25 28L28 28L28 25ZM29 25L29 28L30 28L30 27L31 27L31 26L30 26L30 25ZM10 26L10 27L11 27L11 26ZM26 26L26 27L27 27L27 26ZM23 27L23 29L22 29L22 28L20 28L20 29L22 29L22 30L23 30L23 31L22 31L22 32L23 32L23 31L24 31L24 27ZM8 28L8 33L9 33L9 32L10 32L10 31L9 31L9 28ZM10 28L10 30L11 30L11 33L12 33L12 31L13 31L13 30L11 30L11 28ZM17 28L17 29L18 29L18 28ZM25 29L25 30L28 30L28 31L29 31L29 30L28 30L28 29ZM30 30L30 31L31 31L31 30ZM17 32L17 33L18 33L18 32ZM0 0L0 7L7 7L7 0ZM1 1L1 6L6 6L6 1ZM2 2L2 5L5 5L5 2ZM26 0L26 7L33 7L33 0ZM27 1L27 6L32 6L32 1ZM28 2L28 5L31 5L31 2ZM0 26L0 33L7 33L7 26ZM1 27L1 32L6 32L6 27ZM2 28L2 31L5 31L5 28Z" fill="#000000"/></g></g></svg>
