<?xml version="1.0" encoding="UTF-8"?>
<svg xmlns="http://www.w3.org/2000/svg" version="1.1" width="100" height="100" viewBox="0 0 100 100"><rect x="0" y="0" width="100" height="100" fill="#ffffff"/><g transform="scale(3.448)"><g transform="translate(0,0)"><path fill-rule="evenodd" d="M9 0L9 1L8 1L8 3L9 3L9 4L8 4L8 8L6 8L6 9L8 9L8 8L10 8L10 10L8 10L8 12L6 12L6 11L7 11L7 10L6 10L6 11L5 11L5 9L4 9L4 8L3 8L3 10L2 10L2 11L1 11L1 10L0 10L0 12L1 12L1 13L0 13L0 14L1 14L1 15L2 15L2 16L0 16L0 17L1 17L1 18L0 18L0 19L1 19L1 18L2 18L2 21L3 21L3 20L4 20L4 21L5 21L5 19L7 19L7 20L6 20L6 21L8 21L8 23L9 23L9 25L8 25L8 26L9 26L9 25L10 25L10 26L11 26L11 27L10 27L10 28L11 28L11 29L13 29L13 28L17 28L17 29L18 29L18 26L19 26L19 25L18 25L18 24L20 24L20 28L19 28L19 29L22 29L22 26L23 26L23 28L24 28L24 29L25 29L25 28L26 28L26 26L25 26L25 25L26 25L26 24L28 24L28 25L29 25L29 23L28 23L28 22L29 22L29 21L27 21L27 20L29 20L29 17L28 17L28 15L29 15L29 14L27 14L27 13L29 13L29 12L28 12L28 10L29 10L29 9L28 9L28 8L26 8L26 9L25 9L25 8L22 8L22 9L21 9L21 8L20 8L20 9L21 9L21 10L19 10L19 12L22 12L22 13L23 13L23 14L22 14L22 15L21 15L21 16L22 16L22 15L24 15L24 16L25 16L25 17L26 17L26 15L27 15L27 17L28 17L28 18L27 18L27 20L26 20L26 22L27 22L27 23L25 23L25 20L22 20L22 18L23 18L23 19L24 19L24 18L23 18L23 17L20 17L20 15L18 15L18 12L17 12L17 11L18 11L18 10L17 10L17 8L19 8L19 6L20 6L20 7L21 7L21 4L20 4L20 5L19 5L19 3L21 3L21 1L20 1L20 0L18 0L18 2L17 2L17 3L18 3L18 7L17 7L17 6L16 6L16 5L17 5L17 4L16 4L16 3L14 3L14 4L13 4L13 2L16 2L16 0L12 0L12 1L11 1L11 0ZM9 1L9 2L11 2L11 1ZM19 1L19 2L18 2L18 3L19 3L19 2L20 2L20 1ZM11 3L11 4L9 4L9 5L10 5L10 6L9 6L9 7L10 7L10 8L12 8L12 9L11 9L11 11L9 11L9 13L6 13L6 12L4 12L4 11L2 11L2 12L3 12L3 13L1 13L1 14L2 14L2 15L3 15L3 16L2 16L2 18L3 18L3 19L5 19L5 18L7 18L7 17L6 17L6 16L8 16L8 17L9 17L9 16L12 16L12 15L14 15L14 16L13 16L13 17L12 17L12 18L11 18L11 17L10 17L10 19L9 19L9 20L8 20L8 21L9 21L9 20L10 20L10 22L11 22L11 23L10 23L10 24L12 24L12 21L13 21L13 20L14 20L14 19L15 19L15 22L14 22L14 23L16 23L16 21L18 21L18 22L17 22L17 24L18 24L18 22L19 22L19 23L20 23L20 21L19 21L19 20L21 20L21 19L20 19L20 17L19 17L19 16L18 16L18 17L17 17L17 18L16 18L16 16L15 16L15 15L16 15L16 14L17 14L17 12L15 12L15 11L16 11L16 8L17 8L17 7L16 7L16 6L15 6L15 4L14 4L14 6L13 6L13 7L12 7L12 5L11 5L11 4L12 4L12 3ZM10 6L10 7L11 7L11 6ZM14 6L14 7L15 7L15 8L16 8L16 7L15 7L15 6ZM0 8L0 9L2 9L2 8ZM13 8L13 9L14 9L14 8ZM24 9L24 10L23 10L23 12L24 12L24 15L26 15L26 13L27 13L27 12L26 12L26 13L25 13L25 11L24 11L24 10L25 10L25 9ZM26 9L26 10L28 10L28 9ZM13 10L13 11L11 11L11 13L9 13L9 15L8 15L8 14L5 14L5 13L3 13L3 14L4 14L4 15L5 15L5 16L6 16L6 15L8 15L8 16L9 16L9 15L12 15L12 14L11 14L11 13L14 13L14 10ZM19 13L19 14L20 14L20 13ZM14 14L14 15L15 15L15 14ZM3 16L3 18L4 18L4 16ZM13 17L13 18L15 18L15 17ZM18 17L18 18L17 18L17 19L16 19L16 20L18 20L18 19L19 19L19 17ZM25 18L25 19L26 19L26 18ZM10 19L10 20L11 20L11 21L12 21L12 20L11 20L11 19ZM0 20L0 21L1 21L1 20ZM21 21L21 24L24 24L24 21ZM22 22L22 23L23 23L23 22ZM14 24L14 25L13 25L13 26L12 26L12 25L11 25L11 26L12 26L12 28L13 28L13 27L17 27L17 26L16 26L16 25L15 25L15 24ZM23 25L23 26L24 26L24 25ZM28 26L28 27L27 27L27 29L28 29L28 27L29 27L29 26ZM8 27L8 29L9 29L9 27ZM0 0L0 7L7 7L7 0ZM1 1L1 6L6 6L6 1ZM2 2L2 5L5 5L5 2ZM22 0L22 7L29 7L29 0ZM23 1L23 6L28 6L28 1ZM24 2L24 5L27 5L27 2ZM0 22L0 29L7 29L7 22ZM1 23L1 28L6 28L6 23ZM2 24L2 27L5 27L5 24Z" fill="#000000"/></g></g></svg>
