<?xml version="1.0" encoding="UTF-8"?>
<svg xmlns="http://www.w3.org/2000/svg" version="1.1" width="100" height="100" viewBox="0 0 100 100"><rect x="0" y="0" width="100" height="100" fill="#ffffff"/><g transform="scale(3.448)"><g transform="translate(0,0)"><path fill-rule="evenodd" d="M9 0L9 1L11 1L11 2L9 2L9 3L8 3L8 5L9 5L9 6L8 6L8 7L9 7L9 9L8 9L8 8L5 8L5 10L4 10L4 9L3 9L3 10L2 10L2 11L3 11L3 10L4 10L4 11L5 11L5 12L6 12L6 13L8 13L8 12L6 12L6 11L8 11L8 10L9 10L9 11L10 11L10 12L9 12L9 14L6 14L6 15L9 15L9 14L13 14L13 12L12 12L12 11L10 11L10 10L14 10L14 12L15 12L15 14L14 14L14 16L12 16L12 15L11 15L11 16L8 16L8 17L7 17L7 16L5 16L5 17L4 17L4 15L5 15L5 13L4 13L4 12L1 12L1 10L0 10L0 14L1 14L1 13L2 13L2 14L4 14L4 15L3 15L3 16L2 16L2 15L0 15L0 21L1 21L1 19L2 19L2 21L3 21L3 20L4 20L4 21L5 21L5 19L7 19L7 18L8 18L8 24L9 24L9 25L10 25L10 23L11 23L11 22L12 22L12 23L13 23L13 22L12 22L12 21L10 21L10 20L13 20L13 21L15 21L15 22L14 22L14 23L16 23L16 25L15 25L15 27L17 27L17 26L16 26L16 25L17 25L17 22L16 22L16 21L18 21L18 23L20 23L20 24L19 24L19 25L20 25L20 27L18 27L18 28L17 28L17 29L18 29L18 28L20 28L20 27L21 27L21 25L23 25L23 26L22 26L22 28L23 28L23 26L24 26L24 27L26 27L26 28L24 28L24 29L27 29L27 27L28 27L28 28L29 28L29 27L28 27L28 26L29 26L29 24L28 24L28 23L27 23L27 22L26 22L26 21L29 21L29 20L26 20L26 21L25 21L25 19L22 19L22 20L19 20L19 19L21 19L21 18L20 18L20 17L22 17L22 18L23 18L23 17L22 17L22 16L24 16L24 15L22 15L22 14L23 14L23 10L22 10L22 12L21 12L21 15L20 15L20 17L19 17L19 18L18 18L18 20L16 20L16 18L17 18L17 17L18 17L18 16L15 16L15 15L16 15L16 14L17 14L17 13L16 13L16 12L17 12L17 11L18 11L18 12L19 12L19 13L18 13L18 14L20 14L20 12L19 12L19 11L18 11L18 10L21 10L21 8L20 8L20 9L18 9L18 8L17 8L17 6L16 6L16 8L15 8L15 9L14 9L14 8L13 8L13 9L11 9L11 8L10 8L10 7L11 7L11 4L12 4L12 5L13 5L13 4L14 4L14 7L15 7L15 4L14 4L14 3L12 3L12 2L15 2L15 3L16 3L16 5L17 5L17 4L18 4L18 5L20 5L20 4L21 4L21 1L20 1L20 2L19 2L19 4L18 4L18 3L17 3L17 2L18 2L18 1L19 1L19 0L17 0L17 1L16 1L16 2L15 2L15 0L14 0L14 1L12 1L12 0ZM9 3L9 5L10 5L10 3ZM9 6L9 7L10 7L10 6ZM12 6L12 7L13 7L13 6ZM18 6L18 7L19 7L19 6ZM20 6L20 7L21 7L21 6ZM0 8L0 9L2 9L2 8ZM16 8L16 10L17 10L17 8ZM24 8L24 12L25 12L25 9L26 9L26 10L28 10L28 9L26 9L26 8ZM6 9L6 10L5 10L5 11L6 11L6 10L8 10L8 9ZM9 9L9 10L10 10L10 9ZM15 11L15 12L16 12L16 11ZM11 12L11 13L12 13L12 12ZM28 12L28 13L26 13L26 17L24 17L24 18L28 18L28 19L29 19L29 17L27 17L27 14L29 14L29 12ZM24 13L24 14L25 14L25 13ZM21 15L21 16L22 16L22 15ZM28 15L28 16L29 16L29 15ZM1 16L1 18L2 18L2 19L3 19L3 18L4 18L4 17L3 17L3 18L2 18L2 16ZM6 17L6 18L7 18L7 17ZM8 17L8 18L9 18L9 17ZM13 17L13 18L12 18L12 19L13 19L13 20L14 20L14 19L15 19L15 17ZM13 18L13 19L14 19L14 18ZM9 19L9 20L10 20L10 19ZM6 20L6 21L7 21L7 20ZM18 20L18 21L19 21L19 20ZM9 21L9 22L10 22L10 21ZM21 21L21 24L24 24L24 21ZM22 22L22 23L23 23L23 22ZM25 23L25 25L24 25L24 26L26 26L26 27L27 27L27 23ZM12 24L12 25L11 25L11 26L12 26L12 25L13 25L13 24ZM9 26L9 27L8 27L8 29L10 29L10 28L9 28L9 27L10 27L10 26ZM12 27L12 28L11 28L11 29L16 29L16 28L13 28L13 27ZM0 0L0 7L7 7L7 0ZM1 1L1 6L6 6L6 1ZM2 2L2 5L5 5L5 2ZM22 0L22 7L29 7L29 0ZM23 1L23 6L28 6L28 1ZM24 2L24 5L27 5L27 2ZM0 22L0 29L7 29L7 22ZM1 23L1 28L6 28L6 23ZM2 24L2 27L5 27L5 24Z" fill="#000000"/></g></g></svg>
