<?xml version="1.0" encoding="UTF-8"?>
<svg xmlns="http://www.w3.org/2000/svg" version="1.1" width="100" height="100" viewBox="0 0 100 100"><rect x="0" y="0" width="100" height="100" fill="#ffffff"/><g transform="scale(2.703)"><g transform="translate(0,0)"><path fill-rule="evenodd" d="M8 0L8 1L9 1L9 2L8 2L8 5L9 5L9 4L11 4L11 5L10 5L10 9L9 9L9 8L8 8L8 9L7 9L7 8L6 8L6 9L7 9L7 10L5 10L5 9L4 9L4 8L0 8L0 12L1 12L1 14L0 14L0 16L1 16L1 14L4 14L4 15L8 15L8 14L10 14L10 13L11 13L11 15L9 15L9 16L5 16L5 17L7 17L7 18L5 18L5 19L4 19L4 16L2 16L2 17L0 17L0 19L1 19L1 22L0 22L0 23L1 23L1 22L2 22L2 21L3 21L3 22L5 22L5 23L7 23L7 24L6 24L6 25L8 25L8 26L9 26L9 27L7 27L7 26L6 26L6 27L5 27L5 24L4 24L4 23L2 23L2 25L1 25L1 24L0 24L0 25L1 25L1 27L0 27L0 28L1 28L1 27L2 27L2 29L4 29L4 28L3 28L3 27L2 27L2 25L3 25L3 26L4 26L4 27L5 27L5 29L7 29L7 28L9 28L9 29L8 29L8 30L9 30L9 31L10 31L10 32L11 32L11 33L10 33L10 34L9 34L9 33L8 33L8 37L10 37L10 35L14 35L14 34L15 34L15 33L14 33L14 32L13 32L13 30L14 30L14 29L12 29L12 28L14 28L14 27L15 27L15 28L16 28L16 29L15 29L15 32L17 32L17 33L18 33L18 32L19 32L19 31L18 31L18 29L17 29L17 27L18 27L18 28L20 28L20 30L21 30L21 29L23 29L23 30L26 30L26 28L25 28L25 25L27 25L27 26L32 26L32 27L36 27L36 28L34 28L34 29L33 29L33 28L31 28L31 27L29 27L29 28L28 28L28 27L27 27L27 28L28 28L28 31L27 31L27 32L26 32L26 34L29 34L29 36L30 36L30 37L31 37L31 36L30 36L30 35L32 35L32 37L37 37L37 36L35 36L35 35L34 35L34 34L37 34L37 33L33 33L33 32L34 32L34 31L35 31L35 32L36 32L36 31L37 31L37 27L36 27L36 26L37 26L37 24L35 24L35 23L34 23L34 22L36 22L36 19L37 19L37 17L36 17L36 16L37 16L37 15L36 15L36 14L37 14L37 11L36 11L36 9L37 9L37 8L36 8L36 9L35 9L35 8L32 8L32 9L31 9L31 10L29 10L29 9L30 9L30 8L29 8L29 6L28 6L28 7L27 7L27 5L29 5L29 2L26 2L26 1L25 1L25 0L23 0L23 1L22 1L22 2L24 2L24 3L25 3L25 4L24 4L24 5L26 5L26 7L27 7L27 8L26 8L26 9L28 9L28 10L29 10L29 14L28 14L28 13L27 13L27 12L28 12L28 11L26 11L26 10L24 10L24 8L25 8L25 6L24 6L24 8L23 8L23 10L22 10L22 8L21 8L21 5L20 5L20 4L19 4L19 5L18 5L18 3L21 3L21 1L20 1L20 0L19 0L19 1L20 1L20 2L18 2L18 0L17 0L17 1L16 1L16 0L12 0L12 1L11 1L11 0L10 0L10 1L9 1L9 0ZM28 0L28 1L29 1L29 0ZM14 1L14 2L11 2L11 4L12 4L12 3L13 3L13 5L12 5L12 6L11 6L11 8L12 8L12 6L13 6L13 8L14 8L14 9L15 9L15 7L16 7L16 6L15 6L15 5L16 5L16 4L17 4L17 3L18 3L18 2L17 2L17 3L16 3L16 1ZM24 1L24 2L25 2L25 1ZM14 3L14 5L13 5L13 6L14 6L14 7L15 7L15 6L14 6L14 5L15 5L15 4L16 4L16 3ZM22 3L22 4L23 4L23 3ZM26 3L26 4L27 4L27 3ZM8 6L8 7L9 7L9 6ZM17 6L17 7L18 7L18 8L19 8L19 7L20 7L20 6L19 6L19 7L18 7L18 6ZM22 6L22 7L23 7L23 6ZM16 8L16 10L14 10L14 11L11 11L11 13L12 13L12 12L13 12L13 14L12 14L12 16L11 16L11 18L9 18L9 17L8 17L8 18L7 18L7 19L6 19L6 20L5 20L5 21L6 21L6 22L7 22L7 21L6 21L6 20L7 20L7 19L8 19L8 20L9 20L9 21L10 21L10 22L9 22L9 23L8 23L8 24L9 24L9 26L10 26L10 27L9 27L9 28L10 28L10 29L9 29L9 30L10 30L10 31L11 31L11 32L12 32L12 31L11 31L11 30L12 30L12 29L11 29L11 28L12 28L12 26L13 26L13 27L14 27L14 26L15 26L15 27L16 27L16 26L17 26L17 24L18 24L18 26L19 26L19 25L20 25L20 27L22 27L22 28L23 28L23 27L24 27L24 25L25 25L25 24L24 24L24 23L28 23L28 20L29 20L29 19L30 19L30 21L29 21L29 23L30 23L30 24L31 24L31 25L32 25L32 24L31 24L31 23L32 23L32 22L34 22L34 21L35 21L35 19L34 19L34 18L35 18L35 17L34 17L34 16L36 16L36 15L35 15L35 14L36 14L36 12L35 12L35 14L34 14L34 16L32 16L32 14L30 14L30 16L29 16L29 15L28 15L28 14L27 14L27 15L28 15L28 18L29 18L29 19L27 19L27 21L26 21L26 19L25 19L25 18L27 18L27 16L26 16L26 15L25 15L25 14L26 14L26 13L25 13L25 14L24 14L24 11L22 11L22 10L21 10L21 9L20 9L20 10L19 10L19 11L17 11L17 12L16 12L16 10L18 10L18 9L17 9L17 8ZM8 9L8 10L9 10L9 11L6 11L6 12L5 12L5 13L4 13L4 14L8 14L8 13L9 13L9 12L10 12L10 10L9 10L9 9ZM11 9L11 10L12 10L12 9ZM32 9L32 10L31 10L31 11L30 11L30 12L31 12L31 13L32 13L32 12L31 12L31 11L32 11L32 10L33 10L33 12L34 12L34 10L33 10L33 9ZM1 10L1 11L2 11L2 10ZM3 10L3 12L4 12L4 11L5 11L5 10ZM20 10L20 11L19 11L19 12L17 12L17 13L16 13L16 12L14 12L14 14L13 14L13 15L14 15L14 18L13 18L13 21L15 21L15 22L14 22L14 23L11 23L11 22L10 22L10 23L9 23L9 24L10 24L10 25L11 25L11 26L12 26L12 24L16 24L16 22L17 22L17 23L18 23L18 24L21 24L21 23L19 23L19 22L20 22L20 21L22 21L22 20L24 20L24 21L23 21L23 23L24 23L24 21L25 21L25 19L22 19L22 18L25 18L25 17L26 17L26 16L25 16L25 17L24 17L24 16L22 16L22 15L21 15L21 12L20 12L20 11L21 11L21 10ZM6 12L6 13L7 13L7 12ZM22 12L22 14L23 14L23 12ZM15 13L15 14L14 14L14 15L15 15L15 16L16 16L16 15L15 15L15 14L16 14L16 13ZM17 14L17 19L15 19L15 21L16 21L16 20L17 20L17 19L18 19L18 17L19 17L19 20L22 20L22 19L21 19L21 18L22 18L22 17L21 17L21 18L20 18L20 15L19 15L19 14ZM12 16L12 17L13 17L13 16ZM2 17L2 18L1 18L1 19L2 19L2 20L3 20L3 21L4 21L4 19L3 19L3 17ZM15 17L15 18L16 18L16 17ZM30 17L30 18L31 18L31 19L32 19L32 20L31 20L31 22L30 22L30 23L31 23L31 22L32 22L32 21L33 21L33 20L34 20L34 19L32 19L32 18L31 18L31 17ZM33 17L33 18L34 18L34 17ZM8 18L8 19L9 19L9 20L12 20L12 19L9 19L9 18ZM17 21L17 22L18 22L18 21ZM3 24L3 25L4 25L4 24ZM22 24L22 25L21 25L21 26L22 26L22 25L23 25L23 24ZM13 25L13 26L14 26L14 25ZM33 25L33 26L36 26L36 25ZM6 27L6 28L7 28L7 27ZM10 27L10 28L11 28L11 27ZM29 29L29 32L32 32L32 29ZM34 29L34 30L36 30L36 29ZM30 30L30 31L31 31L31 30ZM20 31L20 33L19 33L19 34L20 34L20 33L23 33L23 34L21 34L21 35L24 35L24 37L27 37L27 36L28 36L28 35L27 35L27 36L26 36L26 35L25 35L25 33L24 33L24 32L25 32L25 31L22 31L22 32L21 32L21 31ZM27 32L27 33L28 33L28 32ZM11 33L11 34L12 34L12 33ZM31 33L31 34L32 34L32 33ZM16 34L16 35L18 35L18 36L14 36L14 37L19 37L19 35L18 35L18 34ZM12 36L12 37L13 37L13 36ZM22 36L22 37L23 37L23 36ZM0 0L0 7L7 7L7 0ZM1 1L1 6L6 6L6 1ZM2 2L2 5L5 5L5 2ZM30 0L30 7L37 7L37 0ZM31 1L31 6L36 6L36 1ZM32 2L32 5L35 5L35 2ZM0 30L0 37L7 37L7 30ZM1 31L1 36L6 36L6 31ZM2 32L2 35L5 35L5 32Z" fill="#000000"/></g></g></svg>
