<?xml version="1.0" encoding="UTF-8"?>
<svg xmlns="http://www.w3.org/2000/svg" version="1.1" width="100" height="100" viewBox="0 0 100 100"><rect x="0" y="0" width="100" height="100" fill="#ffffff"/><g transform="scale(2.703)"><g transform="translate(0,0)"><path fill-rule="evenodd" d="M10 0L10 2L11 2L11 0ZM12 0L12 1L13 1L13 2L12 2L12 4L13 4L13 3L14 3L14 4L15 4L15 5L17 5L17 6L16 6L16 9L12 9L12 7L13 7L13 5L11 5L11 6L10 6L10 4L11 4L11 3L8 3L8 4L9 4L9 5L8 5L8 7L9 7L9 8L6 8L6 9L8 9L8 11L7 11L7 10L6 10L6 11L7 11L7 12L5 12L5 14L4 14L4 13L2 13L2 12L3 12L3 11L4 11L4 10L3 10L3 9L5 9L5 8L0 8L0 9L2 9L2 10L0 10L0 12L1 12L1 13L0 13L0 14L1 14L1 13L2 13L2 14L4 14L4 15L3 15L3 16L2 16L2 15L1 15L1 16L0 16L0 17L1 17L1 16L2 16L2 17L3 17L3 16L4 16L4 18L2 18L2 19L1 19L1 18L0 18L0 19L1 19L1 20L2 20L2 24L4 24L4 25L0 25L0 29L1 29L1 26L3 26L3 27L2 27L2 28L3 28L3 27L4 27L4 29L5 29L5 26L6 26L6 27L7 27L7 28L6 28L6 29L7 29L7 28L8 28L8 31L10 31L10 30L11 30L11 33L10 33L10 32L8 32L8 37L11 37L11 33L12 33L12 34L13 34L13 35L12 35L12 37L13 37L13 36L14 36L14 37L19 37L19 36L20 36L20 35L21 35L21 36L22 36L22 37L23 37L23 34L25 34L25 33L26 33L26 35L28 35L28 36L30 36L30 37L31 37L31 36L32 36L32 37L37 37L37 30L35 30L35 28L31 28L31 27L33 27L33 26L34 26L34 25L35 25L35 27L36 27L36 28L37 28L37 26L36 26L36 25L37 25L37 22L36 22L36 21L37 21L37 18L36 18L36 17L37 17L37 14L36 14L36 13L37 13L37 12L36 12L36 11L37 11L37 10L36 10L36 8L35 8L35 9L34 9L34 8L33 8L33 11L32 11L32 13L31 13L31 11L28 11L28 10L29 10L29 9L30 9L30 8L29 8L29 3L27 3L27 2L28 2L28 1L29 1L29 0L28 0L28 1L25 1L25 0L23 0L23 1L21 1L21 2L20 2L20 3L22 3L22 4L18 4L18 3L17 3L17 4L16 4L16 2L17 2L17 1L18 1L18 2L19 2L19 1L20 1L20 0L19 0L19 1L18 1L18 0L17 0L17 1L16 1L16 0ZM8 1L8 2L9 2L9 1ZM23 1L23 4L22 4L22 5L23 5L23 7L22 7L22 6L21 6L21 7L20 7L20 5L18 5L18 4L17 4L17 5L18 5L18 6L17 6L17 8L18 8L18 9L16 9L16 10L17 10L17 11L16 11L16 13L17 13L17 14L15 14L15 13L14 13L14 12L15 12L15 11L14 11L14 12L13 12L13 13L12 13L12 11L13 11L13 10L12 10L12 9L11 9L11 8L10 8L10 9L9 9L9 10L10 10L10 11L9 11L9 12L8 12L8 13L6 13L6 14L7 14L7 15L5 15L5 18L7 18L7 19L6 19L6 20L7 20L7 21L6 21L6 22L7 22L7 23L6 23L6 24L5 24L5 23L4 23L4 24L5 24L5 25L6 25L6 26L7 26L7 27L8 27L8 26L9 26L9 27L11 27L11 30L13 30L13 31L12 31L12 33L15 33L15 34L17 34L17 36L19 36L19 35L20 35L20 34L21 34L21 35L22 35L22 34L23 34L23 32L26 32L26 31L27 31L27 32L28 32L28 30L27 30L27 29L25 29L25 28L27 28L27 26L28 26L28 25L27 25L27 26L26 26L26 25L25 25L25 24L26 24L26 22L28 22L28 21L29 21L29 22L30 22L30 23L31 23L31 25L29 25L29 27L28 27L28 28L29 28L29 27L30 27L30 26L31 26L31 25L32 25L32 26L33 26L33 25L32 25L32 23L33 23L33 24L36 24L36 23L35 23L35 22L34 22L34 21L32 21L32 20L36 20L36 19L34 19L34 17L32 17L32 15L30 15L30 16L31 16L31 17L29 17L29 14L31 14L31 13L29 13L29 12L28 12L28 11L27 11L27 13L24 13L24 12L26 12L26 11L25 11L25 10L28 10L28 9L29 9L29 8L28 8L28 6L27 6L27 9L24 9L24 10L23 10L23 9L22 9L22 8L23 8L23 7L24 7L24 8L26 8L26 6L25 6L25 7L24 7L24 5L25 5L25 3L26 3L26 5L28 5L28 4L27 4L27 3L26 3L26 2L24 2L24 1ZM14 2L14 3L15 3L15 2ZM23 4L23 5L24 5L24 4ZM9 6L9 7L10 7L10 6ZM11 6L11 7L12 7L12 6ZM14 6L14 8L15 8L15 6ZM18 6L18 8L20 8L20 7L19 7L19 6ZM21 7L21 8L22 8L22 7ZM31 8L31 10L32 10L32 8ZM10 9L10 10L11 10L11 9ZM18 9L18 10L20 10L20 11L18 11L18 12L17 12L17 13L19 13L19 14L18 14L18 15L19 15L19 16L17 16L17 15L16 15L16 17L12 17L12 15L13 15L13 14L11 14L11 12L10 12L10 14L11 14L11 16L10 16L10 15L9 15L9 13L8 13L8 15L7 15L7 16L6 16L6 17L7 17L7 16L8 16L8 17L12 17L12 18L13 18L13 19L12 19L12 21L13 21L13 20L14 20L14 21L15 21L15 22L17 22L17 21L18 21L18 22L20 22L20 24L22 24L22 25L23 25L23 26L21 26L21 25L18 25L18 24L17 24L17 23L16 23L16 24L17 24L17 25L18 25L18 26L17 26L17 27L16 27L16 25L12 25L12 23L13 23L13 22L11 22L11 25L12 25L12 26L13 26L13 27L12 27L12 29L13 29L13 28L14 28L14 29L17 29L17 30L15 30L15 31L14 31L14 32L16 32L16 33L19 33L19 34L18 34L18 35L19 35L19 34L20 34L20 33L21 33L21 32L23 32L23 31L21 31L21 32L16 32L16 31L18 31L18 30L24 30L24 29L23 29L23 28L25 28L25 27L26 27L26 26L25 26L25 27L23 27L23 26L24 26L24 25L23 25L23 23L22 23L22 22L20 22L20 21L21 21L21 20L22 20L22 21L23 21L23 22L24 22L24 23L25 23L25 22L24 22L24 21L23 21L23 19L22 19L22 17L23 17L23 18L24 18L24 17L25 17L25 19L27 19L27 20L25 20L25 21L28 21L28 19L29 19L29 17L28 17L28 18L26 18L26 17L27 17L27 16L28 16L28 14L26 14L26 16L24 16L24 17L23 17L23 16L22 16L22 15L23 15L23 14L24 14L24 15L25 15L25 14L24 14L24 13L23 13L23 10L22 10L22 9ZM2 10L2 11L1 11L1 12L2 12L2 11L3 11L3 10ZM35 10L35 11L34 11L34 12L35 12L35 13L36 13L36 12L35 12L35 11L36 11L36 10ZM19 12L19 13L20 13L20 14L19 14L19 15L20 15L20 16L19 16L19 17L16 17L16 18L17 18L17 19L16 19L16 21L17 21L17 20L18 20L18 21L19 21L19 20L21 20L21 17L22 17L22 16L21 16L21 13L22 13L22 12L21 12L21 13L20 13L20 12ZM32 13L32 14L33 14L33 15L34 15L34 16L35 16L35 17L36 17L36 15L34 15L34 13ZM8 15L8 16L9 16L9 15ZM14 15L14 16L15 16L15 15ZM20 16L20 17L19 17L19 18L18 18L18 19L19 19L19 18L20 18L20 17L21 17L21 16ZM31 17L31 19L30 19L30 20L29 20L29 21L31 21L31 22L32 22L32 21L31 21L31 19L32 19L32 17ZM8 18L8 21L9 21L9 22L10 22L10 20L11 20L11 18L10 18L10 19L9 19L9 18ZM2 19L2 20L3 20L3 22L5 22L5 21L4 21L4 20L5 20L5 19L4 19L4 20L3 20L3 19ZM14 19L14 20L15 20L15 19ZM0 21L0 22L1 22L1 21ZM7 23L7 24L6 24L6 25L8 25L8 23ZM9 23L9 25L10 25L10 23ZM14 23L14 24L15 24L15 23ZM27 23L27 24L29 24L29 23ZM18 26L18 27L17 27L17 28L18 28L18 27L21 27L21 26ZM14 27L14 28L16 28L16 27ZM22 27L22 28L19 28L19 29L22 29L22 28L23 28L23 27ZM29 29L29 32L32 32L32 29ZM33 29L33 30L34 30L34 29ZM30 30L30 31L31 31L31 30ZM33 31L33 32L35 32L35 33L36 33L36 31ZM9 33L9 34L10 34L10 33ZM31 33L31 34L28 34L28 35L31 35L31 34L32 34L32 35L33 35L33 36L36 36L36 35L35 35L35 34L32 34L32 33ZM14 35L14 36L15 36L15 35ZM24 36L24 37L27 37L27 36ZM0 0L0 7L7 7L7 0ZM1 1L1 6L6 6L6 1ZM2 2L2 5L5 5L5 2ZM30 0L30 7L37 7L37 0ZM31 1L31 6L36 6L36 1ZM32 2L32 5L35 5L35 2ZM0 30L0 37L7 37L7 30ZM1 31L1 36L6 36L6 31ZM2 32L2 35L5 35L5 32Z" fill="#000000"/></g></g></svg>
