<?xml version="1.0" encoding="UTF-8"?>
<svg xmlns="http://www.w3.org/2000/svg" version="1.1" width="100" height="100" viewBox="0 0 100 100"><rect x="0" y="0" width="100" height="100" fill="#ffffff"/><g transform="scale(2.703)"><g transform="translate(0,0)"><path fill-rule="evenodd" d="M9 0L9 1L8 1L8 3L9 3L9 4L8 4L8 8L6 8L6 9L5 9L5 10L6 10L6 11L7 11L7 12L6 12L6 13L7 13L7 12L8 12L8 13L9 13L9 15L8 15L8 14L6 14L6 15L4 15L4 14L5 14L5 13L4 13L4 14L3 14L3 13L2 13L2 11L3 11L3 10L2 10L2 8L0 8L0 10L2 10L2 11L1 11L1 15L0 15L0 19L1 19L1 23L3 23L3 24L0 24L0 25L4 25L4 26L2 26L2 27L1 27L1 26L0 26L0 27L1 27L1 28L0 28L0 29L4 29L4 28L2 28L2 27L5 27L5 26L6 26L6 27L7 27L7 26L8 26L8 27L9 27L9 25L8 25L8 24L10 24L10 23L11 23L11 25L10 25L10 26L11 26L11 27L10 27L10 28L9 28L9 29L8 29L8 28L6 28L6 29L8 29L8 31L9 31L9 33L8 33L8 34L9 34L9 33L11 33L11 34L10 34L10 37L11 37L11 34L12 34L12 33L11 33L11 31L12 31L12 32L13 32L13 30L14 30L14 32L15 32L15 29L17 29L17 32L18 32L18 33L17 33L17 34L16 34L16 35L14 35L14 36L17 36L17 37L19 37L19 35L20 35L20 37L22 37L22 36L23 36L23 34L21 34L21 35L20 35L20 34L19 34L19 33L23 33L23 32L24 32L24 33L25 33L25 35L24 35L24 37L26 37L26 36L27 36L27 37L29 37L29 36L30 36L30 37L31 37L31 36L30 36L30 35L28 35L28 36L27 36L27 35L26 35L26 34L29 34L29 33L31 33L31 34L32 34L32 35L34 35L34 34L35 34L35 35L37 35L37 34L35 34L35 33L37 33L37 32L36 32L36 31L37 31L37 29L36 29L36 30L35 30L35 28L36 28L36 27L37 27L37 24L35 24L35 25L33 25L33 26L32 26L32 25L31 25L31 24L32 24L32 23L34 23L34 22L35 22L35 23L37 23L37 20L36 20L36 19L37 19L37 16L36 16L36 15L37 15L37 9L36 9L36 8L34 8L34 9L33 9L33 8L30 8L30 9L29 9L29 8L27 8L27 6L28 6L28 7L29 7L29 1L28 1L28 0L26 0L26 1L25 1L25 0L19 0L19 1L21 1L21 2L20 2L20 3L18 3L18 0L16 0L16 1L14 1L14 0L12 0L12 1L11 1L11 2L9 2L9 1L10 1L10 0ZM16 1L16 2L14 2L14 3L16 3L16 4L15 4L15 8L14 8L14 6L13 6L13 3L12 3L12 4L9 4L9 5L10 5L10 6L9 6L9 7L10 7L10 8L8 8L8 9L6 9L6 10L7 10L7 11L8 11L8 10L9 10L9 13L12 13L12 12L13 12L13 15L15 15L15 16L16 16L16 15L15 15L15 13L16 13L16 14L17 14L17 13L16 13L16 12L19 12L19 13L20 13L20 14L19 14L19 16L20 16L20 17L19 17L19 20L17 20L17 21L18 21L18 22L16 22L16 23L14 23L14 24L12 24L12 28L11 28L11 29L10 29L10 31L11 31L11 30L12 30L12 28L14 28L14 29L15 29L15 27L16 27L16 28L17 28L17 27L18 27L18 28L20 28L20 27L22 27L22 28L23 28L23 29L28 29L28 28L31 28L31 27L29 27L29 23L28 23L28 20L27 20L27 19L30 19L30 20L29 20L29 21L30 21L30 20L31 20L31 22L30 22L30 24L31 24L31 22L34 22L34 21L35 21L35 22L36 22L36 20L34 20L34 19L35 19L35 18L34 18L34 16L35 16L35 17L36 17L36 16L35 16L35 15L36 15L36 12L35 12L35 11L36 11L36 9L35 9L35 11L34 11L34 10L33 10L33 9L31 9L31 10L28 10L28 9L26 9L26 10L24 10L24 6L25 6L25 8L26 8L26 6L27 6L27 5L26 5L26 4L27 4L27 3L26 3L26 2L25 2L25 1L24 1L24 3L25 3L25 4L24 4L24 5L23 5L23 4L22 4L22 3L23 3L23 1L22 1L22 2L21 2L21 3L20 3L20 4L19 4L19 5L23 5L23 8L22 8L22 10L21 10L21 11L22 11L22 10L23 10L23 12L22 12L22 14L21 14L21 12L20 12L20 11L19 11L19 10L20 10L20 9L21 9L21 7L22 7L22 6L21 6L21 7L20 7L20 6L19 6L19 7L18 7L18 6L17 6L17 5L18 5L18 3L16 3L16 2L17 2L17 1ZM16 4L16 5L17 5L17 4ZM11 5L11 6L10 6L10 7L11 7L11 6L12 6L12 8L13 8L13 6L12 6L12 5ZM16 6L16 7L17 7L17 8L18 8L18 7L17 7L17 6ZM19 7L19 8L20 8L20 7ZM3 8L3 9L4 9L4 8ZM10 8L10 9L9 9L9 10L10 10L10 12L11 12L11 10L12 10L12 9L11 9L11 8ZM15 8L15 9L14 9L14 10L16 10L16 11L14 11L14 12L16 12L16 11L17 11L17 10L18 10L18 9L17 9L17 10L16 10L16 8ZM31 10L31 12L30 12L30 11L28 11L28 12L27 12L27 13L28 13L28 15L27 15L27 14L26 14L26 15L25 15L25 13L26 13L26 11L24 11L24 14L23 14L23 16L22 16L22 15L21 15L21 17L20 17L20 18L22 18L22 19L20 19L20 21L22 21L22 19L23 19L23 21L24 21L24 24L25 24L25 25L24 25L24 26L23 26L23 25L22 25L22 24L23 24L23 23L21 23L21 24L20 24L20 22L19 22L19 23L18 23L18 24L17 24L17 23L16 23L16 24L14 24L14 25L13 25L13 27L15 27L15 26L16 26L16 27L17 27L17 26L18 26L18 24L20 24L20 25L19 25L19 26L21 26L21 25L22 25L22 26L23 26L23 27L24 27L24 26L25 26L25 28L26 28L26 26L27 26L27 25L26 25L26 21L27 21L27 20L25 20L25 19L26 19L26 18L27 18L27 17L28 17L28 18L29 18L29 17L30 17L30 18L31 18L31 19L34 19L34 18L33 18L33 17L32 17L32 16L34 16L34 14L32 14L32 13L31 13L31 12L32 12L32 11L33 11L33 12L34 12L34 11L33 11L33 10ZM4 11L4 12L5 12L5 11ZM2 14L2 16L1 16L1 18L3 18L3 19L2 19L2 22L3 22L3 23L6 23L6 24L8 24L8 23L6 23L6 22L9 22L9 23L10 23L10 20L11 20L11 19L12 19L12 20L13 20L13 21L14 21L14 22L15 22L15 21L16 21L16 20L15 20L15 19L18 19L18 17L16 17L16 18L15 18L15 17L13 17L13 16L12 16L12 14L10 14L10 17L9 17L9 18L7 18L7 17L6 17L6 18L4 18L4 17L2 17L2 16L3 16L3 14ZM29 14L29 15L28 15L28 17L29 17L29 16L30 16L30 14ZM6 15L6 16L7 16L7 15ZM11 16L11 17L10 17L10 18L9 18L9 19L10 19L10 18L11 18L11 17L12 17L12 16ZM23 16L23 17L22 17L22 18L23 18L23 19L25 19L25 18L26 18L26 17L27 17L27 16L25 16L25 18L23 18L23 17L24 17L24 16ZM31 17L31 18L32 18L32 17ZM6 18L6 19L7 19L7 20L6 20L6 21L4 21L4 22L6 22L6 21L7 21L7 20L8 20L8 19L7 19L7 18ZM13 18L13 20L14 20L14 21L15 21L15 20L14 20L14 18ZM3 19L3 20L5 20L5 19ZM24 20L24 21L25 21L25 20ZM32 20L32 21L33 21L33 20ZM4 24L4 25L5 25L5 24ZM6 25L6 26L7 26L7 25ZM25 25L25 26L26 26L26 25ZM35 25L35 27L32 27L32 28L33 28L33 33L35 33L35 32L34 32L34 31L35 31L35 30L34 30L34 28L35 28L35 27L36 27L36 25ZM27 27L27 28L28 28L28 27ZM18 29L18 31L19 31L19 32L21 32L21 31L20 31L20 30L21 30L21 29ZM29 29L29 32L32 32L32 29ZM23 30L23 31L22 31L22 32L23 32L23 31L25 31L25 32L26 32L26 30ZM30 30L30 31L31 31L31 30ZM27 31L27 33L28 33L28 31ZM14 33L14 34L15 34L15 33ZM17 34L17 36L18 36L18 34ZM8 35L8 37L9 37L9 35ZM12 36L12 37L13 37L13 36ZM35 36L35 37L37 37L37 36ZM0 0L0 7L7 7L7 0ZM1 1L1 6L6 6L6 1ZM2 2L2 5L5 5L5 2ZM30 0L30 7L37 7L37 0ZM31 1L31 6L36 6L36 1ZM32 2L32 5L35 5L35 2ZM0 30L0 37L7 37L7 30ZM1 31L1 36L6 36L6 31ZM2 32L2 35L5 35L5 32Z" fill="#000000"/></g></g></svg>
