<?xml version="1.0" encoding="UTF-8"?>
<svg xmlns="http://www.w3.org/2000/svg" version="1.1" width="100" height="100" viewBox="0 0 100 100"><rect x="0" y="0" width="100" height="100" fill="#ffffff"/><g transform="scale(2.703)"><g transform="translate(0,0)"><path fill-rule="evenodd" d="M11 0L11 1L9 1L9 2L11 2L11 1L13 1L13 2L12 2L12 4L13 4L13 3L14 3L14 2L15 2L15 3L16 3L16 4L15 4L15 6L14 6L14 8L16 8L16 10L14 10L14 9L12 9L12 7L13 7L13 5L11 5L11 6L10 6L10 8L9 8L9 9L8 9L8 8L5 8L5 9L8 9L8 11L9 11L9 12L10 12L10 13L9 13L9 16L10 16L10 18L9 18L9 19L7 19L7 18L6 18L6 17L8 17L8 15L7 15L7 14L8 14L8 12L5 12L5 13L4 13L4 12L2 12L2 10L3 10L3 11L7 11L7 10L4 10L4 9L2 9L2 8L0 8L0 9L1 9L1 12L0 12L0 13L1 13L1 14L0 14L0 15L1 15L1 16L2 16L2 18L1 18L1 17L0 17L0 18L1 18L1 19L0 19L0 23L1 23L1 25L0 25L0 29L1 29L1 25L2 25L2 27L3 27L3 28L5 28L5 29L8 29L8 32L9 32L9 35L8 35L8 37L9 37L9 35L11 35L11 34L10 34L10 33L12 33L12 34L13 34L13 35L12 35L12 36L10 36L10 37L14 37L14 35L15 35L15 37L16 37L16 36L17 36L17 33L19 33L19 34L18 34L18 35L19 35L19 36L18 36L18 37L21 37L21 36L20 36L20 35L21 35L21 34L22 34L22 36L23 36L23 37L25 37L25 36L23 36L23 34L25 34L25 33L29 33L29 34L31 34L31 35L28 35L28 34L26 34L26 35L27 35L27 36L28 36L28 37L32 37L32 36L33 36L33 37L34 37L34 35L32 35L32 34L31 34L31 33L35 33L35 35L36 35L36 37L37 37L37 30L36 30L36 33L35 33L35 32L34 32L34 30L35 30L35 27L36 27L36 28L37 28L37 26L36 26L36 25L37 25L37 22L36 22L36 21L37 21L37 18L36 18L36 17L37 17L37 14L36 14L36 13L37 13L37 12L36 12L36 11L37 11L37 10L36 10L36 9L35 9L35 10L33 10L33 9L34 9L34 8L32 8L32 9L31 9L31 10L33 10L33 11L32 11L32 12L31 12L31 11L28 11L28 9L27 9L27 8L29 8L29 4L28 4L28 7L27 7L27 5L26 5L26 4L27 4L27 0L24 0L24 2L26 2L26 3L25 3L25 5L24 5L24 4L23 4L23 5L22 5L22 3L23 3L23 0L22 0L22 2L20 2L20 4L18 4L18 3L16 3L16 2L17 2L17 0L15 0L15 1L13 1L13 0ZM20 0L20 1L21 1L21 0ZM15 1L15 2L16 2L16 1ZM18 1L18 2L19 2L19 1ZM8 3L8 5L10 5L10 4L9 4L9 3ZM17 4L17 5L16 5L16 6L15 6L15 7L16 7L16 6L17 6L17 8L18 8L18 9L17 9L17 11L14 11L14 13L10 13L10 14L13 14L13 15L12 15L12 17L11 17L11 18L12 18L12 19L10 19L10 20L9 20L9 21L8 21L8 23L6 23L6 22L7 22L7 21L6 21L6 20L7 20L7 19L6 19L6 18L5 18L5 17L6 17L6 16L7 16L7 15L6 15L6 14L7 14L7 13L5 13L5 14L4 14L4 15L6 15L6 16L3 16L3 20L1 20L1 23L2 23L2 24L3 24L3 26L4 26L4 27L5 27L5 28L8 28L8 29L9 29L9 28L11 28L11 29L10 29L10 30L9 30L9 32L10 32L10 30L11 30L11 31L12 31L12 33L14 33L14 34L15 34L15 33L16 33L16 32L21 32L21 33L23 33L23 32L26 32L26 31L25 31L25 30L27 30L27 31L28 31L28 29L25 29L25 28L26 28L26 27L27 27L27 28L28 28L28 27L27 27L27 26L26 26L26 25L27 25L27 24L26 24L26 21L25 21L25 20L28 20L28 22L30 22L30 23L31 23L31 24L32 24L32 26L33 26L33 27L35 27L35 25L36 25L36 23L35 23L35 21L34 21L34 22L31 22L31 21L32 21L32 20L33 20L33 19L34 19L34 20L36 20L36 18L33 18L33 17L32 17L32 16L34 16L34 14L33 14L33 12L34 12L34 13L35 13L35 11L36 11L36 10L35 10L35 11L33 11L33 12L32 12L32 14L33 14L33 15L30 15L30 16L31 16L31 17L29 17L29 16L28 16L28 15L29 15L29 14L31 14L31 13L30 13L30 12L29 12L29 13L28 13L28 12L26 12L26 11L25 11L25 10L26 10L26 9L24 9L24 10L23 10L23 12L22 12L22 11L21 11L21 14L19 14L19 13L18 13L18 11L19 11L19 12L20 12L20 10L22 10L22 8L23 8L23 7L24 7L24 8L26 8L26 6L25 6L25 7L24 7L24 5L23 5L23 7L22 7L22 5L21 5L21 7L20 7L20 5L18 5L18 4ZM17 5L17 6L18 6L18 8L19 8L19 6L18 6L18 5ZM8 6L8 7L9 7L9 6ZM11 6L11 7L12 7L12 6ZM10 8L10 9L9 9L9 10L11 10L11 12L12 12L12 11L13 11L13 10L12 10L12 9L11 9L11 8ZM18 9L18 10L20 10L20 9ZM1 12L1 13L2 13L2 14L3 14L3 13L2 13L2 12ZM15 12L15 13L16 13L16 14L17 14L17 12ZM23 12L23 13L22 13L22 14L21 14L21 15L19 15L19 14L18 14L18 15L19 15L19 16L16 16L16 15L15 15L15 16L16 16L16 17L19 17L19 18L17 18L17 19L19 19L19 20L21 20L21 19L22 19L22 21L21 21L21 22L20 22L20 21L18 21L18 20L17 20L17 21L18 21L18 22L20 22L20 24L19 24L19 25L18 25L18 26L15 26L15 24L16 24L16 25L17 25L17 23L14 23L14 24L13 24L13 25L12 25L12 26L13 26L13 27L12 27L12 29L13 29L13 28L14 28L14 29L15 29L15 30L12 30L12 31L14 31L14 32L15 32L15 31L16 31L16 29L17 29L17 30L19 30L19 31L21 31L21 29L19 29L19 28L20 28L20 27L18 27L18 26L21 26L21 27L22 27L22 32L23 32L23 31L24 31L24 29L23 29L23 28L25 28L25 27L26 27L26 26L25 26L25 27L23 27L23 26L24 26L24 24L23 24L23 23L22 23L22 22L24 22L24 23L25 23L25 22L24 22L24 21L23 21L23 19L24 19L24 17L25 17L25 18L26 18L26 17L27 17L27 19L28 19L28 18L29 18L29 19L30 19L30 20L29 20L29 21L31 21L31 19L30 19L30 18L29 18L29 17L27 17L27 16L24 16L24 17L23 17L23 14L24 14L24 15L25 15L25 14L24 14L24 13L25 13L25 12ZM27 13L27 14L26 14L26 15L28 15L28 13ZM10 15L10 16L11 16L11 15ZM21 15L21 16L19 16L19 17L21 17L21 18L23 18L23 17L22 17L22 15ZM35 15L35 17L36 17L36 15ZM12 17L12 18L15 18L15 19L16 19L16 18L15 18L15 17ZM31 17L31 18L32 18L32 19L33 19L33 18L32 18L32 17ZM12 19L12 21L13 21L13 20L14 20L14 22L15 22L15 21L16 21L16 20L14 20L14 19ZM4 20L4 21L5 21L5 22L3 22L3 21L2 21L2 23L5 23L5 22L6 22L6 21L5 21L5 20ZM10 20L10 21L9 21L9 27L11 27L11 25L10 25L10 24L12 24L12 23L13 23L13 22L11 22L11 20ZM10 22L10 23L11 23L11 22ZM21 23L21 25L22 25L22 26L23 26L23 24L22 24L22 23ZM28 23L28 25L29 25L29 27L30 27L30 26L31 26L31 25L30 25L30 24L29 24L29 23ZM32 23L32 24L33 24L33 25L34 25L34 23ZM6 24L6 25L7 25L7 26L5 26L5 25L4 25L4 26L5 26L5 27L8 27L8 25L7 25L7 24ZM15 27L15 28L18 28L18 27ZM31 27L31 28L32 28L32 27ZM29 29L29 32L32 32L32 29ZM30 30L30 31L31 31L31 30ZM19 34L19 35L20 35L20 34ZM0 0L0 7L7 7L7 0ZM1 1L1 6L6 6L6 1ZM2 2L2 5L5 5L5 2ZM30 0L30 7L37 7L37 0ZM31 1L31 6L36 6L36 1ZM32 2L32 5L35 5L35 2ZM0 30L0 37L7 37L7 30ZM1 31L1 36L6 36L6 31ZM2 32L2 35L5 35L5 32Z" fill="#000000"/></g></g></svg>
