<?xml version="1.0" encoding="UTF-8"?>
<svg xmlns="http://www.w3.org/2000/svg" version="1.1" width="100" height="100" viewBox="0 0 100 100"><rect x="0" y="0" width="100" height="100" fill="#ffffff"/><g transform="scale(3.448)"><g transform="translate(0,0)"><path fill-rule="evenodd" d="M8 0L8 1L9 1L9 2L8 2L8 5L9 5L9 6L8 6L8 7L9 7L9 6L10 6L10 9L11 9L11 10L9 10L9 8L8 8L8 10L9 10L9 11L8 11L8 12L9 12L9 13L8 13L8 15L7 15L7 14L6 14L6 13L7 13L7 12L3 12L3 11L5 11L5 10L6 10L6 11L7 11L7 10L6 10L6 9L7 9L7 8L6 8L6 9L4 9L4 8L0 8L0 9L2 9L2 10L0 10L0 11L1 11L1 13L0 13L0 16L1 16L1 17L4 17L4 18L2 18L2 20L1 20L1 21L2 21L2 20L3 20L3 21L4 21L4 20L5 20L5 21L8 21L8 22L9 22L9 23L10 23L10 24L9 24L9 25L8 25L8 29L11 29L11 28L10 28L10 25L12 25L12 28L13 28L13 29L14 29L14 28L17 28L17 27L14 27L14 26L16 26L16 25L15 25L15 24L14 24L14 23L12 23L12 21L13 21L13 20L12 20L12 21L11 21L11 20L10 20L10 19L11 19L11 18L12 18L12 17L10 17L10 18L9 18L9 16L8 16L8 15L11 15L11 16L12 16L12 15L15 15L15 16L16 16L16 17L15 17L15 18L14 18L14 16L13 16L13 18L14 18L14 19L15 19L15 20L14 20L14 22L15 22L15 20L16 20L16 19L17 19L17 21L16 21L16 23L18 23L18 24L17 24L17 26L18 26L18 29L19 29L19 28L20 28L20 29L22 29L22 26L19 26L19 25L18 25L18 24L20 24L20 25L24 25L24 26L25 26L25 25L26 25L26 26L28 26L28 27L27 27L27 29L28 29L28 27L29 27L29 25L27 25L27 24L26 24L26 22L27 22L27 23L28 23L28 24L29 24L29 23L28 23L28 22L29 22L29 21L27 21L27 18L28 18L28 15L29 15L29 13L27 13L27 12L26 12L26 11L28 11L28 12L29 12L29 11L28 11L28 10L29 10L29 8L28 8L28 10L26 10L26 11L25 11L25 13L27 13L27 14L24 14L24 12L23 12L23 13L22 13L22 12L20 12L20 11L24 11L24 10L25 10L25 9L27 9L27 8L24 8L24 10L23 10L23 9L22 9L22 8L21 8L21 6L20 6L20 5L21 5L21 4L20 4L20 3L21 3L21 2L20 2L20 3L19 3L19 1L21 1L21 0L18 0L18 3L17 3L17 4L16 4L16 3L14 3L14 0ZM16 0L16 2L17 2L17 0ZM9 2L9 5L10 5L10 4L11 4L11 7L12 7L12 8L11 8L11 9L12 9L12 8L13 8L13 9L14 9L14 10L13 10L13 11L15 11L15 12L18 12L18 14L17 14L17 17L16 17L16 18L18 18L18 16L19 16L19 19L18 19L18 20L19 20L19 21L20 21L20 19L21 19L21 20L22 20L22 18L24 18L24 19L23 19L23 20L26 20L26 19L25 19L25 18L26 18L26 17L27 17L27 15L24 15L24 14L23 14L23 15L22 15L22 14L20 14L20 15L18 15L18 14L19 14L19 13L20 13L20 12L19 12L19 11L20 11L20 10L21 10L21 9L20 9L20 10L19 10L19 11L18 11L18 10L17 10L17 11L16 11L16 5L15 5L15 4L13 4L13 3L12 3L12 2L11 2L11 3L10 3L10 2ZM18 3L18 5L17 5L17 7L18 7L18 5L19 5L19 3ZM12 5L12 7L13 7L13 6L14 6L14 8L15 8L15 5ZM19 6L19 8L20 8L20 6ZM2 13L2 14L1 14L1 16L2 16L2 14L3 14L3 13ZM4 13L4 15L3 15L3 16L4 16L4 17L5 17L5 18L4 18L4 19L3 19L3 20L4 20L4 19L6 19L6 20L9 20L9 22L10 22L10 23L11 23L11 24L12 24L12 23L11 23L11 21L10 21L10 20L9 20L9 19L8 19L8 16L7 16L7 15L6 15L6 14L5 14L5 13ZM10 13L10 14L11 14L11 15L12 15L12 14L14 14L14 13ZM15 14L15 15L16 15L16 14ZM21 15L21 16L22 16L22 15ZM23 15L23 17L25 17L25 16L24 16L24 15ZM5 16L5 17L7 17L7 16ZM0 18L0 19L1 19L1 18ZM6 18L6 19L7 19L7 18ZM17 21L17 22L18 22L18 23L19 23L19 22L18 22L18 21ZM21 21L21 24L24 24L24 21ZM22 22L22 23L23 23L23 22ZM13 25L13 26L14 26L14 25ZM13 27L13 28L14 28L14 27ZM23 28L23 29L24 29L24 28ZM25 28L25 29L26 29L26 28ZM0 0L0 7L7 7L7 0ZM1 1L1 6L6 6L6 1ZM2 2L2 5L5 5L5 2ZM22 0L22 7L29 7L29 0ZM23 1L23 6L28 6L28 1ZM24 2L24 5L27 5L27 2ZM0 22L0 29L7 29L7 22ZM1 23L1 28L6 28L6 23ZM2 24L2 27L5 27L5 24Z" fill="#000000"/></g></g></svg>
