<?xml version="1.0" encoding="UTF-8"?>
<svg xmlns="http://www.w3.org/2000/svg" version="1.1" width="100" height="100" viewBox="0 0 100 100"><rect x="0" y="0" width="100" height="100" fill="#ffffff"/><g transform="scale(2.703)"><g transform="translate(0,0)"><path fill-rule="evenodd" d="M10 0L10 2L11 2L11 0ZM12 0L12 1L13 1L13 2L12 2L12 4L13 4L13 3L14 3L14 4L15 4L15 5L17 5L17 4L18 4L18 7L19 7L19 5L21 5L21 6L20 6L20 9L19 9L19 8L17 8L17 6L16 6L16 9L12 9L12 7L13 7L13 5L11 5L11 6L10 6L10 4L11 4L11 3L8 3L8 4L9 4L9 5L8 5L8 7L9 7L9 8L6 8L6 9L5 9L5 8L0 8L0 10L1 10L1 9L2 9L2 11L0 11L0 12L2 12L2 11L3 11L3 13L2 13L2 14L1 14L1 15L0 15L0 17L1 17L1 19L2 19L2 20L3 20L3 21L4 21L4 22L1 22L1 21L0 21L0 22L1 22L1 24L0 24L0 29L1 29L1 25L3 25L3 26L2 26L2 27L3 27L3 26L4 26L4 24L5 24L5 28L4 28L4 29L8 29L8 31L10 31L10 30L11 30L11 33L12 33L12 34L13 34L13 35L12 35L12 37L13 37L13 36L14 36L14 37L15 37L15 36L16 36L16 37L19 37L19 36L22 36L22 37L23 37L23 34L25 34L25 33L26 33L26 35L28 35L28 36L30 36L30 37L31 37L31 36L32 36L32 37L37 37L37 30L35 30L35 28L31 28L31 27L33 27L33 26L34 26L34 25L35 25L35 27L36 27L36 28L37 28L37 26L36 26L36 25L37 25L37 22L36 22L36 21L37 21L37 18L36 18L36 17L37 17L37 14L36 14L36 13L37 13L37 12L36 12L36 11L37 11L37 10L36 10L36 8L35 8L35 9L34 9L34 8L33 8L33 11L32 11L32 13L31 13L31 11L28 11L28 10L29 10L29 9L30 9L30 8L29 8L29 3L27 3L27 2L28 2L28 1L29 1L29 0L28 0L28 1L25 1L25 0L23 0L23 1L21 1L21 2L20 2L20 3L22 3L22 4L18 4L18 3L19 3L19 1L20 1L20 0L19 0L19 1L18 1L18 3L17 3L17 4L16 4L16 2L17 2L17 1L16 1L16 0ZM8 1L8 2L9 2L9 1ZM23 1L23 4L22 4L22 5L23 5L23 7L22 7L22 6L21 6L21 7L22 7L22 8L21 8L21 9L20 9L20 10L19 10L19 9L16 9L16 10L18 10L18 11L16 11L16 13L17 13L17 14L15 14L15 13L14 13L14 12L15 12L15 11L14 11L14 12L13 12L13 13L12 13L12 11L13 11L13 10L12 10L12 9L11 9L11 8L10 8L10 9L11 9L11 10L10 10L10 11L11 11L11 13L10 13L10 14L9 14L9 13L8 13L8 11L6 11L6 10L7 10L7 9L6 9L6 10L5 10L5 9L3 9L3 10L4 10L4 12L5 12L5 11L6 11L6 12L7 12L7 13L6 13L6 14L5 14L5 13L4 13L4 14L5 14L5 15L4 15L4 16L3 16L3 14L2 14L2 15L1 15L1 16L2 16L2 18L3 18L3 20L4 20L4 21L5 21L5 22L7 22L7 23L5 23L5 24L7 24L7 25L6 25L6 26L7 26L7 25L8 25L8 24L7 24L7 23L9 23L9 24L10 24L10 25L11 25L11 30L13 30L13 31L12 31L12 33L15 33L15 34L17 34L17 35L16 35L16 36L19 36L19 35L22 35L22 34L23 34L23 32L26 32L26 31L27 31L27 32L28 32L28 30L27 30L27 29L25 29L25 28L27 28L27 26L28 26L28 25L27 25L27 26L26 26L26 25L25 25L25 24L26 24L26 22L28 22L28 21L29 21L29 22L30 22L30 23L31 23L31 25L29 25L29 27L28 27L28 28L29 28L29 27L30 27L30 26L31 26L31 25L32 25L32 26L33 26L33 25L32 25L32 23L33 23L33 24L36 24L36 23L35 23L35 22L34 22L34 21L32 21L32 20L36 20L36 19L34 19L34 17L32 17L32 15L30 15L30 16L31 16L31 17L29 17L29 14L31 14L31 13L29 13L29 12L28 12L28 11L27 11L27 13L24 13L24 12L26 12L26 11L25 11L25 10L28 10L28 9L29 9L29 8L28 8L28 6L27 6L27 9L24 9L24 10L23 10L23 9L22 9L22 8L23 8L23 7L24 7L24 8L26 8L26 6L25 6L25 7L24 7L24 5L25 5L25 3L26 3L26 5L28 5L28 4L27 4L27 3L26 3L26 2L24 2L24 1ZM14 2L14 3L15 3L15 2ZM23 4L23 5L24 5L24 4ZM9 6L9 7L10 7L10 6ZM11 6L11 7L12 7L12 6ZM14 6L14 8L15 8L15 6ZM31 8L31 10L32 10L32 8ZM8 9L8 10L9 10L9 9ZM21 9L21 12L19 12L19 11L18 11L18 12L17 12L17 13L19 13L19 14L18 14L18 15L19 15L19 16L17 16L17 15L16 15L16 17L12 17L12 15L13 15L13 14L10 14L10 15L9 15L9 16L10 16L10 15L11 15L11 17L12 17L12 18L13 18L13 19L12 19L12 21L13 21L13 20L14 20L14 21L15 21L15 22L17 22L17 21L18 21L18 22L20 22L20 24L22 24L22 25L23 25L23 26L21 26L21 25L18 25L18 24L17 24L17 23L16 23L16 24L17 24L17 25L18 25L18 26L17 26L17 27L16 27L16 25L12 25L12 23L13 23L13 22L11 22L11 21L10 21L10 22L9 22L9 21L7 21L7 20L6 20L6 21L7 21L7 22L9 22L9 23L10 23L10 22L11 22L11 25L12 25L12 26L13 26L13 27L12 27L12 29L13 29L13 28L14 28L14 29L17 29L17 31L18 31L18 30L20 30L20 31L19 31L19 32L16 32L16 30L15 30L15 31L14 31L14 32L15 32L15 33L19 33L19 34L18 34L18 35L19 35L19 34L20 34L20 33L21 33L21 32L23 32L23 31L21 31L21 30L24 30L24 29L23 29L23 28L25 28L25 27L26 27L26 26L25 26L25 27L23 27L23 26L24 26L24 25L23 25L23 23L22 23L22 22L21 22L21 21L18 21L18 20L17 20L17 21L16 21L16 19L17 19L17 18L16 18L16 17L19 17L19 18L18 18L18 19L19 19L19 18L20 18L20 19L21 19L21 20L22 20L22 21L23 21L23 22L24 22L24 23L25 23L25 22L24 22L24 21L23 21L23 19L22 19L22 17L23 17L23 18L24 18L24 17L25 17L25 19L27 19L27 20L25 20L25 21L28 21L28 19L29 19L29 17L28 17L28 18L26 18L26 17L27 17L27 16L28 16L28 14L26 14L26 16L24 16L24 17L23 17L23 16L22 16L22 15L23 15L23 14L24 14L24 15L25 15L25 14L24 14L24 13L23 13L23 10L22 10L22 9ZM35 10L35 11L34 11L34 12L35 12L35 13L36 13L36 12L35 12L35 11L36 11L36 10ZM21 12L21 13L20 13L20 14L19 14L19 15L20 15L20 16L19 16L19 17L20 17L20 18L21 18L21 17L22 17L22 16L21 16L21 13L22 13L22 12ZM7 13L7 14L6 14L6 15L5 15L5 18L6 18L6 19L7 19L7 18L9 18L9 17L8 17L8 15L7 15L7 14L8 14L8 13ZM32 13L32 14L33 14L33 15L34 15L34 16L35 16L35 17L36 17L36 15L34 15L34 13ZM6 15L6 16L7 16L7 15ZM14 15L14 16L15 16L15 15ZM20 16L20 17L21 17L21 16ZM3 17L3 18L4 18L4 17ZM6 17L6 18L7 18L7 17ZM31 17L31 19L30 19L30 20L29 20L29 21L31 21L31 22L32 22L32 21L31 21L31 19L32 19L32 17ZM10 18L10 19L9 19L9 20L10 20L10 19L11 19L11 18ZM14 19L14 20L15 20L15 19ZM2 23L2 24L4 24L4 23ZM14 23L14 24L15 24L15 23ZM27 23L27 24L29 24L29 23ZM8 26L8 27L6 27L6 28L8 28L8 29L10 29L10 28L9 28L9 27L10 27L10 26ZM18 26L18 27L17 27L17 28L18 28L18 27L19 27L19 29L22 29L22 28L23 28L23 27L22 27L22 28L20 28L20 26ZM14 27L14 28L16 28L16 27ZM29 29L29 32L32 32L32 29ZM33 29L33 30L34 30L34 29ZM30 30L30 31L31 31L31 30ZM33 31L33 32L35 32L35 33L36 33L36 31ZM8 32L8 37L9 37L9 36L11 36L11 35L9 35L9 32ZM19 32L19 33L20 33L20 32ZM31 33L31 34L28 34L28 35L31 35L31 34L32 34L32 35L33 35L33 36L36 36L36 35L35 35L35 34L32 34L32 33ZM14 35L14 36L15 36L15 35ZM24 36L24 37L27 37L27 36ZM0 0L0 7L7 7L7 0ZM1 1L1 6L6 6L6 1ZM2 2L2 5L5 5L5 2ZM30 0L30 7L37 7L37 0ZM31 1L31 6L36 6L36 1ZM32 2L32 5L35 5L35 2ZM0 30L0 37L7 37L7 30ZM1 31L1 36L6 36L6 31ZM2 32L2 35L5 35L5 32Z" fill="#000000"/></g></g></svg>
