<?xml version="1.0" encoding="UTF-8"?>
<svg xmlns="http://www.w3.org/2000/svg" version="1.1" width="100" height="100" viewBox="0 0 100 100"><rect x="0" y="0" width="100" height="100" fill="#ffffff"/><g transform="scale(2.703)"><g transform="translate(0,0)"><path fill-rule="evenodd" d="M8 0L8 4L10 4L10 3L11 3L11 4L12 4L12 2L11 2L11 0ZM12 0L12 1L13 1L13 0ZM20 0L20 1L18 1L18 2L17 2L17 1L16 1L16 2L15 2L15 3L14 3L14 2L13 2L13 3L14 3L14 4L13 4L13 5L11 5L11 6L10 6L10 7L9 7L9 5L8 5L8 7L9 7L9 8L10 8L10 7L11 7L11 6L12 6L12 8L11 8L11 9L10 9L10 10L9 10L9 9L8 9L8 13L7 13L7 12L6 12L6 13L7 13L7 14L6 14L6 15L5 15L5 12L3 12L3 10L4 10L4 11L7 11L7 10L5 10L5 9L7 9L7 8L4 8L4 9L3 9L3 10L1 10L1 9L2 9L2 8L0 8L0 10L1 10L1 12L0 12L0 13L1 13L1 14L2 14L2 17L1 17L1 16L0 16L0 22L1 22L1 23L0 23L0 24L1 24L1 25L0 25L0 26L2 26L2 28L0 28L0 29L2 29L2 28L3 28L3 29L4 29L4 28L5 28L5 29L8 29L8 30L9 30L9 31L8 31L8 33L9 33L9 35L8 35L8 37L11 37L11 36L12 36L12 37L14 37L14 35L15 35L15 36L16 36L16 37L23 37L23 36L24 36L24 37L25 37L25 34L26 34L26 35L31 35L31 36L30 36L30 37L32 37L32 36L33 36L33 35L32 35L32 33L33 33L33 31L34 31L34 37L37 37L37 36L36 36L36 35L35 35L35 34L37 34L37 32L36 32L36 31L34 31L34 30L35 30L35 28L36 28L36 27L35 27L35 26L36 26L36 25L37 25L37 24L36 24L36 23L35 23L35 22L36 22L36 21L37 21L37 20L36 20L36 19L34 19L34 21L32 21L32 20L30 20L30 19L32 19L32 18L36 18L36 17L37 17L37 16L36 16L36 15L33 15L33 14L36 14L36 13L37 13L37 11L36 11L36 9L37 9L37 8L33 8L33 9L32 9L32 8L31 8L31 9L32 9L32 10L33 10L33 11L32 11L32 12L29 12L29 13L32 13L32 14L31 14L31 15L30 15L30 16L29 16L29 14L28 14L28 12L27 12L27 11L31 11L31 10L29 10L29 9L28 9L28 8L27 8L27 6L26 6L26 8L27 8L27 9L25 9L25 5L24 5L24 4L26 4L26 5L28 5L28 7L29 7L29 4L28 4L28 3L29 3L29 2L28 2L28 3L27 3L27 2L26 2L26 3L25 3L25 1L29 1L29 0L23 0L23 1L22 1L22 0ZM21 1L21 2L22 2L22 3L20 3L20 2L18 2L18 3L17 3L17 5L16 5L16 4L15 4L15 5L16 5L16 6L15 6L15 8L17 8L17 7L18 7L18 3L19 3L19 5L20 5L20 6L19 6L19 7L20 7L20 8L21 8L21 7L22 7L22 5L23 5L23 8L24 8L24 5L23 5L23 2L24 2L24 1L23 1L23 2L22 2L22 1ZM9 2L9 3L10 3L10 2ZM26 3L26 4L27 4L27 3ZM13 6L13 8L12 8L12 9L11 9L11 10L12 10L12 9L13 9L13 10L16 10L16 11L18 11L18 12L20 12L20 13L17 13L17 12L15 12L15 11L14 11L14 13L15 13L15 14L13 14L13 13L12 13L12 12L13 12L13 11L12 11L12 12L11 12L11 11L9 11L9 13L11 13L11 16L10 16L10 17L9 17L9 15L6 15L6 16L7 16L7 17L4 17L4 16L5 16L5 15L4 15L4 14L3 14L3 12L2 12L2 14L3 14L3 15L4 15L4 16L3 16L3 18L2 18L2 19L3 19L3 18L4 18L4 19L6 19L6 20L8 20L8 23L6 23L6 24L5 24L5 25L4 25L4 26L3 26L3 28L4 28L4 26L7 26L7 27L5 27L5 28L9 28L9 30L11 30L11 31L9 31L9 33L10 33L10 32L12 32L12 33L11 33L11 34L12 34L12 33L13 33L13 34L15 34L15 33L16 33L16 34L17 34L17 35L18 35L18 36L19 36L19 35L22 35L22 36L23 36L23 31L22 31L22 29L19 29L19 31L20 31L20 30L21 30L21 31L22 31L22 34L20 34L20 33L21 33L21 32L20 32L20 33L16 33L16 32L17 32L17 31L18 31L18 30L17 30L17 29L16 29L16 27L18 27L18 28L20 28L20 26L21 26L21 25L19 25L19 24L18 24L18 25L17 25L17 23L16 23L16 21L17 21L17 22L18 22L18 21L19 21L19 23L21 23L21 22L20 22L20 21L21 21L21 20L20 20L20 19L21 19L21 18L23 18L23 17L24 17L24 18L26 18L26 17L27 17L27 16L26 16L26 14L25 14L25 13L27 13L27 12L26 12L26 11L25 11L25 13L24 13L24 12L23 12L23 9L13 9L13 8L14 8L14 6ZM16 6L16 7L17 7L17 6ZM20 6L20 7L21 7L21 6ZM24 9L24 10L25 10L25 9ZM33 9L33 10L34 10L34 11L35 11L35 13L36 13L36 11L35 11L35 10L34 10L34 9ZM18 10L18 11L19 11L19 10ZM20 10L20 12L21 12L21 13L20 13L20 15L21 15L21 16L19 16L19 15L18 15L18 14L17 14L17 13L16 13L16 15L17 15L17 16L15 16L15 15L14 15L14 16L13 16L13 15L12 15L12 16L11 16L11 17L10 17L10 19L9 19L9 17L8 17L8 18L6 18L6 19L9 19L9 22L10 22L10 23L9 23L9 24L6 24L6 25L8 25L8 26L9 26L9 28L12 28L12 29L13 29L13 30L15 30L15 31L14 31L14 32L13 32L13 31L12 31L12 32L13 32L13 33L15 33L15 31L17 31L17 30L16 30L16 29L14 29L14 27L16 27L16 26L13 26L13 25L16 25L16 24L15 24L15 23L14 23L14 24L13 24L13 23L12 23L12 24L10 24L10 23L11 23L11 20L12 20L12 21L13 21L13 22L15 22L15 21L14 21L14 19L15 19L15 20L17 20L17 21L18 21L18 20L19 20L19 21L20 21L20 20L19 20L19 19L18 19L18 18L17 18L17 19L16 19L16 18L13 18L13 17L23 17L23 16L24 16L24 17L25 17L25 15L24 15L24 13L23 13L23 12L22 12L22 10ZM32 12L32 13L34 13L34 12ZM21 13L21 14L22 14L22 15L23 15L23 14L22 14L22 13ZM31 15L31 16L32 16L32 17L29 17L29 16L28 16L28 17L29 17L29 18L28 18L28 19L29 19L29 18L32 18L32 17L34 17L34 16L32 16L32 15ZM12 16L12 17L11 17L11 18L12 18L12 17L13 17L13 16ZM35 16L35 17L36 17L36 16ZM10 19L10 20L11 20L11 19ZM12 19L12 20L13 20L13 19ZM22 19L22 20L23 20L23 21L22 21L22 22L23 22L23 21L24 21L24 23L25 23L25 24L23 24L23 23L22 23L22 24L23 24L23 25L22 25L22 27L23 27L23 29L24 29L24 30L25 30L25 33L26 33L26 34L28 34L28 28L27 28L27 25L28 25L28 23L29 23L29 24L32 24L32 25L29 25L29 26L28 26L28 27L29 27L29 28L33 28L33 29L34 29L34 26L35 26L35 25L34 25L34 22L32 22L32 21L29 21L29 20L27 20L27 19L25 19L25 20L23 20L23 19ZM1 20L1 22L2 22L2 23L1 23L1 24L2 24L2 25L3 25L3 24L4 24L4 23L5 23L5 22L3 22L3 21L2 21L2 20ZM6 21L6 22L7 22L7 21ZM25 21L25 22L26 22L26 24L27 24L27 23L28 23L28 22L29 22L29 21ZM30 22L30 23L31 23L31 22ZM2 23L2 24L3 24L3 23ZM32 23L32 24L33 24L33 23ZM9 24L9 25L10 25L10 27L11 27L11 26L12 26L12 25L13 25L13 24L12 24L12 25L10 25L10 24ZM18 25L18 27L19 27L19 25ZM23 25L23 27L26 27L26 25L25 25L25 26L24 26L24 25ZM32 25L32 26L31 26L31 27L33 27L33 25ZM29 26L29 27L30 27L30 26ZM12 27L12 28L13 28L13 27ZM25 29L25 30L27 30L27 29ZM29 29L29 32L32 32L32 29ZM30 30L30 31L31 31L31 30ZM26 31L26 32L27 32L27 31ZM35 32L35 33L36 33L36 32ZM9 35L9 36L10 36L10 35ZM12 35L12 36L13 36L13 35ZM27 36L27 37L28 37L28 36ZM0 0L0 7L7 7L7 0ZM1 1L1 6L6 6L6 1ZM2 2L2 5L5 5L5 2ZM30 0L30 7L37 7L37 0ZM31 1L31 6L36 6L36 1ZM32 2L32 5L35 5L35 2ZM0 30L0 37L7 37L7 30ZM1 31L1 36L6 36L6 31ZM2 32L2 35L5 35L5 32Z" fill="#000000"/></g></g></svg>
