<?xml version="1.0" encoding="UTF-8"?>
<svg xmlns="http://www.w3.org/2000/svg" version="1.1" width="100" height="100" viewBox="0 0 100 100"><rect x="0" y="0" width="100" height="100" fill="#ffffff"/><g transform="scale(3.03)"><g transform="translate(0,0)"><path fill-rule="evenodd" d="M9 0L9 1L8 1L8 2L9 2L9 3L8 3L8 4L10 4L10 7L11 7L11 4L12 4L12 5L13 5L13 4L14 4L14 5L15 5L15 6L14 6L14 8L13 8L13 6L12 6L12 9L16 9L16 10L14 10L14 12L13 12L13 13L12 13L12 11L13 11L13 10L11 10L11 11L10 11L10 9L11 9L11 8L6 8L6 9L9 9L9 10L5 10L5 11L4 11L4 12L3 12L3 14L1 14L1 13L2 13L2 11L3 11L3 10L4 10L4 9L5 9L5 8L0 8L0 9L3 9L3 10L0 10L0 12L1 12L1 13L0 13L0 14L1 14L1 15L0 15L0 17L1 17L1 15L3 15L3 14L4 14L4 15L5 15L5 16L6 16L6 17L5 17L5 18L3 18L3 20L2 20L2 19L0 19L0 20L2 20L2 21L0 21L0 25L1 25L1 22L2 22L2 23L3 23L3 25L5 25L5 23L4 23L4 20L5 20L5 21L7 21L7 20L5 20L5 19L8 19L8 20L11 20L11 21L12 21L12 22L13 22L13 23L12 23L12 25L14 25L14 26L15 26L15 27L16 27L16 28L15 28L15 29L14 29L14 28L12 28L12 27L13 27L13 26L11 26L11 28L10 28L10 32L9 32L9 28L8 28L8 33L11 33L11 29L12 29L12 30L13 30L13 31L14 31L14 30L15 30L15 33L19 33L19 31L18 31L18 30L20 30L20 32L22 32L22 33L23 33L23 32L24 32L24 33L25 33L25 32L24 32L24 31L27 31L27 32L28 32L28 33L29 33L29 31L30 31L30 32L31 32L31 33L32 33L32 32L31 32L31 31L32 31L32 30L31 30L31 29L32 29L32 28L31 28L31 27L32 27L32 26L33 26L33 24L32 24L32 26L31 26L31 25L30 25L30 24L31 24L31 23L32 23L32 22L33 22L33 21L32 21L32 20L31 20L31 19L32 19L32 18L33 18L33 17L32 17L32 16L31 16L31 15L32 15L32 14L33 14L33 13L31 13L31 15L30 15L30 13L29 13L29 10L28 10L28 8L27 8L27 9L26 9L26 8L24 8L24 9L23 9L23 8L22 8L22 7L23 7L23 5L24 5L24 4L23 4L23 3L25 3L25 1L24 1L24 0L23 0L23 1L24 1L24 2L22 2L22 0L17 0L17 1L18 1L18 2L19 2L19 1L20 1L20 2L21 2L21 3L22 3L22 4L18 4L18 3L17 3L17 2L16 2L16 1L15 1L15 0L14 0L14 1L15 1L15 2L14 2L14 3L13 3L13 4L12 4L12 2L13 2L13 1L11 1L11 2L10 2L10 0ZM15 2L15 3L14 3L14 4L15 4L15 5L17 5L17 7L16 7L16 6L15 6L15 7L16 7L16 9L17 9L17 10L16 10L16 12L19 12L19 13L21 13L21 14L18 14L18 15L17 15L17 13L13 13L13 14L12 14L12 13L11 13L11 12L10 12L10 13L9 13L9 11L6 11L6 12L8 12L8 13L6 13L6 14L7 14L7 15L6 15L6 16L7 16L7 15L8 15L8 13L9 13L9 14L10 14L10 13L11 13L11 16L10 16L10 15L9 15L9 17L10 17L10 18L9 18L9 19L11 19L11 18L13 18L13 17L12 17L12 15L13 15L13 16L14 16L14 18L16 18L16 17L17 17L17 18L18 18L18 19L16 19L16 21L15 21L15 20L14 20L14 19L12 19L12 21L13 21L13 22L14 22L14 23L13 23L13 24L14 24L14 25L15 25L15 26L16 26L16 27L17 27L17 28L16 28L16 29L15 29L15 30L16 30L16 31L17 31L17 32L18 32L18 31L17 31L17 30L18 30L18 29L19 29L19 27L21 27L21 26L18 26L18 25L20 25L20 23L21 23L21 21L22 21L22 20L20 20L20 18L18 18L18 17L22 17L22 16L20 16L20 15L21 15L21 14L23 14L23 17L24 17L24 18L21 18L21 19L24 19L24 20L23 20L23 21L24 21L24 22L23 22L23 23L22 23L22 24L21 24L21 25L22 25L22 24L23 24L23 23L24 23L24 24L27 24L27 22L25 22L25 21L27 21L27 20L28 20L28 19L26 19L26 18L25 18L25 17L28 17L28 18L29 18L29 17L30 17L30 19L29 19L29 20L30 20L30 21L28 21L28 24L30 24L30 23L29 23L29 22L30 22L30 21L31 21L31 20L30 20L30 19L31 19L31 16L30 16L30 15L29 15L29 13L28 13L28 16L26 16L26 14L25 14L25 13L27 13L27 12L28 12L28 11L27 11L27 10L25 10L25 9L24 9L24 10L23 10L23 9L22 9L22 8L21 8L21 9L22 9L22 10L23 10L23 11L24 11L24 12L25 12L25 13L24 13L24 14L23 14L23 12L20 12L20 10L19 10L19 9L20 9L20 6L21 6L21 7L22 7L22 6L21 6L21 5L17 5L17 4L15 4L15 3L16 3L16 2ZM10 3L10 4L11 4L11 3ZM8 5L8 7L9 7L9 5ZM18 6L18 8L17 8L17 9L18 9L18 8L19 8L19 6ZM24 6L24 7L25 7L25 6ZM29 8L29 9L30 9L30 8ZM31 8L31 10L33 10L33 9L32 9L32 8ZM17 10L17 11L19 11L19 10ZM24 10L24 11L25 11L25 12L26 12L26 11L25 11L25 10ZM30 11L30 12L31 12L31 11ZM13 14L13 15L15 15L15 17L16 17L16 16L17 16L17 17L18 17L18 16L17 16L17 15L16 15L16 14ZM24 16L24 17L25 17L25 16ZM28 16L28 17L29 17L29 16ZM6 17L6 18L8 18L8 17ZM18 19L18 20L17 20L17 21L16 21L16 22L15 22L15 21L14 21L14 20L13 20L13 21L14 21L14 22L15 22L15 23L16 23L16 22L17 22L17 23L18 23L18 22L17 22L17 21L19 21L19 22L20 22L20 20L19 20L19 19ZM24 20L24 21L25 21L25 20ZM2 21L2 22L3 22L3 21ZM9 21L9 22L8 22L8 23L7 23L7 22L6 22L6 23L7 23L7 24L6 24L6 25L7 25L7 24L8 24L8 27L9 27L9 24L10 24L10 25L11 25L11 24L10 24L10 23L9 23L9 22L10 22L10 21ZM8 23L8 24L9 24L9 23ZM15 24L15 25L18 25L18 24ZM23 25L23 26L24 26L24 25ZM25 25L25 28L28 28L28 25ZM29 25L29 28L30 28L30 29L31 29L31 28L30 28L30 27L31 27L31 26L30 26L30 25ZM26 26L26 27L27 27L27 26ZM23 27L23 29L22 29L22 28L20 28L20 29L22 29L22 30L23 30L23 31L22 31L22 32L23 32L23 31L24 31L24 27ZM17 28L17 29L16 29L16 30L17 30L17 29L18 29L18 28ZM13 29L13 30L14 30L14 29ZM25 29L25 30L28 30L28 31L29 31L29 30L28 30L28 29ZM30 30L30 31L31 31L31 30ZM13 32L13 33L14 33L14 32ZM0 0L0 7L7 7L7 0ZM1 1L1 6L6 6L6 1ZM2 2L2 5L5 5L5 2ZM26 0L26 7L33 7L33 0ZM27 1L27 6L32 6L32 1ZM28 2L28 5L31 5L31 2ZM0 26L0 33L7 33L7 26ZM1 27L1 32L6 32L6 27ZM2 28L2 31L5 31L5 28Z" fill="#000000"/></g></g></svg>
