<?xml version="1.0" encoding="UTF-8"?>
<svg xmlns="http://www.w3.org/2000/svg" version="1.1" width="100" height="100" viewBox="0 0 100 100"><rect x="0" y="0" width="100" height="100" fill="#ffffff"/><g transform="scale(2.703)"><g transform="translate(0,0)"><path fill-rule="evenodd" d="M9 0L9 1L10 1L10 2L8 2L8 3L9 3L9 4L10 4L10 5L9 5L9 6L8 6L8 8L4 8L4 9L3 9L3 8L0 8L0 10L1 10L1 9L2 9L2 10L4 10L4 11L7 11L7 12L6 12L6 13L5 13L5 12L4 12L4 13L2 13L2 12L3 12L3 11L2 11L2 12L1 12L1 11L0 11L0 12L1 12L1 13L0 13L0 14L1 14L1 15L2 15L2 17L1 17L1 18L0 18L0 19L1 19L1 20L0 20L0 21L2 21L2 20L3 20L3 21L8 21L8 22L5 22L5 23L3 23L3 22L2 22L2 23L3 23L3 25L2 25L2 24L1 24L1 23L0 23L0 24L1 24L1 26L0 26L0 27L1 27L1 28L0 28L0 29L1 29L1 28L2 28L2 29L3 29L3 28L2 28L2 27L3 27L3 25L4 25L4 24L5 24L5 23L9 23L9 24L8 24L8 33L9 33L9 34L8 34L8 37L9 37L9 36L10 36L10 37L11 37L11 36L12 36L12 37L13 37L13 36L12 36L12 35L11 35L11 34L12 34L12 32L14 32L14 34L13 34L13 35L14 35L14 34L15 34L15 30L14 30L14 29L13 29L13 28L12 28L12 27L11 27L11 26L12 26L12 24L14 24L14 26L13 26L13 27L14 27L14 26L16 26L16 27L15 27L15 29L16 29L16 27L17 27L17 29L19 29L19 28L18 28L18 24L20 24L20 23L17 23L17 22L18 22L18 20L20 20L20 19L21 19L21 21L22 21L22 20L25 20L25 21L24 21L24 23L23 23L23 22L22 22L22 23L21 23L21 25L22 25L22 24L25 24L25 25L24 25L24 26L25 26L25 29L24 29L24 30L26 30L26 31L23 31L23 29L22 29L22 27L21 27L21 26L20 26L20 30L21 30L21 31L20 31L20 32L21 32L21 33L25 33L25 34L28 34L28 36L27 36L27 37L29 37L29 33L31 33L31 35L32 35L32 36L33 36L33 35L35 35L35 37L37 37L37 36L36 36L36 35L37 35L37 34L35 34L35 33L33 33L33 28L32 28L32 26L31 26L31 24L33 24L33 23L35 23L35 25L36 25L36 26L34 26L34 25L33 25L33 27L35 27L35 28L36 28L36 27L37 27L37 24L36 24L36 23L37 23L37 20L36 20L36 19L37 19L37 16L36 16L36 15L37 15L37 9L36 9L36 14L35 14L35 13L34 13L34 14L33 14L33 15L32 15L32 14L31 14L31 12L34 12L34 11L33 11L33 10L35 10L35 8L34 8L34 9L33 9L33 10L32 10L32 11L31 11L31 12L29 12L29 10L31 10L31 8L29 8L29 5L28 5L28 4L29 4L29 2L28 2L28 0L26 0L26 2L27 2L27 4L25 4L25 3L22 3L22 5L20 5L20 3L19 3L19 2L20 2L20 1L21 1L21 2L24 2L24 1L25 1L25 0L19 0L19 2L18 2L18 1L17 1L17 0L16 0L16 1L14 1L14 0L12 0L12 1L10 1L10 0ZM13 1L13 2L14 2L14 1ZM11 2L11 3L12 3L12 4L11 4L11 5L10 5L10 6L9 6L9 7L10 7L10 6L11 6L11 8L12 8L12 10L10 10L10 11L9 11L9 10L8 10L8 11L9 11L9 12L11 12L11 13L10 13L10 14L9 14L9 13L8 13L8 12L7 12L7 13L6 13L6 14L5 14L5 13L4 13L4 14L2 14L2 13L1 13L1 14L2 14L2 15L4 15L4 16L5 16L5 17L3 17L3 18L2 18L2 19L3 19L3 20L9 20L9 21L10 21L10 23L11 23L11 24L12 24L12 23L11 23L11 21L12 21L12 20L13 20L13 21L14 21L14 22L13 22L13 23L14 23L14 22L15 22L15 21L16 21L16 20L17 20L17 19L18 19L18 18L17 18L17 16L16 16L16 15L15 15L15 16L16 16L16 18L14 18L14 16L12 16L12 15L11 15L11 16L12 16L12 18L11 18L11 17L10 17L10 19L9 19L9 18L8 18L8 17L6 17L6 16L7 16L7 15L8 15L8 16L10 16L10 14L11 14L11 13L12 13L12 12L13 12L13 13L14 13L14 14L13 14L13 15L14 15L14 14L15 14L15 13L16 13L16 12L17 12L17 8L16 8L16 6L17 6L17 7L18 7L18 6L19 6L19 10L18 10L18 12L19 12L19 15L20 15L20 14L21 14L21 15L22 15L22 18L21 18L21 16L19 16L19 19L20 19L20 18L21 18L21 19L22 19L22 18L23 18L23 19L25 19L25 18L26 18L26 22L25 22L25 23L27 23L27 24L26 24L26 25L27 25L27 27L26 27L26 30L27 30L27 29L28 29L28 28L31 28L31 27L30 27L30 26L28 26L28 25L29 25L29 24L31 24L31 23L32 23L32 22L34 22L34 21L35 21L35 22L36 22L36 21L35 21L35 18L36 18L36 16L35 16L35 14L34 14L34 16L31 16L31 18L28 18L28 17L27 17L27 16L26 16L26 17L25 17L25 18L24 18L24 16L23 16L23 15L24 15L24 12L22 12L22 13L23 13L23 14L21 14L21 11L25 11L25 10L24 10L24 9L23 9L23 8L24 8L24 6L25 6L25 7L26 7L26 5L25 5L25 4L24 4L24 6L23 6L23 7L22 7L22 6L21 6L21 7L20 7L20 6L19 6L19 5L18 5L18 2L17 2L17 3L16 3L16 2L15 2L15 3L16 3L16 4L15 4L15 5L14 5L14 4L13 4L13 3L12 3L12 2ZM13 5L13 6L12 6L12 8L14 8L14 10L13 10L13 11L14 11L14 10L16 10L16 8L15 8L15 6L14 6L14 5ZM17 5L17 6L18 6L18 5ZM13 6L13 7L14 7L14 6ZM27 6L27 8L26 8L26 11L27 11L27 12L26 12L26 14L25 14L25 15L28 15L28 16L30 16L30 15L28 15L28 14L29 14L29 13L27 13L27 12L28 12L28 9L27 9L27 8L28 8L28 6ZM21 7L21 8L20 8L20 11L19 11L19 12L20 12L20 11L21 11L21 10L22 10L22 7ZM9 8L9 9L10 9L10 8ZM4 9L4 10L7 10L7 9ZM11 11L11 12L12 12L12 11ZM15 11L15 12L16 12L16 11ZM7 13L7 14L6 14L6 15L7 15L7 14L8 14L8 13ZM4 14L4 15L5 15L5 14ZM17 14L17 15L18 15L18 14ZM5 17L5 19L7 19L7 18L6 18L6 17ZM34 17L34 18L31 18L31 20L30 20L30 19L29 19L29 20L28 20L28 19L27 19L27 20L28 20L28 22L29 22L29 23L30 23L30 22L31 22L31 20L32 20L32 19L34 19L34 18L35 18L35 17ZM13 18L13 19L14 19L14 18ZM11 19L11 20L10 20L10 21L11 21L11 20L12 20L12 19ZM15 19L15 20L16 20L16 19ZM15 23L15 24L16 24L16 23ZM6 24L6 25L7 25L7 24ZM9 24L9 26L10 26L10 24ZM16 25L16 26L17 26L17 25ZM1 26L1 27L2 27L2 26ZM6 26L6 27L4 27L4 29L5 29L5 28L6 28L6 29L7 29L7 28L6 28L6 27L7 27L7 26ZM9 27L9 28L10 28L10 27ZM27 27L27 28L28 28L28 27ZM11 28L11 29L10 29L10 32L9 32L9 33L11 33L11 32L12 32L12 31L11 31L11 29L12 29L12 28ZM29 29L29 32L32 32L32 29ZM34 29L34 30L35 30L35 32L36 32L36 33L37 33L37 32L36 32L36 31L37 31L37 29ZM13 30L13 31L14 31L14 30ZM17 30L17 31L16 31L16 32L17 32L17 37L19 37L19 36L18 36L18 35L19 35L19 31L18 31L18 30ZM30 30L30 31L31 31L31 30ZM27 31L27 32L26 32L26 33L28 33L28 31ZM20 34L20 37L22 37L22 36L24 36L24 37L26 37L26 35L22 35L22 34ZM30 36L30 37L31 37L31 36ZM0 0L0 7L7 7L7 0ZM1 1L1 6L6 6L6 1ZM2 2L2 5L5 5L5 2ZM30 0L30 7L37 7L37 0ZM31 1L31 6L36 6L36 1ZM32 2L32 5L35 5L35 2ZM0 30L0 37L7 37L7 30ZM1 31L1 36L6 36L6 31ZM2 32L2 35L5 35L5 32Z" fill="#000000"/></g></g></svg>
