<?xml version="1.0" encoding="UTF-8"?>
<svg xmlns="http://www.w3.org/2000/svg" version="1.1" width="100" height="100" viewBox="0 0 100 100"><rect x="0" y="0" width="100" height="100" fill="#ffffff"/><g transform="scale(3.448)"><g transform="translate(0,0)"><path fill-rule="evenodd" d="M9 0L9 1L8 1L8 2L9 2L9 3L8 3L8 4L9 4L9 3L12 3L12 2L15 2L15 3L13 3L13 4L10 4L10 5L8 5L8 7L9 7L9 8L6 8L6 9L8 9L8 10L4 10L4 9L5 9L5 8L0 8L0 10L2 10L2 11L4 11L4 13L3 13L3 14L5 14L5 15L7 15L7 14L8 14L8 16L6 16L6 17L7 17L7 18L5 18L5 20L4 20L4 19L3 19L3 18L4 18L4 17L5 17L5 16L4 16L4 15L3 15L3 18L2 18L2 16L1 16L1 15L0 15L0 16L1 16L1 17L0 17L0 21L1 21L1 18L2 18L2 21L3 21L3 20L4 20L4 21L5 21L5 20L6 20L6 21L8 21L8 23L9 23L9 24L8 24L8 29L9 29L9 27L10 27L10 29L16 29L16 28L17 28L17 29L18 29L18 28L22 28L22 27L23 27L23 26L24 26L24 27L26 27L26 26L24 26L24 25L27 25L27 24L28 24L28 23L27 23L27 22L29 22L29 20L28 20L28 19L27 19L27 16L28 16L28 15L27 15L27 12L28 12L28 11L27 11L27 12L25 12L25 9L26 9L26 8L25 8L25 9L24 9L24 8L23 8L23 9L22 9L22 8L20 8L20 9L18 9L18 8L17 8L17 6L16 6L16 5L17 5L17 4L18 4L18 5L20 5L20 3L21 3L21 0L18 0L18 1L17 1L17 0L16 0L16 1L14 1L14 0ZM9 1L9 2L12 2L12 1ZM18 1L18 2L17 2L17 3L16 3L16 4L15 4L15 5L16 5L16 4L17 4L17 3L18 3L18 4L19 4L19 2L20 2L20 1ZM13 4L13 5L10 5L10 6L9 6L9 7L10 7L10 9L9 9L9 12L11 12L11 11L12 11L12 12L14 12L14 10L16 10L16 9L17 9L17 8L16 8L16 9L15 9L15 7L16 7L16 6L15 6L15 7L14 7L14 4ZM10 6L10 7L11 7L11 6ZM12 6L12 8L13 8L13 9L11 9L11 10L10 10L10 11L11 11L11 10L14 10L14 8L13 8L13 6ZM18 6L18 7L19 7L19 6ZM20 6L20 7L21 7L21 6ZM27 8L27 9L28 9L28 10L29 10L29 9L28 9L28 8ZM20 9L20 10L18 10L18 11L17 11L17 12L18 12L18 13L17 13L17 14L16 14L16 13L13 13L13 14L11 14L11 13L9 13L9 14L10 14L10 15L9 15L9 16L8 16L8 19L10 19L10 18L11 18L11 19L13 19L13 20L11 20L11 21L9 21L9 20L8 20L8 21L9 21L9 22L11 22L11 24L10 24L10 25L9 25L9 26L10 26L10 27L11 27L11 28L12 28L12 27L13 27L13 28L14 28L14 27L15 27L15 26L17 26L17 28L18 28L18 27L20 27L20 23L18 23L18 21L19 21L19 20L21 20L21 19L22 19L22 18L21 18L21 17L20 17L20 16L21 16L21 14L22 14L22 17L23 17L23 18L24 18L24 19L25 19L25 21L26 21L26 20L27 20L27 19L25 19L25 18L24 18L24 17L26 17L26 16L27 16L27 15L26 15L26 13L25 13L25 12L24 12L24 9L23 9L23 12L22 12L22 13L20 13L20 12L21 12L21 11L22 11L22 10L21 10L21 9ZM0 11L0 13L2 13L2 12L1 12L1 11ZM6 11L6 12L5 12L5 13L6 13L6 14L7 14L7 13L8 13L8 12L7 12L7 11ZM18 11L18 12L19 12L19 11ZM6 12L6 13L7 13L7 12ZM23 12L23 13L22 13L22 14L23 14L23 13L24 13L24 14L25 14L25 13L24 13L24 12ZM18 13L18 14L20 14L20 13ZM28 13L28 14L29 14L29 13ZM14 14L14 15L15 15L15 16L12 16L12 15L10 15L10 17L9 17L9 18L10 18L10 17L11 17L11 18L13 18L13 17L16 17L16 18L14 18L14 20L13 20L13 21L14 21L14 23L15 23L15 24L11 24L11 26L12 26L12 25L15 25L15 24L17 24L17 25L18 25L18 24L17 24L17 21L18 21L18 20L19 20L19 18L20 18L20 17L19 17L19 18L17 18L17 17L18 17L18 16L17 16L17 15L16 15L16 14ZM23 15L23 16L24 16L24 15ZM28 17L28 18L29 18L29 17ZM6 19L6 20L7 20L7 19ZM15 19L15 20L18 20L18 19ZM11 21L11 22L12 22L12 23L13 23L13 22L12 22L12 21ZM15 21L15 22L16 22L16 21ZM21 21L21 24L24 24L24 21ZM22 22L22 23L23 23L23 22ZM25 23L25 24L27 24L27 23ZM22 25L22 26L21 26L21 27L22 27L22 26L23 26L23 25ZM28 25L28 26L27 26L27 28L24 28L24 29L27 29L27 28L28 28L28 26L29 26L29 25ZM0 0L0 7L7 7L7 0ZM1 1L1 6L6 6L6 1ZM2 2L2 5L5 5L5 2ZM22 0L22 7L29 7L29 0ZM23 1L23 6L28 6L28 1ZM24 2L24 5L27 5L27 2ZM0 22L0 29L7 29L7 22ZM1 23L1 28L6 28L6 23ZM2 24L2 27L5 27L5 24Z" fill="#000000"/></g></g></svg>
