<?xml version="1.0" encoding="UTF-8"?>
<svg xmlns="http://www.w3.org/2000/svg" version="1.1" width="100" height="100" viewBox="0 0 100 100"><rect x="0" y="0" width="100" height="100" fill="#ffffff"/><g transform="scale(2.703)"><g transform="translate(0,0)"><path fill-rule="evenodd" d="M8 0L8 1L9 1L9 2L10 2L10 3L11 3L11 1L13 1L13 0L11 0L11 1L9 1L9 0ZM15 0L15 1L16 1L16 2L15 2L15 3L16 3L16 4L14 4L14 5L15 5L15 6L14 6L14 7L13 7L13 5L12 5L12 4L13 4L13 2L12 2L12 4L11 4L11 5L10 5L10 4L9 4L9 5L10 5L10 8L9 8L9 6L8 6L8 8L9 8L9 10L8 10L8 9L7 9L7 8L6 8L6 9L7 9L7 10L6 10L6 11L7 11L7 12L5 12L5 11L4 11L4 10L5 10L5 8L3 8L3 9L4 9L4 10L2 10L2 11L1 11L1 10L0 10L0 11L1 11L1 13L0 13L0 18L1 18L1 19L0 19L0 20L1 20L1 22L0 22L0 23L3 23L3 24L0 24L0 29L1 29L1 27L2 27L2 29L4 29L4 28L5 28L5 29L7 29L7 28L8 28L8 30L10 30L10 29L11 29L11 30L12 30L12 31L9 31L9 32L8 32L8 34L9 34L9 35L8 35L8 37L9 37L9 35L10 35L10 34L11 34L11 36L10 36L10 37L14 37L14 31L15 31L15 37L16 37L16 35L17 35L17 36L18 36L18 37L21 37L21 34L22 34L22 35L23 35L23 37L25 37L25 36L24 36L24 34L25 34L25 32L26 32L26 33L29 33L29 35L30 35L30 36L28 36L28 34L27 34L27 36L28 36L28 37L32 37L32 36L33 36L33 37L34 37L34 36L36 36L36 37L37 37L37 30L36 30L36 28L37 28L37 26L36 26L36 25L37 25L37 22L36 22L36 21L37 21L37 18L36 18L36 20L35 20L35 22L36 22L36 23L33 23L33 22L34 22L34 19L33 19L33 18L34 18L34 17L37 17L37 14L36 14L36 13L37 13L37 12L35 12L35 11L37 11L37 10L36 10L36 9L37 9L37 8L36 8L36 9L35 9L35 10L33 10L33 9L31 9L31 8L30 8L30 9L31 9L31 10L32 10L32 12L31 12L31 11L30 11L30 10L29 10L29 11L30 11L30 13L32 13L32 15L33 15L33 14L35 14L35 15L34 15L34 16L33 16L33 18L32 18L32 17L31 17L31 16L30 16L30 15L31 15L31 14L28 14L28 13L29 13L29 12L28 12L28 9L29 9L29 6L28 6L28 7L27 7L27 2L25 2L25 1L27 1L27 0L24 0L24 2L25 2L25 5L23 5L23 6L22 6L22 7L23 7L23 9L22 9L22 10L20 10L20 8L21 8L21 5L22 5L22 2L23 2L23 0L22 0L22 2L21 2L21 0L20 0L20 1L18 1L18 0ZM17 1L17 3L18 3L18 4L20 4L20 5L19 5L19 7L18 7L18 6L17 6L17 8L15 8L15 7L16 7L16 6L15 6L15 7L14 7L14 13L15 13L15 14L14 14L14 15L12 15L12 16L11 16L11 17L14 17L14 16L15 16L15 18L12 18L12 19L11 19L11 18L10 18L10 17L9 17L9 18L8 18L8 14L9 14L9 16L10 16L10 15L11 15L11 14L13 14L13 13L11 13L11 11L10 11L10 10L12 10L12 11L13 11L13 10L12 10L12 9L13 9L13 7L12 7L12 5L11 5L11 7L12 7L12 9L10 9L10 10L9 10L9 12L8 12L8 13L5 13L5 12L4 12L4 11L3 11L3 12L2 12L2 13L5 13L5 14L4 14L4 16L3 16L3 18L2 18L2 17L1 17L1 18L2 18L2 19L5 19L5 17L4 17L4 16L7 16L7 17L6 17L6 18L7 18L7 19L6 19L6 20L4 20L4 21L6 21L6 22L5 22L5 23L4 23L4 22L3 22L3 23L4 23L4 25L5 25L5 26L7 26L7 27L5 27L5 28L7 28L7 27L8 27L8 26L11 26L11 27L10 27L10 28L12 28L12 27L14 27L14 26L16 26L16 27L15 27L15 28L13 28L13 29L12 29L12 30L15 30L15 28L16 28L16 27L17 27L17 31L16 31L16 33L17 33L17 35L18 35L18 34L19 34L19 35L20 35L20 34L19 34L19 33L17 33L17 32L21 32L21 33L22 33L22 30L24 30L24 31L23 31L23 32L25 32L25 30L27 30L27 31L26 31L26 32L27 32L27 31L28 31L28 29L27 29L27 28L28 28L28 27L30 27L30 26L31 26L31 28L32 28L32 25L33 25L33 27L34 27L34 26L35 26L35 25L36 25L36 24L34 24L34 25L33 25L33 24L32 24L32 22L31 22L31 21L28 21L28 22L29 22L29 24L28 24L28 25L29 25L29 26L28 26L28 27L27 27L27 24L26 24L26 23L27 23L27 22L26 22L26 20L25 20L25 19L27 19L27 20L30 20L30 19L32 19L32 18L31 18L31 17L30 17L30 16L28 16L28 15L24 15L24 14L25 14L25 13L28 13L28 12L26 12L26 11L27 11L27 10L26 10L26 8L27 8L27 9L28 9L28 8L27 8L27 7L26 7L26 6L25 6L25 7L24 7L24 6L23 6L23 7L24 7L24 8L25 8L25 9L24 9L24 12L25 12L25 13L24 13L24 14L22 14L22 13L23 13L23 11L21 11L21 13L18 13L18 12L17 12L17 15L16 15L16 13L15 13L15 12L16 12L16 11L15 11L15 10L16 10L16 9L17 9L17 11L19 11L19 12L20 12L20 10L19 10L19 9L17 9L17 8L19 8L19 7L20 7L20 5L21 5L21 4L20 4L20 3L18 3L18 1ZM28 2L28 3L29 3L29 2ZM28 4L28 5L29 5L29 4ZM25 7L25 8L26 8L26 7ZM0 8L0 9L2 9L2 8ZM25 10L25 11L26 11L26 10ZM33 11L33 12L32 12L32 13L33 13L33 12L34 12L34 13L35 13L35 12L34 12L34 11ZM9 12L9 13L10 13L10 12ZM2 14L2 15L1 15L1 16L2 16L2 15L3 15L3 14ZM6 14L6 15L7 15L7 14ZM18 14L18 15L19 15L19 16L18 16L18 17L17 17L17 16L16 16L16 15L15 15L15 16L16 16L16 18L15 18L15 19L14 19L14 20L13 20L13 19L12 19L12 21L14 21L14 24L13 24L13 25L12 25L12 26L13 26L13 25L15 25L15 24L16 24L16 25L17 25L17 24L18 24L18 22L21 22L21 23L22 23L22 22L23 22L23 26L24 26L24 23L25 23L25 22L24 22L24 21L21 21L21 19L22 19L22 20L23 20L23 19L24 19L24 18L23 18L23 17L25 17L25 18L26 18L26 16L23 16L23 15L22 15L22 14ZM21 15L21 18L22 18L22 15ZM35 15L35 16L36 16L36 15ZM19 16L19 17L18 17L18 18L19 18L19 17L20 17L20 16ZM27 17L27 19L28 19L28 17ZM29 17L29 19L30 19L30 17ZM16 18L16 19L15 19L15 20L18 20L18 21L15 21L15 23L16 23L16 24L17 24L17 22L18 22L18 21L20 21L20 20L19 20L19 19L17 19L17 18ZM8 19L8 23L7 23L7 22L6 22L6 23L5 23L5 24L6 24L6 25L7 25L7 26L8 26L8 25L11 25L11 24L10 24L10 23L11 23L11 21L10 21L10 20L9 20L9 19ZM6 20L6 21L7 21L7 20ZM12 22L12 23L13 23L13 22ZM6 23L6 24L7 24L7 23ZM8 23L8 24L9 24L9 23ZM19 23L19 25L18 25L18 26L17 26L17 27L18 27L18 30L19 30L19 31L20 31L20 30L21 30L21 28L20 28L20 26L21 26L21 27L22 27L22 29L24 29L24 28L25 28L25 29L26 29L26 28L27 28L27 27L26 27L26 28L25 28L25 27L22 27L22 25L20 25L20 23ZM30 23L30 25L32 25L32 24L31 24L31 23ZM2 25L2 27L3 27L3 25ZM19 25L19 26L18 26L18 27L19 27L19 26L20 26L20 25ZM25 25L25 26L26 26L26 25ZM35 27L35 28L36 28L36 27ZM19 28L19 29L20 29L20 28ZM29 29L29 32L32 32L32 29ZM34 29L34 33L31 33L31 34L30 34L30 35L31 35L31 34L33 34L33 35L36 35L36 34L35 34L35 33L36 33L36 30L35 30L35 29ZM30 30L30 31L31 31L31 30ZM12 31L12 33L11 33L11 32L10 32L10 33L11 33L11 34L12 34L12 35L13 35L13 34L12 34L12 33L13 33L13 31ZM0 0L0 7L7 7L7 0ZM1 1L1 6L6 6L6 1ZM2 2L2 5L5 5L5 2ZM30 0L30 7L37 7L37 0ZM31 1L31 6L36 6L36 1ZM32 2L32 5L35 5L35 2ZM0 30L0 37L7 37L7 30ZM1 31L1 36L6 36L6 31ZM2 32L2 35L5 35L5 32Z" fill="#000000"/></g></g></svg>
