<?xml version="1.0" encoding="UTF-8"?>
<svg xmlns="http://www.w3.org/2000/svg" version="1.1" width="100" height="100" viewBox="0 0 100 100"><rect x="0" y="0" width="100" height="100" fill="#ffffff"/><g transform="scale(2.703)"><g transform="translate(0,0)"><path fill-rule="evenodd" d="M8 0L8 1L9 1L9 2L10 2L10 3L11 3L11 1L13 1L13 0L11 0L11 1L9 1L9 0ZM15 0L15 1L16 1L16 2L15 2L15 3L16 3L16 4L14 4L14 5L15 5L15 6L14 6L14 7L13 7L13 5L12 5L12 4L13 4L13 2L12 2L12 4L11 4L11 5L10 5L10 4L9 4L9 5L10 5L10 8L9 8L9 6L8 6L8 8L9 8L9 9L7 9L7 8L6 8L6 9L5 9L5 8L3 8L3 9L2 9L2 8L0 8L0 11L1 11L1 10L3 10L3 9L5 9L5 10L4 10L4 13L3 13L3 11L2 11L2 13L3 13L3 15L2 15L2 16L3 16L3 17L4 17L4 16L6 16L6 17L7 17L7 16L6 16L6 15L7 15L7 14L6 14L6 13L8 13L8 12L10 12L10 11L11 11L11 13L13 13L13 14L11 14L11 15L10 15L10 13L9 13L9 14L8 14L8 16L9 16L9 17L10 17L10 16L12 16L12 15L14 15L14 14L15 14L15 13L16 13L16 15L15 15L15 16L14 16L14 17L11 17L11 19L12 19L12 21L14 21L14 24L13 24L13 25L12 25L12 26L13 26L13 25L15 25L15 24L16 24L16 25L17 25L17 24L18 24L18 22L21 22L21 23L22 23L22 22L23 22L23 26L24 26L24 23L25 23L25 22L24 22L24 21L21 21L21 19L22 19L22 20L23 20L23 19L24 19L24 18L23 18L23 17L25 17L25 18L26 18L26 16L23 16L23 15L22 15L22 14L24 14L24 15L28 15L28 16L30 16L30 17L29 17L29 19L30 19L30 20L27 20L27 19L28 19L28 17L27 17L27 19L25 19L25 20L26 20L26 22L27 22L27 23L26 23L26 24L27 24L27 27L26 27L26 28L25 28L25 27L22 27L22 25L20 25L20 23L19 23L19 25L18 25L18 26L14 26L14 27L12 27L12 28L11 28L11 29L9 29L9 28L10 28L10 27L11 27L11 26L10 26L10 23L11 23L11 20L8 20L8 18L6 18L6 19L4 19L4 21L3 21L3 18L2 18L2 17L1 17L1 18L0 18L0 22L1 22L1 19L2 19L2 23L1 23L1 24L3 24L3 26L2 26L2 25L0 25L0 29L1 29L1 27L2 27L2 29L3 29L3 28L5 28L5 29L8 29L8 30L9 30L9 31L10 31L10 33L9 33L9 32L8 32L8 34L9 34L9 35L8 35L8 37L10 37L10 36L11 36L11 37L14 37L14 31L16 31L16 32L15 32L15 37L16 37L16 35L17 35L17 36L18 36L18 37L21 37L21 34L22 34L22 35L23 35L23 37L25 37L25 36L24 36L24 34L25 34L25 32L26 32L26 33L29 33L29 35L30 35L30 36L28 36L28 34L27 34L27 36L28 36L28 37L32 37L32 36L33 36L33 37L34 37L34 36L36 36L36 37L37 37L37 30L36 30L36 28L37 28L37 26L36 26L36 25L37 25L37 22L36 22L36 21L37 21L37 18L36 18L36 20L35 20L35 22L36 22L36 23L33 23L33 22L34 22L34 19L33 19L33 18L34 18L34 17L37 17L37 14L36 14L36 13L37 13L37 12L35 12L35 11L37 11L37 10L36 10L36 9L37 9L37 8L36 8L36 9L35 9L35 10L33 10L33 9L31 9L31 8L30 8L30 9L31 9L31 10L32 10L32 12L31 12L31 11L30 11L30 10L29 10L29 11L30 11L30 13L32 13L32 15L33 15L33 14L35 14L35 15L34 15L34 16L33 16L33 18L32 18L32 17L31 17L31 16L30 16L30 15L31 15L31 14L28 14L28 13L29 13L29 12L28 12L28 9L29 9L29 6L28 6L28 7L27 7L27 2L25 2L25 1L27 1L27 0L24 0L24 2L25 2L25 5L23 5L23 6L22 6L22 7L23 7L23 9L22 9L22 10L21 10L21 11L23 11L23 13L22 13L22 14L18 14L18 15L20 15L20 17L19 17L19 16L18 16L18 17L17 17L17 16L16 16L16 15L17 15L17 12L18 12L18 13L21 13L21 12L19 12L19 11L17 11L17 9L19 9L19 10L20 10L20 7L21 7L21 5L22 5L22 2L23 2L23 0L22 0L22 2L21 2L21 0L20 0L20 1L18 1L18 0ZM17 1L17 3L18 3L18 4L20 4L20 5L19 5L19 7L18 7L18 6L17 6L17 8L15 8L15 7L16 7L16 6L15 6L15 7L14 7L14 13L15 13L15 12L16 12L16 11L15 11L15 10L16 10L16 9L17 9L17 8L19 8L19 7L20 7L20 5L21 5L21 4L20 4L20 3L18 3L18 1ZM28 2L28 3L29 3L29 2ZM28 4L28 5L29 5L29 4ZM11 5L11 7L12 7L12 9L10 9L10 10L12 10L12 11L13 11L13 10L12 10L12 9L13 9L13 7L12 7L12 5ZM23 6L23 7L24 7L24 8L25 8L25 9L24 9L24 12L25 12L25 13L24 13L24 14L25 14L25 13L28 13L28 12L26 12L26 11L27 11L27 10L26 10L26 8L27 8L27 9L28 9L28 8L27 8L27 7L26 7L26 6L25 6L25 7L24 7L24 6ZM25 7L25 8L26 8L26 7ZM6 9L6 10L5 10L5 13L4 13L4 14L5 14L5 15L6 15L6 14L5 14L5 13L6 13L6 12L8 12L8 11L9 11L9 10L7 10L7 9ZM6 10L6 11L7 11L7 10ZM25 10L25 11L26 11L26 10ZM33 11L33 12L32 12L32 13L33 13L33 12L34 12L34 13L35 13L35 12L34 12L34 11ZM0 12L0 14L1 14L1 12ZM0 15L0 16L1 16L1 15ZM3 15L3 16L4 16L4 15ZM9 15L9 16L10 16L10 15ZM21 15L21 18L20 18L20 19L21 19L21 18L22 18L22 15ZM35 15L35 16L36 16L36 15ZM15 16L15 18L12 18L12 19L13 19L13 20L14 20L14 19L15 19L15 20L18 20L18 21L15 21L15 23L16 23L16 24L17 24L17 22L18 22L18 21L20 21L20 20L19 20L19 19L17 19L17 18L16 18L16 16ZM18 17L18 18L19 18L19 17ZM30 17L30 19L32 19L32 18L31 18L31 17ZM15 18L15 19L16 19L16 18ZM6 19L6 20L5 20L5 22L4 22L4 23L3 23L3 24L7 24L7 23L8 23L8 22L9 22L9 21L8 21L8 20L7 20L7 19ZM6 20L6 21L7 21L7 22L6 22L6 23L7 23L7 22L8 22L8 21L7 21L7 20ZM28 21L28 22L29 22L29 24L28 24L28 25L29 25L29 26L28 26L28 27L27 27L27 28L26 28L26 29L25 29L25 28L24 28L24 29L22 29L22 27L21 27L21 26L20 26L20 25L19 25L19 26L18 26L18 27L17 27L17 30L16 30L16 31L17 31L17 32L16 32L16 33L17 33L17 35L18 35L18 34L19 34L19 35L20 35L20 34L19 34L19 33L17 33L17 32L21 32L21 33L22 33L22 30L24 30L24 31L23 31L23 32L25 32L25 30L27 30L27 31L26 31L26 32L27 32L27 31L28 31L28 29L27 29L27 28L28 28L28 27L30 27L30 26L31 26L31 28L32 28L32 25L33 25L33 27L34 27L34 26L35 26L35 25L36 25L36 24L34 24L34 25L33 25L33 24L32 24L32 22L31 22L31 21ZM12 22L12 23L13 23L13 22ZM30 23L30 25L32 25L32 24L31 24L31 23ZM8 24L8 26L7 26L7 25L6 25L6 26L5 26L5 25L4 25L4 27L6 27L6 28L7 28L7 27L8 27L8 26L9 26L9 27L10 27L10 26L9 26L9 24ZM25 25L25 26L26 26L26 25ZM6 26L6 27L7 27L7 26ZM19 26L19 27L18 27L18 30L19 30L19 31L20 31L20 30L21 30L21 28L20 28L20 26ZM15 27L15 28L13 28L13 29L12 29L12 30L10 30L10 31L12 31L12 33L11 33L11 34L10 34L10 35L9 35L9 36L10 36L10 35L11 35L11 34L12 34L12 35L13 35L13 34L12 34L12 33L13 33L13 31L12 31L12 30L15 30L15 28L16 28L16 27ZM35 27L35 28L36 28L36 27ZM19 28L19 29L20 29L20 28ZM29 29L29 32L32 32L32 29ZM34 29L34 33L31 33L31 34L30 34L30 35L31 35L31 34L33 34L33 35L36 35L36 34L35 34L35 33L36 33L36 30L35 30L35 29ZM30 30L30 31L31 31L31 30ZM0 0L0 7L7 7L7 0ZM1 1L1 6L6 6L6 1ZM2 2L2 5L5 5L5 2ZM30 0L30 7L37 7L37 0ZM31 1L31 6L36 6L36 1ZM32 2L32 5L35 5L35 2ZM0 30L0 37L7 37L7 30ZM1 31L1 36L6 36L6 31ZM2 32L2 35L5 35L5 32Z" fill="#000000"/></g></g></svg>
